<svg xmlns="http://www.w3.org/2000/svg" xmlns:xlink="http://www.w3.org/1999/xlink" width="1024" zoomAndPan="magnify" viewBox="0 0 768 767.999994" height="1024" preserveAspectRatio="xMidYMid meet" version="1.0"><defs><g/><clipPath id="200d86dd6a"><path d="M 318 46.335938 L 474 46.335938 L 474 193.9375 L 318 193.9375 Z M 318 46.335938 " clip-rule="nonzero"/></clipPath><clipPath id="31385d527a"><path d="M 548.863281 7.1875 L 767.863281 7.1875 L 767.863281 226.1875 L 548.863281 226.1875 Z M 548.863281 7.1875 " clip-rule="nonzero"/></clipPath><clipPath id="7ef0d0732e"><path d="M 88 183 L 145 183 L 145 211.84375 L 88 211.84375 Z M 88 183 " clip-rule="nonzero"/></clipPath><clipPath id="31492df7e0"><path d="M 33 7.1875 L 201 7.1875 L 201 176 L 33 176 Z M 33 7.1875 " clip-rule="nonzero"/></clipPath><clipPath id="b32368ba2f"><path d="M 143 19 L 207.25 19 L 207.25 84 L 143 84 Z M 143 19 " clip-rule="nonzero"/></clipPath><clipPath id="16319e9dca"><path d="M 296 266 L 384 266 L 384 354 L 296 354 Z M 296 266 " clip-rule="nonzero"/></clipPath><clipPath id="30bab9acd0"><path d="M 202.171875 366.039062 L 396.273438 171.9375 L 590.371094 366.039062 L 396.273438 560.136719 Z M 202.171875 366.039062 " clip-rule="nonzero"/></clipPath><clipPath id="412766c71b"><path d="M 202.171875 366.039062 L 396.273438 171.9375 L 590.371094 366.039062 L 396.273438 560.136719 Z M 202.171875 366.039062 " clip-rule="nonzero"/></clipPath><clipPath id="32103d8b60"><path d="M 408 266 L 496 266 L 496 354 L 408 354 Z M 408 266 " clip-rule="nonzero"/></clipPath><clipPath id="089d8400cf"><path d="M 202.171875 366.039062 L 396.273438 171.9375 L 590.371094 366.039062 L 396.273438 560.136719 Z M 202.171875 366.039062 " clip-rule="nonzero"/></clipPath><clipPath id="d9021fd6f4"><path d="M 202.171875 366.039062 L 396.273438 171.9375 L 590.371094 366.039062 L 396.273438 560.136719 Z M 202.171875 366.039062 " clip-rule="nonzero"/></clipPath><clipPath id="4d6219823a"><path d="M 296 378 L 384 378 L 384 466 L 296 466 Z M 296 378 " clip-rule="nonzero"/></clipPath><clipPath id="0fc275a544"><path d="M 202.171875 366.039062 L 396.273438 171.9375 L 590.371094 366.039062 L 396.273438 560.136719 Z M 202.171875 366.039062 " clip-rule="nonzero"/></clipPath><clipPath id="5a45b40ceb"><path d="M 202.171875 366.039062 L 396.273438 171.9375 L 590.371094 366.039062 L 396.273438 560.136719 Z M 202.171875 366.039062 " clip-rule="nonzero"/></clipPath><clipPath id="a7d71d8da4"><path d="M 408 378 L 496 378 L 496 466 L 408 466 Z M 408 378 " clip-rule="nonzero"/></clipPath><clipPath id="f916e368f2"><path d="M 202.171875 366.039062 L 396.273438 171.9375 L 590.371094 366.039062 L 396.273438 560.136719 Z M 202.171875 366.039062 " clip-rule="nonzero"/></clipPath><clipPath id="a1b79035b7"><path d="M 202.171875 366.039062 L 396.273438 171.9375 L 590.371094 366.039062 L 396.273438 560.136719 Z M 202.171875 366.039062 " clip-rule="nonzero"/></clipPath><clipPath id="0b982ebde6"><path d="M 303.34375 481.832031 L 486.34375 481.832031 L 486.34375 710.582031 L 303.34375 710.582031 Z M 303.34375 481.832031 " clip-rule="nonzero"/></clipPath><clipPath id="b3fd035895"><path d="M 460 691 L 486 691 L 486 721 L 460 721 Z M 460 691 " clip-rule="nonzero"/></clipPath><clipPath id="6e858aa93c"><path d="M 472.542969 684.402344 L 497.785156 699.179688 L 484.90625 721.183594 L 459.660156 706.410156 Z M 472.542969 684.402344 " clip-rule="nonzero"/></clipPath><clipPath id="1de413a856"><path d="M 472.542969 684.402344 L 497.785156 699.179688 L 484.90625 721.183594 L 459.660156 706.410156 Z M 472.542969 684.402344 " clip-rule="nonzero"/></clipPath><clipPath id="0bcfb36d1b"><path d="M 303.34375 517.117188 L 322.84375 517.117188 L 322.84375 602.617188 L 303.34375 602.617188 Z M 303.34375 517.117188 " clip-rule="nonzero"/></clipPath><clipPath id="69f172d978"><path d="M 532.15625 477.734375 L 757.15625 477.734375 L 757.15625 702.734375 L 532.15625 702.734375 Z M 532.15625 477.734375 " clip-rule="nonzero"/></clipPath><clipPath id="a2f5fbc5d3"><path d="M 648 313 L 730 313 L 730 459.429688 L 648 459.429688 Z M 648 313 " clip-rule="nonzero"/></clipPath><clipPath id="7c6c1d5d0d"><path d="M 553 272.679688 L 715 272.679688 L 715 349 L 553 349 Z M 553 272.679688 " clip-rule="nonzero"/></clipPath><clipPath id="dc965df09b"><path d="M 532.15625 346 L 656 346 L 656 451 L 532.15625 451 Z M 532.15625 346 " clip-rule="nonzero"/></clipPath><clipPath id="92b63b2ae3"><path d="M 6.367188 481.832031 L 258.367188 481.832031 L 258.367188 733.832031 L 6.367188 733.832031 Z M 6.367188 481.832031 " clip-rule="nonzero"/></clipPath><clipPath id="4db99e92db"><path d="M 9.84375 211.949219 L 294.09375 211.949219 L 294.09375 496.199219 L 9.84375 496.199219 Z M 9.84375 211.949219 " clip-rule="nonzero"/></clipPath></defs><g clip-path="url(#200d86dd6a)"><path fill="#8600dd" d="M 473.121094 113.105469 L 399.351562 47.941406 C 397.4375 46.25 394.566406 46.25 392.65625 47.941406 L 318.882812 113.105469 C 318.339844 113.585938 318.03125 114.277344 318.03125 115 L 318.03125 191.644531 C 318.03125 193.042969 319.164062 194.171875 320.558594 194.171875 L 372.414062 194.171875 C 373.808594 194.171875 374.941406 193.042969 374.941406 191.644531 L 374.941406 142.691406 C 374.941406 137.109375 379.46875 132.582031 385.054688 132.582031 L 406.953125 132.582031 C 412.535156 132.582031 417.0625 137.109375 417.0625 142.691406 L 417.0625 191.644531 C 417.0625 193.042969 418.195312 194.171875 419.589844 194.171875 L 471.449219 194.171875 C 472.84375 194.171875 473.976562 193.042969 473.976562 191.644531 L 473.976562 115 C 473.976562 114.277344 473.664062 113.585938 473.121094 113.105469 " fill-opacity="1" fill-rule="nonzero"/></g><path fill="#8600dd" d="M 493.445312 87.820312 L 409.355469 13.914062 C 401.71875 7.203125 390.289062 7.203125 382.652344 13.914062 L 298.558594 87.820312 C 294.414062 91.464844 294.210938 97.851562 298.113281 101.753906 C 301.679688 105.320312 307.402344 105.5 311.183594 102.167969 L 389.320312 33.347656 C 393.140625 29.984375 398.867188 29.984375 402.6875 33.347656 L 480.824219 102.167969 C 484.605469 105.5 490.328125 105.320312 493.894531 101.753906 C 497.796875 97.851562 497.589844 91.464844 493.445312 87.820312 " fill-opacity="1" fill-rule="nonzero"/><g clip-path="url(#31385d527a)"><path fill="#f3f3f3" d="M 735.902344 39.277344 C 715.207031 18.585938 687.691406 7.1875 658.425781 7.1875 C 629.160156 7.1875 601.648438 18.585938 580.953125 39.277344 C 560.261719 59.972656 548.863281 87.488281 548.863281 116.753906 C 548.863281 146.019531 560.261719 173.53125 580.953125 194.226562 C 601.648438 214.921875 629.160156 226.316406 658.425781 226.316406 C 687.691406 226.316406 715.207031 214.921875 735.902344 194.226562 C 756.597656 173.535156 767.992188 146.019531 767.992188 116.753906 C 767.992188 87.488281 756.59375 59.972656 735.902344 39.277344 Z M 723.964844 189.027344 L 723.964844 186.878906 C 723.964844 167.84375 708.53125 152.410156 689.496094 152.410156 L 629.746094 152.410156 C 610.710938 152.410156 595.277344 167.84375 595.277344 186.878906 L 595.277344 191.121094 C 574.207031 173.203125 560.8125 146.515625 560.8125 116.753906 C 560.8125 62.929688 604.601562 19.140625 658.425781 19.140625 C 712.25 19.140625 756.039062 62.929688 756.039062 116.753906 C 756.039062 145.375 743.65625 171.160156 723.964844 189.027344 Z M 723.964844 189.027344 " fill-opacity="1" fill-rule="nonzero"/></g><path fill="#f3f3f3" d="M 698.066406 103.40625 C 698.066406 104.710938 698.003906 106.011719 697.875 107.308594 C 697.746094 108.609375 697.554688 109.898438 697.300781 111.179688 C 697.046875 112.457031 696.730469 113.722656 696.351562 114.96875 C 695.972656 116.21875 695.535156 117.445312 695.035156 118.652344 C 694.535156 119.855469 693.976562 121.035156 693.363281 122.1875 C 692.75 123.335938 692.078125 124.453125 691.351562 125.539062 C 690.628906 126.625 689.851562 127.671875 689.023438 128.679688 C 688.195312 129.6875 687.320312 130.65625 686.398438 131.578125 C 685.476562 132.5 684.511719 133.375 683.5 134.203125 C 682.492188 135.03125 681.445312 135.808594 680.359375 136.53125 C 679.277344 137.257812 678.160156 137.925781 677.007812 138.542969 C 675.855469 139.15625 674.679688 139.714844 673.472656 140.214844 C 672.269531 140.710938 671.039062 141.152344 669.792969 141.53125 C 668.542969 141.910156 667.277344 142.226562 666 142.480469 C 664.71875 142.734375 663.429688 142.925781 662.132812 143.054688 C 660.832031 143.183594 659.53125 143.246094 658.226562 143.246094 C 656.921875 143.246094 655.621094 143.183594 654.320312 143.054688 C 653.023438 142.925781 651.734375 142.734375 650.453125 142.480469 C 649.175781 142.226562 647.910156 141.910156 646.660156 141.53125 C 645.414062 141.152344 644.1875 140.710938 642.980469 140.214844 C 641.773438 139.714844 640.597656 139.15625 639.445312 138.542969 C 638.296875 137.925781 637.175781 137.257812 636.09375 136.53125 C 635.007812 135.808594 633.960938 135.03125 632.953125 134.203125 C 631.941406 133.375 630.976562 132.5 630.054688 131.578125 C 629.132812 130.65625 628.257812 129.6875 627.429688 128.679688 C 626.601562 127.671875 625.824219 126.625 625.101562 125.539062 C 624.375 124.453125 623.707031 123.335938 623.089844 122.1875 C 622.476562 121.035156 621.917969 119.855469 621.417969 118.652344 C 620.917969 117.445312 620.480469 116.21875 620.101562 114.96875 C 619.722656 113.722656 619.40625 112.457031 619.152344 111.179688 C 618.898438 109.898438 618.707031 108.609375 618.578125 107.308594 C 618.449219 106.011719 618.386719 104.710938 618.386719 103.40625 C 618.386719 102.101562 618.449219 100.796875 618.578125 99.5 C 618.707031 98.203125 618.898438 96.914062 619.152344 95.632812 C 619.40625 94.351562 619.722656 93.089844 620.101562 91.839844 C 620.480469 90.589844 620.917969 89.363281 621.417969 88.160156 C 621.917969 86.953125 622.476562 85.773438 623.089844 84.625 C 623.707031 83.472656 624.375 82.355469 625.101562 81.269531 C 625.824219 80.1875 626.601562 79.140625 627.429688 78.128906 C 628.257812 77.121094 629.132812 76.15625 630.054688 75.234375 C 630.976562 74.3125 631.941406 73.4375 632.953125 72.609375 C 633.960938 71.78125 635.007812 71.003906 636.09375 70.277344 C 637.175781 69.554688 638.296875 68.882812 639.445312 68.269531 C 640.597656 67.652344 641.773438 67.097656 642.980469 66.597656 C 644.1875 66.097656 645.414062 65.660156 646.660156 65.28125 C 647.910156 64.902344 649.175781 64.585938 650.453125 64.328125 C 651.734375 64.074219 653.023438 63.882812 654.320312 63.757812 C 655.621094 63.628906 656.921875 63.5625 658.226562 63.5625 C 659.53125 63.5625 660.832031 63.628906 662.132812 63.757812 C 663.429688 63.882812 664.71875 64.074219 666 64.328125 C 667.277344 64.585938 668.542969 64.902344 669.792969 65.28125 C 671.039062 65.660156 672.269531 66.097656 673.472656 66.597656 C 674.679688 67.097656 675.855469 67.652344 677.007812 68.269531 C 678.160156 68.882812 679.277344 69.554688 680.359375 70.277344 C 681.445312 71.003906 682.492188 71.78125 683.5 72.609375 C 684.511719 73.4375 685.476562 74.3125 686.398438 75.234375 C 687.320312 76.15625 688.195312 77.121094 689.023438 78.128906 C 689.851562 79.140625 690.628906 80.1875 691.351562 81.269531 C 692.078125 82.355469 692.75 83.472656 693.363281 84.625 C 693.976562 85.773438 694.535156 86.953125 695.035156 88.160156 C 695.535156 89.363281 695.972656 90.589844 696.351562 91.839844 C 696.730469 93.089844 697.046875 94.351562 697.300781 95.632812 C 697.554688 96.914062 697.746094 98.203125 697.875 99.5 C 698.003906 100.796875 698.066406 102.101562 698.066406 103.40625 Z M 698.066406 103.40625 " fill-opacity="1" fill-rule="nonzero"/><g clip-path="url(#7ef0d0732e)"><path fill="#f3f3f3" d="M 116.652344 211.84375 C 132.257812 211.84375 144.910156 199.214844 144.945312 183.613281 C 144.945312 183.582031 144.914062 183.550781 144.882812 183.550781 L 88.421875 183.550781 C 88.386719 183.550781 88.359375 183.582031 88.359375 183.613281 C 88.394531 199.214844 101.046875 211.84375 116.652344 211.84375 " fill-opacity="1" fill-rule="nonzero"/></g><g clip-path="url(#31492df7e0)"><path fill="#f3f3f3" d="M 182.785156 147.214844 C 179.691406 143.261719 178.011719 138.390625 178.011719 133.371094 L 178.011719 92.132812 C 177.230469 92.175781 176.445312 92.203125 175.652344 92.203125 C 153.210938 92.203125 135.015625 74.011719 135.015625 51.566406 C 135.015625 43.949219 137.117188 36.824219 140.765625 30.730469 C 136.648438 28.96875 132.300781 27.640625 127.78125 26.808594 C 127.78125 26.808594 127.78125 18.542969 127.78125 18.417969 C 127.78125 12.269531 122.796875 7.285156 116.652344 7.285156 C 110.507812 7.285156 105.519531 12.269531 105.519531 18.417969 C 105.519531 18.542969 105.519531 26.808594 105.519531 26.808594 C 77.199219 32 55.675781 56.636719 55.300781 86.367188 L 55.292969 86.367188 L 55.292969 133.371094 C 55.292969 138.390625 53.609375 143.261719 50.519531 147.214844 L 33.855469 168.488281 C 31.742188 171.570312 33.949219 175.757812 37.683594 175.757812 L 195.617188 175.757812 C 199.355469 175.757812 201.558594 171.570312 199.445312 168.488281 L 182.785156 147.214844 " fill-opacity="1" fill-rule="nonzero"/></g><g clip-path="url(#b32368ba2f)"><path fill="#e9a427" d="M 207.320312 51.566406 C 207.320312 69.058594 193.140625 83.234375 175.652344 83.234375 C 158.164062 83.234375 143.984375 69.058594 143.984375 51.566406 C 143.984375 34.078125 158.164062 19.898438 175.652344 19.898438 C 193.140625 19.898438 207.320312 34.078125 207.320312 51.566406 " fill-opacity="1" fill-rule="nonzero"/></g><path fill="#ffffff" d="M 175.394531 36.070312 L 168.273438 39.878906 L 169.417969 44.402344 L 174.386719 41.71875 L 174.386719 67.066406 L 179.722656 67.066406 L 179.722656 36.070312 L 175.394531 36.070312 " fill-opacity="1" fill-rule="nonzero"/><g clip-path="url(#16319e9dca)"><g clip-path="url(#30bab9acd0)"><g clip-path="url(#412766c71b)"><path fill="#8600dd" d="M 370.628906 353.652344 C 378.0625 353.652344 383.945312 347.765625 383.636719 340.644531 L 383.636719 279.332031 C 383.636719 271.898438 377.753906 266.015625 370.628906 266.324219 L 309.316406 266.324219 C 301.882812 266.324219 296 272.207031 296.308594 279.332031 L 296.308594 340.644531 C 296.308594 348.078125 302.195312 353.960938 309.316406 353.652344 Z M 370.628906 353.652344 " fill-opacity="1" fill-rule="nonzero"/></g></g></g><g clip-path="url(#32103d8b60)"><g clip-path="url(#089d8400cf)"><g clip-path="url(#d9021fd6f4)"><path fill="#8600dd" d="M 482.730469 266.324219 L 421.414062 266.324219 C 413.984375 266.324219 408.101562 272.207031 408.410156 279.332031 L 408.410156 340.644531 C 408.410156 348.078125 414.292969 353.960938 421.414062 353.652344 L 482.730469 353.652344 C 490.160156 353.652344 496.046875 347.765625 495.734375 340.644531 L 495.734375 279.332031 C 496.046875 272.207031 489.851562 266.015625 482.730469 266.324219 Z M 482.730469 266.324219 " fill-opacity="1" fill-rule="nonzero"/></g></g></g><g clip-path="url(#4d6219823a)"><g clip-path="url(#0fc275a544)"><g clip-path="url(#5a45b40ceb)"><path fill="#8600dd" d="M 370.628906 378.425781 L 309.316406 378.425781 C 301.882812 378.425781 296 384.308594 296.308594 391.429688 L 296.308594 452.746094 C 296.308594 460.175781 302.195312 466.0625 309.316406 465.75 L 370.628906 465.75 C 378.0625 465.75 383.945312 459.867188 383.636719 452.746094 L 383.636719 391.429688 C 383.945312 384.308594 377.753906 378.113281 370.628906 378.425781 Z M 370.628906 378.425781 " fill-opacity="1" fill-rule="nonzero"/></g></g></g><g clip-path="url(#a7d71d8da4)"><g clip-path="url(#f916e368f2)"><g clip-path="url(#a1b79035b7)"><path fill="#8600dd" d="M 421.414062 378.425781 C 413.984375 378.425781 408.101562 384.308594 408.410156 391.429688 L 408.410156 452.746094 C 408.410156 460.175781 414.292969 466.0625 421.414062 465.75 L 482.730469 465.75 C 490.160156 465.75 496.046875 459.867188 495.734375 452.746094 L 495.734375 391.429688 C 495.734375 384 489.851562 378.113281 482.730469 378.425781 Z M 421.414062 378.425781 " fill-opacity="1" fill-rule="nonzero"/></g></g></g><g clip-path="url(#0b982ebde6)"><path fill="#8600dd" d="M 486.542969 499.007812 L 486.542969 693.652344 C 486.542969 694.214844 486.515625 694.777344 486.457031 695.335938 C 486.402344 695.898438 486.320312 696.453125 486.210938 697.003906 C 486.101562 697.554688 485.964844 698.101562 485.800781 698.640625 C 485.640625 699.175781 485.449219 699.707031 485.234375 700.226562 C 485.019531 700.746094 484.777344 701.253906 484.515625 701.75 C 484.25 702.246094 483.960938 702.726562 483.648438 703.195312 C 483.335938 703.664062 483 704.113281 482.644531 704.550781 C 482.285156 704.984375 481.910156 705.402344 481.511719 705.796875 C 481.113281 706.195312 480.699219 706.574219 480.261719 706.929688 C 479.828125 707.285156 479.375 707.621094 478.910156 707.933594 C 478.441406 708.246094 477.960938 708.535156 477.464844 708.800781 C 476.96875 709.066406 476.460938 709.304688 475.9375 709.519531 C 475.417969 709.738281 474.890625 709.925781 474.351562 710.089844 C 473.8125 710.253906 473.269531 710.390625 472.71875 710.5 C 472.164062 710.609375 471.609375 710.691406 471.050781 710.746094 C 470.492188 710.800781 469.929688 710.828125 469.367188 710.828125 L 320.519531 710.828125 C 319.957031 710.828125 319.394531 710.800781 318.835938 710.746094 C 318.277344 710.691406 317.71875 710.609375 317.167969 710.5 C 316.617188 710.390625 316.070312 710.253906 315.535156 710.089844 C 314.996094 709.925781 314.464844 709.738281 313.945312 709.519531 C 313.425781 709.304688 312.917969 709.066406 312.421875 708.800781 C 311.925781 708.535156 311.445312 708.246094 310.976562 707.933594 C 310.511719 707.621094 310.058594 707.285156 309.625 706.929688 C 309.1875 706.574219 308.773438 706.195312 308.375 705.796875 C 307.976562 705.402344 307.601562 704.984375 307.242188 704.550781 C 306.886719 704.113281 306.550781 703.664062 306.238281 703.195312 C 305.925781 702.726562 305.636719 702.246094 305.371094 701.75 C 305.109375 701.253906 304.867188 700.746094 304.652344 700.226562 C 304.4375 699.707031 304.246094 699.175781 304.085938 698.640625 C 303.921875 698.101562 303.785156 697.554688 303.675781 697.003906 C 303.566406 696.453125 303.484375 695.898438 303.425781 695.335938 C 303.371094 694.777344 303.34375 694.214844 303.34375 693.652344 L 303.34375 550.53125 C 303.34375 550.15625 303.382812 549.78125 303.453125 549.414062 C 303.527344 549.046875 303.636719 548.6875 303.78125 548.339844 C 303.925781 547.992188 304.101562 547.664062 304.308594 547.351562 C 304.519531 547.039062 304.753906 546.75 305.023438 546.484375 C 305.289062 546.21875 305.578125 545.980469 305.890625 545.769531 C 306.203125 545.5625 306.53125 545.386719 306.878906 545.242188 C 307.226562 545.097656 307.585938 544.988281 307.953125 544.917969 C 308.320312 544.84375 308.695312 544.804688 309.070312 544.804688 C 309.445312 544.804688 309.816406 544.84375 310.1875 544.917969 C 310.554688 544.988281 310.914062 545.097656 311.261719 545.242188 C 311.609375 545.386719 311.9375 545.5625 312.25 545.769531 C 312.5625 545.980469 312.851562 546.21875 313.117188 546.484375 C 313.382812 546.75 313.621094 547.039062 313.828125 547.351562 C 314.039062 547.664062 314.214844 547.992188 314.359375 548.339844 C 314.503906 548.6875 314.609375 549.046875 314.683594 549.414062 C 314.757812 549.78125 314.792969 550.15625 314.792969 550.53125 L 314.792969 693.652344 C 314.792969 694.03125 314.832031 694.402344 314.90625 694.769531 C 314.976562 695.140625 315.085938 695.496094 315.230469 695.84375 C 315.375 696.191406 315.550781 696.523438 315.757812 696.835938 C 315.96875 697.148438 316.207031 697.4375 316.472656 697.703125 C 316.738281 697.96875 317.027344 698.203125 317.339844 698.414062 C 317.652344 698.621094 317.980469 698.800781 318.328125 698.941406 C 318.675781 699.085938 319.035156 699.195312 319.402344 699.269531 C 319.769531 699.34375 320.144531 699.378906 320.519531 699.378906 L 469.367188 699.378906 C 469.742188 699.378906 470.113281 699.34375 470.484375 699.269531 C 470.851562 699.195312 471.210938 699.085938 471.558594 698.941406 C 471.90625 698.800781 472.234375 698.621094 472.546875 698.414062 C 472.859375 698.203125 473.148438 697.96875 473.414062 697.703125 C 473.679688 697.4375 473.917969 697.148438 474.128906 696.835938 C 474.335938 696.523438 474.511719 696.191406 474.65625 695.84375 C 474.800781 695.496094 474.910156 695.140625 474.980469 694.769531 C 475.054688 694.402344 475.09375 694.03125 475.09375 693.652344 L 475.09375 499.007812 C 475.09375 498.632812 475.054688 498.257812 474.980469 497.890625 C 474.910156 497.523438 474.800781 497.164062 474.65625 496.816406 C 474.511719 496.46875 474.335938 496.140625 474.128906 495.828125 C 473.917969 495.515625 473.679688 495.226562 473.414062 494.960938 C 473.148438 494.691406 472.859375 494.457031 472.546875 494.246094 C 472.234375 494.039062 471.90625 493.863281 471.558594 493.71875 C 471.210938 493.574219 470.851562 493.464844 470.484375 493.390625 C 470.113281 493.320312 469.742188 493.28125 469.367188 493.28125 L 320.519531 493.28125 C 320.144531 493.28125 319.769531 493.320312 319.402344 493.390625 C 319.035156 493.464844 318.675781 493.574219 318.328125 493.71875 C 317.980469 493.863281 317.652344 494.039062 317.339844 494.246094 C 317.027344 494.457031 316.738281 494.691406 316.472656 494.960938 C 316.207031 495.226562 315.96875 495.515625 315.757812 495.828125 C 315.550781 496.140625 315.375 496.46875 315.230469 496.816406 C 315.085938 497.164062 314.976562 497.523438 314.90625 497.890625 C 314.832031 498.257812 314.792969 498.632812 314.792969 499.007812 L 314.792969 527.632812 C 314.792969 528.007812 314.757812 528.378906 314.683594 528.75 C 314.609375 529.117188 314.503906 529.476562 314.359375 529.824219 C 314.214844 530.167969 314.039062 530.5 313.828125 530.8125 C 313.621094 531.125 313.382812 531.414062 313.117188 531.679688 C 312.851562 531.945312 312.5625 532.183594 312.25 532.390625 C 311.9375 532.601562 311.609375 532.777344 311.261719 532.921875 C 310.914062 533.066406 310.554688 533.171875 310.1875 533.246094 C 309.816406 533.320312 309.445312 533.355469 309.070312 533.355469 C 308.695312 533.355469 308.320312 533.320312 307.953125 533.246094 C 307.585938 533.171875 307.226562 533.066406 306.878906 532.921875 C 306.53125 532.777344 306.203125 532.601562 305.890625 532.390625 C 305.578125 532.183594 305.289062 531.945312 305.023438 531.679688 C 304.753906 531.414062 304.519531 531.125 304.308594 530.8125 C 304.101562 530.5 303.925781 530.167969 303.78125 529.824219 C 303.636719 529.476562 303.527344 529.117188 303.453125 528.75 C 303.382812 528.378906 303.34375 528.007812 303.34375 527.632812 L 303.34375 499.007812 C 303.34375 498.445312 303.371094 497.882812 303.425781 497.324219 C 303.484375 496.765625 303.566406 496.207031 303.675781 495.65625 C 303.785156 495.105469 303.921875 494.558594 304.085938 494.023438 C 304.246094 493.484375 304.4375 492.953125 304.652344 492.433594 C 304.867188 491.914062 305.109375 491.40625 305.371094 490.910156 C 305.636719 490.414062 305.925781 489.933594 306.238281 489.464844 C 306.550781 488.996094 306.886719 488.546875 307.242188 488.113281 C 307.601562 487.675781 307.976562 487.261719 308.375 486.863281 C 308.773438 486.464844 309.1875 486.085938 309.625 485.730469 C 310.058594 485.375 310.511719 485.039062 310.976562 484.726562 C 311.445312 484.414062 311.925781 484.125 312.421875 483.859375 C 312.917969 483.59375 313.425781 483.355469 313.945312 483.140625 C 314.464844 482.925781 314.996094 482.734375 315.535156 482.570312 C 316.070312 482.410156 316.617188 482.273438 317.167969 482.164062 C 317.71875 482.050781 318.277344 481.96875 318.835938 481.914062 C 319.394531 481.859375 319.957031 481.832031 320.519531 481.832031 L 469.367188 481.832031 C 469.929688 481.832031 470.492188 481.859375 471.050781 481.914062 C 471.609375 481.96875 472.164062 482.050781 472.71875 482.164062 C 473.269531 482.273438 473.8125 482.410156 474.351562 482.570312 C 474.890625 482.734375 475.417969 482.925781 475.9375 483.140625 C 476.460938 483.355469 476.96875 483.59375 477.464844 483.859375 C 477.960938 484.125 478.441406 484.414062 478.910156 484.726562 C 479.375 485.039062 479.828125 485.375 480.261719 485.730469 C 480.699219 486.085938 481.113281 486.464844 481.511719 486.863281 C 481.910156 487.261719 482.285156 487.675781 482.644531 488.113281 C 483 488.546875 483.335938 488.996094 483.648438 489.464844 C 483.960938 489.933594 484.25 490.414062 484.515625 490.910156 C 484.777344 491.40625 485.019531 491.914062 485.234375 492.433594 C 485.449219 492.953125 485.640625 493.484375 485.800781 494.023438 C 485.964844 494.558594 486.101562 495.105469 486.210938 495.65625 C 486.320312 496.207031 486.402344 496.765625 486.457031 497.324219 C 486.515625 497.882812 486.542969 498.445312 486.542969 499.007812 Z M 343.417969 539.082031 L 446.46875 539.082031 C 446.84375 539.082031 447.214844 539.042969 447.585938 538.972656 C 447.953125 538.898438 448.3125 538.789062 448.65625 538.644531 C 449.003906 538.5 449.335938 538.324219 449.648438 538.117188 C 449.960938 537.90625 450.25 537.671875 450.515625 537.40625 C 450.78125 537.140625 451.019531 536.851562 451.226562 536.539062 C 451.4375 536.222656 451.613281 535.894531 451.757812 535.546875 C 451.898438 535.199219 452.007812 534.84375 452.082031 534.472656 C 452.15625 534.105469 452.191406 533.734375 452.191406 533.355469 C 452.191406 532.980469 452.15625 532.609375 452.082031 532.238281 C 452.007812 531.871094 451.898438 531.511719 451.757812 531.164062 C 451.613281 530.820312 451.4375 530.488281 451.226562 530.175781 C 451.019531 529.863281 450.78125 529.574219 450.515625 529.308594 C 450.25 529.042969 449.960938 528.804688 449.648438 528.597656 C 449.335938 528.386719 449.003906 528.210938 448.65625 528.066406 C 448.3125 527.921875 447.953125 527.816406 447.585938 527.742188 C 447.214844 527.667969 446.84375 527.632812 446.46875 527.632812 L 343.417969 527.632812 C 343.042969 527.632812 342.671875 527.667969 342.300781 527.742188 C 341.933594 527.816406 341.574219 527.921875 341.226562 528.066406 C 340.882812 528.210938 340.550781 528.386719 340.238281 528.597656 C 339.925781 528.804688 339.636719 529.042969 339.371094 529.308594 C 339.105469 529.574219 338.867188 529.863281 338.660156 530.175781 C 338.449219 530.488281 338.273438 530.820312 338.128906 531.164062 C 337.984375 531.511719 337.878906 531.871094 337.804688 532.238281 C 337.730469 532.609375 337.695312 532.980469 337.695312 533.355469 C 337.695312 533.734375 337.730469 534.105469 337.804688 534.472656 C 337.878906 534.84375 337.984375 535.199219 338.128906 535.546875 C 338.273438 535.894531 338.449219 536.222656 338.660156 536.539062 C 338.867188 536.851562 339.105469 537.140625 339.371094 537.40625 C 339.636719 537.671875 339.925781 537.90625 340.238281 538.117188 C 340.550781 538.324219 340.882812 538.5 341.226562 538.644531 C 341.574219 538.789062 341.933594 538.898438 342.300781 538.972656 C 342.671875 539.042969 343.042969 539.082031 343.417969 539.082031 Z M 343.417969 579.15625 L 446.46875 579.15625 C 446.84375 579.15625 447.214844 579.117188 447.585938 579.046875 C 447.953125 578.972656 448.3125 578.863281 448.65625 578.71875 C 449.003906 578.574219 449.335938 578.398438 449.648438 578.191406 C 449.960938 577.980469 450.25 577.746094 450.515625 577.480469 C 450.78125 577.214844 451.019531 576.925781 451.226562 576.613281 C 451.4375 576.300781 451.613281 575.96875 451.757812 575.621094 C 451.898438 575.273438 452.007812 574.917969 452.082031 574.546875 C 452.15625 574.179688 452.191406 573.808594 452.191406 573.429688 C 452.191406 573.054688 452.15625 572.683594 452.082031 572.3125 C 452.007812 571.945312 451.898438 571.585938 451.757812 571.238281 C 451.613281 570.894531 451.4375 570.5625 451.226562 570.25 C 451.019531 569.9375 450.78125 569.648438 450.515625 569.382812 C 450.25 569.117188 449.960938 568.878906 449.648438 568.671875 C 449.335938 568.460938 449.003906 568.285156 448.65625 568.140625 C 448.3125 567.996094 447.953125 567.890625 447.585938 567.816406 C 447.214844 567.742188 446.84375 567.707031 446.46875 567.707031 L 343.417969 567.707031 C 343.042969 567.707031 342.671875 567.742188 342.300781 567.816406 C 341.933594 567.890625 341.574219 567.996094 341.226562 568.140625 C 340.882812 568.285156 340.550781 568.460938 340.238281 568.671875 C 339.925781 568.878906 339.636719 569.117188 339.371094 569.382812 C 339.105469 569.648438 338.867188 569.9375 338.660156 570.25 C 338.449219 570.5625 338.273438 570.894531 338.128906 571.238281 C 337.984375 571.585938 337.878906 571.945312 337.804688 572.3125 C 337.730469 572.683594 337.695312 573.054688 337.695312 573.429688 C 337.695312 573.808594 337.730469 574.179688 337.804688 574.546875 C 337.878906 574.917969 337.984375 575.273438 338.128906 575.621094 C 338.273438 575.96875 338.449219 576.300781 338.660156 576.613281 C 338.867188 576.925781 339.105469 577.214844 339.371094 577.480469 C 339.636719 577.746094 339.925781 577.980469 340.238281 578.191406 C 340.550781 578.398438 340.882812 578.574219 341.226562 578.71875 C 341.574219 578.863281 341.933594 578.972656 342.300781 579.046875 C 342.671875 579.117188 343.042969 579.15625 343.417969 579.15625 Z M 343.417969 619.230469 L 446.46875 619.230469 C 446.84375 619.230469 447.214844 619.195312 447.585938 619.121094 C 447.953125 619.046875 448.3125 618.9375 448.65625 618.792969 C 449.003906 618.652344 449.335938 618.472656 449.648438 618.265625 C 449.960938 618.054688 450.25 617.820312 450.515625 617.554688 C 450.78125 617.289062 451.019531 617 451.226562 616.6875 C 451.4375 616.375 451.613281 616.042969 451.757812 615.695312 C 451.898438 615.347656 452.007812 614.992188 452.082031 614.621094 C 452.15625 614.253906 452.191406 613.882812 452.191406 613.503906 C 452.191406 613.128906 452.15625 612.757812 452.082031 612.386719 C 452.007812 612.019531 451.898438 611.660156 451.757812 611.3125 C 451.613281 610.96875 451.4375 610.636719 451.226562 610.324219 C 451.019531 610.011719 450.78125 609.722656 450.515625 609.457031 C 450.25 609.191406 449.960938 608.953125 449.648438 608.746094 C 449.335938 608.535156 449.003906 608.359375 448.65625 608.214844 C 448.3125 608.070312 447.953125 607.964844 447.585938 607.890625 C 447.214844 607.816406 446.84375 607.78125 446.46875 607.78125 L 343.417969 607.78125 C 343.042969 607.78125 342.671875 607.816406 342.300781 607.890625 C 341.933594 607.964844 341.574219 608.070312 341.226562 608.214844 C 340.882812 608.359375 340.550781 608.535156 340.238281 608.746094 C 339.925781 608.953125 339.636719 609.191406 339.371094 609.457031 C 339.105469 609.722656 338.867188 610.011719 338.660156 610.324219 C 338.449219 610.636719 338.273438 610.96875 338.128906 611.3125 C 337.984375 611.660156 337.878906 612.019531 337.804688 612.386719 C 337.730469 612.757812 337.695312 613.128906 337.695312 613.503906 C 337.695312 613.882812 337.730469 614.253906 337.804688 614.621094 C 337.878906 614.992188 337.984375 615.347656 338.128906 615.695312 C 338.273438 616.042969 338.449219 616.375 338.660156 616.6875 C 338.867188 617 339.105469 617.289062 339.371094 617.554688 C 339.636719 617.820312 339.925781 618.054688 340.238281 618.265625 C 340.550781 618.472656 340.882812 618.652344 341.226562 618.792969 C 341.574219 618.9375 341.933594 619.046875 342.300781 619.121094 C 342.671875 619.195312 343.042969 619.230469 343.417969 619.230469 Z M 343.417969 659.304688 L 406.394531 659.304688 C 406.769531 659.304688 407.140625 659.269531 407.511719 659.195312 C 407.878906 659.121094 408.238281 659.011719 408.582031 658.867188 C 408.929688 658.726562 409.261719 658.546875 409.574219 658.339844 C 409.886719 658.128906 410.175781 657.894531 410.441406 657.628906 C 410.707031 657.363281 410.945312 657.074219 411.152344 656.761719 C 411.363281 656.449219 411.539062 656.117188 411.683594 655.769531 C 411.824219 655.421875 411.933594 655.066406 412.007812 654.695312 C 412.082031 654.328125 412.117188 653.957031 412.117188 653.578125 C 412.117188 653.203125 412.082031 652.832031 412.007812 652.460938 C 411.933594 652.09375 411.824219 651.734375 411.683594 651.386719 C 411.539062 651.042969 411.363281 650.710938 411.152344 650.398438 C 410.945312 650.085938 410.707031 649.796875 410.441406 649.53125 C 410.175781 649.265625 409.886719 649.027344 409.574219 648.820312 C 409.261719 648.609375 408.929688 648.433594 408.582031 648.289062 C 408.238281 648.148438 407.878906 648.039062 407.511719 647.964844 C 407.140625 647.890625 406.769531 647.855469 406.394531 647.855469 L 343.417969 647.855469 C 343.042969 647.855469 342.671875 647.890625 342.300781 647.964844 C 341.933594 648.039062 341.574219 648.148438 341.226562 648.289062 C 340.882812 648.433594 340.550781 648.609375 340.238281 648.820312 C 339.925781 649.027344 339.636719 649.265625 339.371094 649.53125 C 339.105469 649.796875 338.867188 650.085938 338.660156 650.398438 C 338.449219 650.710938 338.273438 651.042969 338.128906 651.386719 C 337.984375 651.734375 337.878906 652.09375 337.804688 652.460938 C 337.730469 652.832031 337.695312 653.203125 337.695312 653.578125 C 337.695312 653.957031 337.730469 654.328125 337.804688 654.695312 C 337.878906 655.066406 337.984375 655.421875 338.128906 655.769531 C 338.273438 656.117188 338.449219 656.449219 338.660156 656.761719 C 338.867188 657.074219 339.105469 657.363281 339.371094 657.628906 C 339.636719 657.894531 339.925781 658.128906 340.238281 658.339844 C 340.550781 658.546875 340.882812 658.726562 341.226562 658.867188 C 341.574219 659.011719 341.933594 659.121094 342.300781 659.195312 C 342.671875 659.269531 343.042969 659.304688 343.417969 659.304688 Z M 343.417969 659.304688 " fill-opacity="1" fill-rule="nonzero"/></g><g clip-path="url(#b3fd035895)"><g clip-path="url(#6e858aa93c)"><g clip-path="url(#1de413a856)"><path fill="#8600dd" d="M 485.941406 719.144531 L 485.765625 692.992188 L 485.761719 692.988281 C 485.761719 692.484375 485.511719 691.992188 485.046875 691.71875 C 484.628906 691.476562 484.140625 691.464844 483.730469 691.644531 L 483.726562 691.644531 L 483.710938 691.652344 C 483.632812 691.6875 483.558594 691.730469 483.488281 691.777344 L 461.042969 704.582031 C 460.792969 704.703125 460.574219 704.898438 460.421875 705.15625 C 460.015625 705.851562 460.25 706.742188 460.945312 707.148438 L 483.75 720.5 C 484.445312 720.90625 485.335938 720.671875 485.742188 719.976562 C 485.898438 719.714844 485.960938 719.425781 485.941406 719.144531 Z M 485.941406 719.144531 " fill-opacity="1" fill-rule="nonzero"/></g></g></g><g clip-path="url(#0bcfb36d1b)"><path fill="#8600dd" d="M 486.542969 471.503906 L 486.542969 666.152344 C 486.542969 666.714844 486.515625 667.277344 486.457031 667.835938 C 486.402344 668.394531 486.320312 668.953125 486.210938 669.503906 C 486.101562 670.054688 485.964844 670.597656 485.800781 671.136719 C 485.640625 671.675781 485.449219 672.203125 485.234375 672.726562 C 485.019531 673.246094 484.777344 673.753906 484.515625 674.25 C 484.25 674.746094 483.960938 675.226562 483.648438 675.695312 C 483.335938 676.160156 483 676.613281 482.644531 677.046875 C 482.285156 677.484375 481.910156 677.898438 481.511719 678.296875 C 481.113281 678.695312 480.699219 679.070312 480.261719 679.429688 C 479.828125 679.785156 479.375 680.121094 478.910156 680.433594 C 478.441406 680.746094 477.960938 681.035156 477.464844 681.300781 C 476.96875 681.5625 476.460938 681.804688 475.9375 682.019531 C 475.417969 682.234375 474.890625 682.425781 474.351562 682.585938 C 473.8125 682.75 473.269531 682.886719 472.71875 682.996094 C 472.164062 683.105469 471.609375 683.1875 471.050781 683.246094 C 470.492188 683.300781 469.929688 683.328125 469.367188 683.328125 L 320.519531 683.328125 C 319.957031 683.328125 319.394531 683.300781 318.835938 683.246094 C 318.277344 683.1875 317.71875 683.105469 317.167969 682.996094 C 316.617188 682.886719 316.070312 682.75 315.535156 682.585938 C 314.996094 682.425781 314.464844 682.234375 313.945312 682.019531 C 313.425781 681.804688 312.917969 681.5625 312.421875 681.300781 C 311.925781 681.035156 311.445312 680.746094 310.976562 680.433594 C 310.511719 680.121094 310.058594 679.785156 309.625 679.429688 C 309.1875 679.070312 308.773438 678.695312 308.375 678.296875 C 307.976562 677.898438 307.601562 677.484375 307.242188 677.046875 C 306.886719 676.613281 306.550781 676.160156 306.238281 675.695312 C 305.925781 675.226562 305.636719 674.746094 305.371094 674.25 C 305.109375 673.753906 304.867188 673.246094 304.652344 672.726562 C 304.4375 672.203125 304.246094 671.675781 304.085938 671.136719 C 303.921875 670.597656 303.785156 670.054688 303.675781 669.503906 C 303.566406 668.953125 303.484375 668.394531 303.425781 667.835938 C 303.371094 667.277344 303.34375 666.714844 303.34375 666.152344 L 303.34375 523.03125 C 303.34375 522.652344 303.382812 522.28125 303.453125 521.914062 C 303.527344 521.542969 303.636719 521.1875 303.78125 520.839844 C 303.925781 520.492188 304.101562 520.160156 304.308594 519.847656 C 304.519531 519.535156 304.753906 519.246094 305.023438 518.980469 C 305.289062 518.714844 305.578125 518.476562 305.890625 518.269531 C 306.203125 518.0625 306.53125 517.882812 306.878906 517.742188 C 307.226562 517.597656 307.585938 517.488281 307.953125 517.414062 C 308.320312 517.339844 308.695312 517.304688 309.070312 517.304688 C 309.445312 517.304688 309.816406 517.339844 310.1875 517.414062 C 310.554688 517.488281 310.914062 517.597656 311.261719 517.742188 C 311.609375 517.882812 311.9375 518.0625 312.25 518.269531 C 312.5625 518.476562 312.851562 518.714844 313.117188 518.980469 C 313.382812 519.246094 313.621094 519.535156 313.828125 519.847656 C 314.039062 520.160156 314.214844 520.492188 314.359375 520.839844 C 314.503906 521.1875 314.609375 521.542969 314.683594 521.914062 C 314.757812 522.28125 314.792969 522.652344 314.792969 523.03125 L 314.792969 666.152344 C 314.792969 666.527344 314.832031 666.902344 314.90625 667.269531 C 314.976562 667.636719 315.085938 667.996094 315.230469 668.34375 C 315.375 668.691406 315.550781 669.019531 315.757812 669.332031 C 315.96875 669.644531 316.207031 669.933594 316.472656 670.199219 C 316.738281 670.464844 317.027344 670.703125 317.339844 670.914062 C 317.652344 671.121094 317.980469 671.296875 318.328125 671.441406 C 318.675781 671.585938 319.035156 671.695312 319.402344 671.765625 C 319.769531 671.839844 320.144531 671.878906 320.519531 671.878906 L 469.367188 671.878906 C 469.742188 671.878906 470.113281 671.839844 470.484375 671.765625 C 470.851562 671.695312 471.210938 671.585938 471.558594 671.441406 C 471.90625 671.296875 472.234375 671.121094 472.546875 670.914062 C 472.859375 670.703125 473.148438 670.464844 473.414062 670.199219 C 473.679688 669.933594 473.917969 669.644531 474.128906 669.332031 C 474.335938 669.019531 474.511719 668.691406 474.65625 668.34375 C 474.800781 667.996094 474.910156 667.636719 474.980469 667.269531 C 475.054688 666.902344 475.09375 666.527344 475.09375 666.152344 L 475.09375 471.503906 C 475.09375 471.128906 475.054688 470.757812 474.980469 470.390625 C 474.910156 470.019531 474.800781 469.660156 474.65625 469.316406 C 474.511719 468.96875 474.335938 468.636719 474.128906 468.324219 C 473.917969 468.011719 473.679688 467.722656 473.414062 467.457031 C 473.148438 467.191406 472.859375 466.953125 472.546875 466.746094 C 472.234375 466.535156 471.90625 466.359375 471.558594 466.214844 C 471.210938 466.074219 470.851562 465.964844 470.484375 465.890625 C 470.113281 465.816406 469.742188 465.78125 469.367188 465.78125 L 320.519531 465.78125 C 320.144531 465.78125 319.769531 465.816406 319.402344 465.890625 C 319.035156 465.964844 318.675781 466.074219 318.328125 466.214844 C 317.980469 466.359375 317.652344 466.535156 317.339844 466.746094 C 317.027344 466.953125 316.738281 467.191406 316.472656 467.457031 C 316.207031 467.722656 315.96875 468.011719 315.757812 468.324219 C 315.550781 468.636719 315.375 468.96875 315.230469 469.316406 C 315.085938 469.660156 314.976562 470.019531 314.90625 470.390625 C 314.832031 470.757812 314.792969 471.128906 314.792969 471.503906 L 314.792969 500.128906 C 314.792969 500.507812 314.757812 500.878906 314.683594 501.246094 C 314.609375 501.617188 314.503906 501.972656 314.359375 502.320312 C 314.214844 502.667969 314.039062 503 313.828125 503.3125 C 313.621094 503.625 313.382812 503.914062 313.117188 504.179688 C 312.851562 504.445312 312.5625 504.679688 312.25 504.890625 C 311.9375 505.097656 311.609375 505.273438 311.261719 505.417969 C 310.914062 505.5625 310.554688 505.671875 310.1875 505.746094 C 309.816406 505.816406 309.445312 505.855469 309.070312 505.855469 C 308.695312 505.855469 308.320312 505.816406 307.953125 505.746094 C 307.585938 505.671875 307.226562 505.5625 306.878906 505.417969 C 306.53125 505.273438 306.203125 505.097656 305.890625 504.890625 C 305.578125 504.679688 305.289062 504.445312 305.023438 504.179688 C 304.753906 503.914062 304.519531 503.625 304.308594 503.3125 C 304.101562 503 303.925781 502.667969 303.78125 502.320312 C 303.636719 501.972656 303.527344 501.617188 303.453125 501.246094 C 303.382812 500.878906 303.34375 500.507812 303.34375 500.128906 L 303.34375 471.503906 C 303.34375 470.941406 303.371094 470.382812 303.425781 469.820312 C 303.484375 469.261719 303.566406 468.707031 303.675781 468.15625 C 303.785156 467.601562 303.921875 467.058594 304.085938 466.519531 C 304.246094 465.980469 304.4375 465.453125 304.652344 464.933594 C 304.867188 464.414062 305.109375 463.90625 305.371094 463.410156 C 305.636719 462.914062 305.925781 462.429688 306.238281 461.964844 C 306.550781 461.496094 306.886719 461.042969 307.242188 460.609375 C 307.601562 460.175781 307.976562 459.757812 308.375 459.359375 C 308.773438 458.964844 309.1875 458.585938 309.625 458.230469 C 310.058594 457.871094 310.511719 457.539062 310.976562 457.226562 C 311.445312 456.914062 311.925781 456.625 312.421875 456.359375 C 312.917969 456.09375 313.425781 455.851562 313.945312 455.636719 C 314.464844 455.421875 314.996094 455.234375 315.535156 455.070312 C 316.070312 454.90625 316.617188 454.769531 317.167969 454.660156 C 317.71875 454.550781 318.277344 454.46875 318.835938 454.414062 C 319.394531 454.359375 319.957031 454.332031 320.519531 454.332031 L 469.367188 454.332031 C 469.929688 454.332031 470.492188 454.359375 471.050781 454.414062 C 471.609375 454.46875 472.164062 454.550781 472.71875 454.660156 C 473.269531 454.769531 473.8125 454.90625 474.351562 455.070312 C 474.890625 455.234375 475.417969 455.421875 475.9375 455.636719 C 476.460938 455.851562 476.96875 456.09375 477.464844 456.359375 C 477.960938 456.625 478.441406 456.914062 478.910156 457.226562 C 479.375 457.539062 479.828125 457.871094 480.261719 458.230469 C 480.699219 458.585938 481.113281 458.964844 481.511719 459.359375 C 481.910156 459.757812 482.285156 460.175781 482.644531 460.609375 C 483 461.042969 483.335938 461.496094 483.648438 461.964844 C 483.960938 462.429688 484.25 462.914062 484.515625 463.410156 C 484.777344 463.90625 485.019531 464.414062 485.234375 464.933594 C 485.449219 465.453125 485.640625 465.980469 485.800781 466.519531 C 485.964844 467.058594 486.101562 467.601562 486.210938 468.15625 C 486.320312 468.707031 486.402344 469.261719 486.457031 469.820312 C 486.515625 470.382812 486.542969 470.941406 486.542969 471.503906 Z M 343.417969 511.578125 L 446.46875 511.578125 C 446.84375 511.578125 447.214844 511.542969 447.585938 511.46875 C 447.953125 511.398438 448.3125 511.289062 448.65625 511.144531 C 449.003906 511 449.335938 510.824219 449.648438 510.613281 C 449.960938 510.40625 450.25 510.167969 450.515625 509.902344 C 450.78125 509.636719 451.019531 509.347656 451.226562 509.035156 C 451.4375 508.722656 451.613281 508.394531 451.757812 508.046875 C 451.898438 507.699219 452.007812 507.339844 452.082031 506.972656 C 452.15625 506.601562 452.191406 506.230469 452.191406 505.855469 C 452.191406 505.480469 452.15625 505.105469 452.082031 504.738281 C 452.007812 504.371094 451.898438 504.011719 451.757812 503.664062 C 451.613281 503.316406 451.4375 502.988281 451.226562 502.675781 C 451.019531 502.363281 450.78125 502.074219 450.515625 501.808594 C 450.25 501.542969 449.960938 501.304688 449.648438 501.09375 C 449.335938 500.886719 449.003906 500.710938 448.65625 500.566406 C 448.3125 500.421875 447.953125 500.3125 447.585938 500.238281 C 447.214844 500.167969 446.84375 500.128906 446.46875 500.128906 L 343.417969 500.128906 C 343.042969 500.128906 342.671875 500.167969 342.300781 500.238281 C 341.933594 500.3125 341.574219 500.421875 341.226562 500.566406 C 340.882812 500.710938 340.550781 500.886719 340.238281 501.09375 C 339.925781 501.304688 339.636719 501.542969 339.371094 501.808594 C 339.105469 502.074219 338.867188 502.363281 338.660156 502.675781 C 338.449219 502.988281 338.273438 503.316406 338.128906 503.664062 C 337.984375 504.011719 337.878906 504.371094 337.804688 504.738281 C 337.730469 505.105469 337.695312 505.480469 337.695312 505.855469 C 337.695312 506.230469 337.730469 506.601562 337.804688 506.972656 C 337.878906 507.339844 337.984375 507.699219 338.128906 508.046875 C 338.273438 508.394531 338.449219 508.722656 338.660156 509.035156 C 338.867188 509.347656 339.105469 509.636719 339.371094 509.902344 C 339.636719 510.167969 339.925781 510.40625 340.238281 510.613281 C 340.550781 510.824219 340.882812 511 341.226562 511.144531 C 341.574219 511.289062 341.933594 511.398438 342.300781 511.46875 C 342.671875 511.542969 343.042969 511.578125 343.417969 511.578125 Z M 343.417969 551.652344 L 446.46875 551.652344 C 446.84375 551.652344 447.214844 551.617188 447.585938 551.542969 C 447.953125 551.472656 448.3125 551.363281 448.65625 551.21875 C 449.003906 551.074219 449.335938 550.898438 449.648438 550.6875 C 449.960938 550.480469 450.25 550.242188 450.515625 549.976562 C 450.78125 549.710938 451.019531 549.421875 451.226562 549.109375 C 451.4375 548.796875 451.613281 548.46875 451.757812 548.121094 C 451.898438 547.773438 452.007812 547.414062 452.082031 547.046875 C 452.15625 546.675781 452.191406 546.304688 452.191406 545.929688 C 452.191406 545.554688 452.15625 545.179688 452.082031 544.8125 C 452.007812 544.445312 451.898438 544.085938 451.757812 543.738281 C 451.613281 543.390625 451.4375 543.0625 451.226562 542.75 C 451.019531 542.4375 450.78125 542.148438 450.515625 541.882812 C 450.25 541.617188 449.960938 541.378906 449.648438 541.167969 C 449.335938 540.960938 449.003906 540.785156 448.65625 540.640625 C 448.3125 540.496094 447.953125 540.386719 447.585938 540.3125 C 447.214844 540.242188 446.84375 540.203125 446.46875 540.203125 L 343.417969 540.203125 C 343.042969 540.203125 342.671875 540.242188 342.300781 540.3125 C 341.933594 540.386719 341.574219 540.496094 341.226562 540.640625 C 340.882812 540.785156 340.550781 540.960938 340.238281 541.167969 C 339.925781 541.378906 339.636719 541.617188 339.371094 541.882812 C 339.105469 542.148438 338.867188 542.4375 338.660156 542.75 C 338.449219 543.0625 338.273438 543.390625 338.128906 543.738281 C 337.984375 544.085938 337.878906 544.445312 337.804688 544.8125 C 337.730469 545.179688 337.695312 545.554688 337.695312 545.929688 C 337.695312 546.304688 337.730469 546.675781 337.804688 547.046875 C 337.878906 547.414062 337.984375 547.773438 338.128906 548.121094 C 338.273438 548.46875 338.449219 548.796875 338.660156 549.109375 C 338.867188 549.421875 339.105469 549.710938 339.371094 549.976562 C 339.636719 550.242188 339.925781 550.480469 340.238281 550.6875 C 340.550781 550.898438 340.882812 551.074219 341.226562 551.21875 C 341.574219 551.363281 341.933594 551.472656 342.300781 551.542969 C 342.671875 551.617188 343.042969 551.652344 343.417969 551.652344 Z M 343.417969 591.730469 L 446.46875 591.730469 C 446.84375 591.730469 447.214844 591.691406 447.585938 591.617188 C 447.953125 591.546875 448.3125 591.4375 448.65625 591.292969 C 449.003906 591.148438 449.335938 590.972656 449.648438 590.765625 C 449.960938 590.554688 450.25 590.316406 450.515625 590.050781 C 450.78125 589.785156 451.019531 589.496094 451.226562 589.183594 C 451.4375 588.871094 451.613281 588.542969 451.757812 588.195312 C 451.898438 587.847656 452.007812 587.488281 452.082031 587.121094 C 452.15625 586.75 452.191406 586.378906 452.191406 586.003906 C 452.191406 585.628906 452.15625 585.253906 452.082031 584.886719 C 452.007812 584.519531 451.898438 584.160156 451.757812 583.8125 C 451.613281 583.464844 451.4375 583.136719 451.226562 582.824219 C 451.019531 582.511719 450.78125 582.222656 450.515625 581.957031 C 450.25 581.691406 449.960938 581.453125 449.648438 581.242188 C 449.335938 581.035156 449.003906 580.859375 448.65625 580.714844 C 448.3125 580.570312 447.953125 580.460938 447.585938 580.390625 C 447.214844 580.316406 446.84375 580.277344 446.46875 580.277344 L 343.417969 580.277344 C 343.042969 580.277344 342.671875 580.316406 342.300781 580.390625 C 341.933594 580.460938 341.574219 580.570312 341.226562 580.714844 C 340.882812 580.859375 340.550781 581.035156 340.238281 581.242188 C 339.925781 581.453125 339.636719 581.691406 339.371094 581.957031 C 339.105469 582.222656 338.867188 582.511719 338.660156 582.824219 C 338.449219 583.136719 338.273438 583.464844 338.128906 583.8125 C 337.984375 584.160156 337.878906 584.519531 337.804688 584.886719 C 337.730469 585.253906 337.695312 585.628906 337.695312 586.003906 C 337.695312 586.378906 337.730469 586.75 337.804688 587.121094 C 337.878906 587.488281 337.984375 587.847656 338.128906 588.195312 C 338.273438 588.542969 338.449219 588.871094 338.660156 589.183594 C 338.867188 589.496094 339.105469 589.785156 339.371094 590.050781 C 339.636719 590.316406 339.925781 590.554688 340.238281 590.765625 C 340.550781 590.972656 340.882812 591.148438 341.226562 591.292969 C 341.574219 591.4375 341.933594 591.546875 342.300781 591.617188 C 342.671875 591.691406 343.042969 591.730469 343.417969 591.730469 Z M 343.417969 631.804688 L 406.394531 631.804688 C 406.769531 631.804688 407.140625 631.765625 407.511719 631.691406 C 407.878906 631.621094 408.238281 631.511719 408.582031 631.367188 C 408.929688 631.222656 409.261719 631.046875 409.574219 630.839844 C 409.886719 630.628906 410.175781 630.390625 410.441406 630.125 C 410.707031 629.859375 410.945312 629.570312 411.152344 629.257812 C 411.363281 628.945312 411.539062 628.617188 411.683594 628.269531 C 411.824219 627.921875 411.933594 627.5625 412.007812 627.195312 C 412.082031 626.824219 412.117188 626.453125 412.117188 626.078125 C 412.117188 625.703125 412.082031 625.328125 412.007812 624.960938 C 411.933594 624.59375 411.824219 624.234375 411.683594 623.886719 C 411.539062 623.539062 411.363281 623.210938 411.152344 622.898438 C 410.945312 622.585938 410.707031 622.296875 410.441406 622.03125 C 410.175781 621.765625 409.886719 621.527344 409.574219 621.316406 C 409.261719 621.109375 408.929688 620.933594 408.582031 620.789062 C 408.238281 620.644531 407.878906 620.535156 407.511719 620.464844 C 407.140625 620.390625 406.769531 620.351562 406.394531 620.351562 L 343.417969 620.351562 C 343.042969 620.351562 342.671875 620.390625 342.300781 620.464844 C 341.933594 620.535156 341.574219 620.644531 341.226562 620.789062 C 340.882812 620.933594 340.550781 621.109375 340.238281 621.316406 C 339.925781 621.527344 339.636719 621.765625 339.371094 622.03125 C 339.105469 622.296875 338.867188 622.585938 338.660156 622.898438 C 338.449219 623.210938 338.273438 623.539062 338.128906 623.886719 C 337.984375 624.234375 337.878906 624.59375 337.804688 624.960938 C 337.730469 625.328125 337.695312 625.703125 337.695312 626.078125 C 337.695312 626.453125 337.730469 626.824219 337.804688 627.195312 C 337.878906 627.5625 337.984375 627.921875 338.128906 628.269531 C 338.273438 628.617188 338.449219 628.945312 338.660156 629.257812 C 338.867188 629.570312 339.105469 629.859375 339.371094 630.125 C 339.636719 630.390625 339.925781 630.628906 340.238281 630.839844 C 340.550781 631.046875 340.882812 631.222656 341.226562 631.367188 C 341.574219 631.511719 341.933594 631.621094 342.300781 631.691406 C 342.671875 631.765625 343.042969 631.804688 343.417969 631.804688 Z M 343.417969 631.804688 " fill-opacity="1" fill-rule="nonzero"/></g><g clip-path="url(#69f172d978)"><path fill="#f3f3f3" d="M 644.703125 477.734375 C 582.546875 477.734375 532.160156 528.128906 532.160156 590.28125 C 532.160156 652.441406 582.546875 702.828125 644.703125 702.828125 C 706.859375 702.828125 757.246094 652.441406 757.246094 590.28125 C 757.246094 528.128906 706.859375 477.734375 644.703125 477.734375 Z M 644.703125 685.230469 C 592.351562 685.230469 549.761719 642.632812 549.761719 590.28125 C 549.761719 537.925781 592.351562 495.328125 644.703125 495.328125 C 697.054688 495.328125 739.644531 537.925781 739.644531 590.28125 C 739.644531 642.632812 697.054688 685.230469 644.703125 685.230469 Z M 644.703125 685.230469 " fill-opacity="1" fill-rule="nonzero"/></g><path fill="#f3f3f3" d="M 651.53125 524.308594 C 640.222656 522.257812 628.871094 525.351562 620.234375 532.597656 C 611.589844 539.855469 606.632812 550.5 606.632812 561.777344 C 606.632812 567.050781 610.910156 571.320312 616.1875 571.320312 C 621.464844 571.320312 625.746094 567.050781 625.746094 561.777344 C 625.746094 556.144531 628.210938 550.867188 632.523438 547.246094 C 636.890625 543.558594 642.46875 542.144531 648.226562 543.136719 C 655.679688 544.445312 662.046875 550.789062 663.351562 558.246094 C 665.253906 569.074219 658.34375 577.285156 650.5625 579.820312 C 641.34375 582.808594 635.144531 591.523438 635.144531 601.492188 L 635.144531 613.652344 C 635.144531 618.929688 639.421875 623.199219 644.703125 623.199219 C 649.984375 623.199219 654.257812 618.929688 654.257812 613.652344 L 654.257812 601.492188 C 654.257812 599.863281 655.171875 598.398438 656.453125 598 C 674.695312 592.089844 685.511719 573.980469 682.175781 554.941406 C 679.476562 539.59375 666.867188 526.980469 651.53125 524.308594 Z M 651.53125 524.308594 " fill-opacity="1" fill-rule="nonzero"/><path fill="#f3f3f3" d="M 644.765625 632.664062 C 638.089844 632.664062 632.671875 638.097656 632.671875 644.761719 C 632.671875 651.464844 638.089844 656.871094 644.765625 656.871094 C 651.453125 656.871094 656.875 651.464844 656.875 644.761719 C 656.875 638.097656 651.453125 632.664062 644.765625 632.664062 Z M 644.765625 632.664062 " fill-opacity="1" fill-rule="nonzero"/><g clip-path="url(#a2f5fbc5d3)"><path fill="#e9a427" d="M 729.980469 361.769531 C 729.980469 344.085938 724.800781 327.589844 715.859375 313.703125 L 715.460938 315.601562 L 711.585938 334.078125 L 696.59375 330.953125 C 701.65625 340.089844 704.542969 350.574219 704.542969 361.769531 C 704.542969 384.515625 692.597656 404.417969 674.675781 415.691406 L 670.917969 399.90625 L 658.179688 420.636719 L 656.953125 422.652344 L 648.289062 436.738281 L 662.808594 445.679688 L 665.300781 447.222656 L 685.082031 459.40625 L 681.203125 443.144531 L 680.808594 441.445312 C 709.925781 426.648438 729.980469 396.582031 729.980469 361.769531 Z M 729.980469 361.769531 " fill-opacity="1" fill-rule="nonzero"/></g><g clip-path="url(#7c6c1d5d0d)"><path fill="#e9a427" d="M 699.757812 292.261719 L 699.679688 292.300781 L 697.9375 293.449219 C 682.46875 280.511719 662.570312 272.679688 640.890625 272.679688 C 597.214844 272.679688 560.78125 304.328125 553.265625 345.867188 L 567.109375 334.75 L 577.671875 347.882812 L 578.542969 348.953125 C 584.476562 319.953125 610.152344 298.117188 640.890625 298.117188 C 653.589844 298.117188 665.417969 301.835938 675.347656 308.242188 L 662.964844 316.355469 L 688.523438 321.695312 L 690.222656 322.050781 L 705.214844 325.175781 L 709.09375 306.699219 L 709.488281 304.84375 L 714.078125 282.964844 Z M 699.757812 292.261719 " fill-opacity="1" fill-rule="nonzero"/></g><g clip-path="url(#dc965df09b)"><path fill="#e9a427" d="M 652.640625 448.210938 L 638.121094 439.269531 L 646.785156 425.183594 C 644.847656 425.382812 642.867188 425.460938 640.890625 425.460938 C 611.496094 425.460938 586.773438 405.523438 579.453125 378.425781 L 592.902344 379.886719 L 577.277344 360.425781 L 576.40625 359.355469 L 565.882812 346.222656 L 552.039062 357.339844 L 551.007812 358.167969 L 532.179688 373.242188 L 549.425781 375.101562 L 550.613281 375.21875 L 552.949219 375.457031 C 559.554688 418.066406 596.464844 450.820312 640.929688 450.820312 C 645.757812 450.820312 650.542969 450.425781 655.171875 449.671875 Z M 652.640625 448.210938 " fill-opacity="1" fill-rule="nonzero"/></g><g fill="#e9a427" fill-opacity="1"><g transform="translate(606.828381, 396.239965)"><g><path d="M 2.390625 -43.28125 L 9.375 -43.28125 L 9.375 -74.4375 L 32.734375 -74.4375 C 44.890625 -74.4375 54.328125 -71.226562 61.046875 -64.8125 C 67.765625 -58.394531 71.125 -49.429688 71.125 -37.921875 C 71.125 -25.671875 67.632812 -16.285156 60.65625 -9.765625 C 53.6875 -3.253906 43.613281 0 30.4375 0 L 9.375 0 L 9.375 -30.34375 L 2.390625 -30.34375 Z M 54.734375 -37.515625 C 54.734375 -45.390625 52.96875 -51.351562 49.4375 -55.40625 C 45.90625 -59.46875 40.578125 -61.5 33.453125 -61.5 L 25.15625 -61.5 L 25.15625 -43.28125 L 37.21875 -43.28125 L 37.21875 -30.34375 L 25.15625 -30.34375 L 25.15625 -13.03125 L 31.8125 -13.03125 C 47.09375 -13.03125 54.734375 -21.191406 54.734375 -37.515625 Z M 54.734375 -37.515625 "/></g></g></g><path fill="#e9a427" d="M 60.804688 718.183594 L 49.128906 718.160156 L 49.128906 706.820312 L 78.027344 706.820312 L 78.027344 707.121094 C 78.019531 707.332031 77.359375 708.84375 75.523438 712.804688 L 73.027344 718.199219 L 72.753906 718.199219 C 72.601562 718.199219 67.222656 718.191406 60.804688 718.183594 Z M 60.804688 718.183594 " fill-opacity="1" fill-rule="nonzero"/><path fill="#e9a427" d="M 189.316406 712.804688 C 187.238281 708.292969 186.851562 707.410156 186.875 707.160156 L 186.898438 706.859375 L 201.335938 706.835938 L 215.761719 706.820312 L 215.761719 718.160156 L 203.777344 718.160156 L 191.78125 718.152344 Z M 189.316406 712.804688 " fill-opacity="1" fill-rule="nonzero"/><path fill="#e9a427" d="M 34.386719 701.710938 C 33.503906 701.363281 32.730469 700.617188 32.425781 699.804688 L 32.234375 699.300781 L 32.234375 499.667969 L 32.542969 499.101562 C 33.015625 498.21875 33.738281 497.628906 34.675781 497.394531 C 35.09375 497.28125 44.757812 497.265625 132.445312 497.265625 C 213.351562 497.265625 229.804688 497.28125 230.132812 497.378906 C 231.457031 497.722656 232.449219 498.84375 232.613281 500.148438 C 232.71875 500.921875 232.710938 698.355469 232.613281 699.046875 C 232.457031 700.121094 231.726562 701.105469 230.726562 701.578125 L 230.210938 701.820312 L 132.484375 701.835938 C 37.882812 701.851562 34.746094 701.84375 34.386719 701.710938 Z M 208.886719 679.480469 C 209.691406 679.054688 210.15625 678.488281 210.375 677.667969 C 210.46875 677.3125 210.484375 665.941406 210.484375 599.632812 C 210.484375 540.628906 210.460938 521.910156 210.390625 521.5625 C 210.273438 520.949219 209.785156 520.222656 209.265625 519.890625 C 209.035156 519.742188 208.652344 519.585938 208.320312 519.515625 C 207.824219 519.402344 200.128906 519.394531 132.128906 519.410156 L 56.492188 519.433594 L 55.960938 519.6875 C 55.363281 519.972656 54.890625 520.417969 54.625 520.957031 L 54.441406 521.324219 L 54.363281 537.941406 L 50.230469 537.980469 C 47.371094 538.011719 45.945312 538.058594 45.621094 538.121094 C 41.875 538.910156 39.457031 541.636719 38.96875 545.621094 C 38.835938 546.730469 38.992188 547.957031 39.433594 549.265625 C 40.394531 552.109375 42.511719 554 45.464844 554.652344 C 45.914062 554.753906 46.804688 554.785156 50.214844 554.808594 L 54.402344 554.847656 L 54.402344 591.136719 L 50.679688 591.136719 C 46.75 591.136719 46.070312 591.175781 44.90625 591.492188 C 44.015625 591.734375 43.433594 591.988281 42.71875 592.453125 C 40.574219 593.839844 39.316406 595.988281 38.96875 598.847656 C 38.761719 600.539062 39.347656 602.863281 40.371094 604.398438 C 41.519531 606.132812 43.238281 607.304688 45.355469 607.800781 C 45.859375 607.917969 46.527344 607.941406 50.152344 607.980469 L 54.363281 608.027344 L 54.363281 644.253906 L 50.347656 644.300781 C 46.582031 644.339844 46.285156 644.347656 45.519531 644.515625 C 43.300781 644.996094 41.675781 646.058594 40.464844 647.804688 C 39.363281 649.40625 38.761719 651.671875 38.96875 653.5 C 39.332031 656.769531 41.195312 659.40625 43.914062 660.515625 C 45.378906 661.105469 46.542969 661.226562 51.152344 661.226562 L 54.402344 661.226562 L 54.417969 669.515625 L 54.441406 677.800781 L 54.632812 678.195312 C 54.976562 678.894531 55.695312 679.472656 56.425781 679.644531 C 56.601562 679.683594 88.597656 679.707031 132.601562 679.707031 L 208.476562 679.691406 Z M 208.886719 679.480469 " fill-opacity="1" fill-rule="nonzero"/><path fill="#e9a427" d="M 59.285156 668.003906 L 59.285156 661.242188 L 63.285156 661.203125 C 67.59375 661.152344 67.957031 661.128906 69.199219 660.699219 C 71.734375 659.832031 73.523438 657.933594 74.320312 655.261719 C 74.738281 653.855469 74.816406 652.726562 74.601562 651.382812 C 74.105469 648.355469 72.128906 645.84375 69.5 644.90625 C 68.035156 644.378906 67.757812 644.355469 63.339844 644.300781 L 59.324219 644.253906 L 59.324219 608.03125 L 63.5 607.980469 C 67.972656 607.933594 68.183594 607.910156 69.289062 607.492188 C 70.59375 606.996094 71.445312 606.453125 72.320312 605.539062 C 73.578125 604.226562 74.265625 602.824219 74.601562 600.871094 C 75.121094 597.839844 73.753906 594.429688 71.296875 592.671875 C 70.414062 592.042969 69.523438 591.65625 68.222656 591.359375 C 67.5625 591.199219 67.238281 591.183594 63.40625 591.160156 L 59.285156 591.128906 L 59.285156 554.847656 L 63.445312 554.808594 C 68.011719 554.777344 68.066406 554.769531 69.453125 554.25 C 70.578125 553.832031 71.289062 553.375 72.128906 552.550781 C 73.335938 551.351562 73.972656 550.242188 74.429688 548.535156 C 74.640625 547.722656 74.664062 547.503906 74.671875 546.445312 C 74.671875 545.730469 74.632812 545.085938 74.570312 544.792969 C 73.878906 541.667969 72.097656 539.492188 69.4375 538.523438 C 68.105469 538.035156 67.429688 537.980469 63.136719 537.980469 L 59.285156 537.980469 L 59.300781 531.191406 L 59.324219 524.398438 L 132.429688 524.375 L 205.523438 524.359375 L 205.523438 674.769531 L 59.285156 674.769531 Z M 135.242188 638.066406 C 142.738281 637.410156 149.566406 634.765625 155.359375 630.261719 C 164.164062 623.425781 169.480469 613.320312 170.078125 602.273438 C 170.222656 599.585938 169.921875 596.019531 169.300781 592.988281 C 167.070312 582.261719 160.085938 572.84375 150.421875 567.535156 C 142.878906 563.394531 134.191406 561.953125 125.867188 563.464844 C 117.269531 565.023438 109.496094 569.511719 103.714844 576.246094 C 100.636719 579.828125 98.148438 584.230469 96.652344 588.734375 C 94.367188 595.585938 94.101562 602.570312 95.867188 609.527344 C 96.535156 612.171875 97.425781 614.613281 98.574219 616.9375 C 99.488281 618.792969 99.828125 619.386719 100.992188 621.140625 C 104.742188 626.796875 109.695312 631.191406 115.71875 634.199219 C 119.339844 636.007812 122.8125 637.121094 126.8125 637.75 C 127.894531 637.914062 130.003906 638.136719 131.066406 638.183594 C 131.941406 638.222656 134.199219 638.160156 135.242188 638.066406 Z M 135.242188 638.066406 " fill-opacity="1" fill-rule="nonzero"/><path fill="#e9a427" d="M 130.277344 633.191406 C 127.601562 633.03125 125.261719 632.628906 122.914062 631.921875 C 113.617188 629.117188 106.039062 622.355469 102.257812 613.496094 C 101.292969 611.234375 100.628906 608.996094 100.15625 606.4375 C 99.613281 603.5 99.503906 599.28125 99.890625 596.175781 C 100.851562 588.398438 104.8125 581.042969 110.867188 575.765625 C 114.960938 572.199219 120.269531 569.566406 125.53125 568.496094 C 128.113281 567.96875 130.214844 567.789062 133.175781 567.851562 C 136.160156 567.914062 138.183594 568.175781 140.707031 568.820312 C 144.320312 569.75 148.109375 571.472656 151.078125 573.542969 C 158.847656 578.960938 163.875 587.308594 164.921875 596.53125 C 165.691406 603.273438 164.644531 609.46875 161.769531 615.195312 C 159.613281 619.503906 156.613281 623.1875 152.832031 626.210938 C 151.078125 627.605469 149.667969 628.511719 147.523438 629.613281 C 143.808594 631.527344 140.027344 632.664062 135.972656 633.0625 C 134.523438 633.214844 131.703125 633.277344 130.277344 633.191406 Z M 133.066406 623.605469 C 133.949219 623.324219 134.515625 622.519531 134.832031 621.09375 C 134.996094 620.363281 135.003906 620.140625 134.988281 617.503906 L 134.980469 614.691406 L 135.265625 614.636719 C 136.445312 614.421875 138.390625 613.660156 139.625 612.925781 C 140.761719 612.242188 140.578125 612.171875 142.59375 614.203125 C 144.492188 616.125 145.414062 616.90625 146.34375 617.367188 C 146.878906 617.644531 147.019531 617.683594 147.3125 617.644531 C 148.359375 617.503906 149.398438 616.496094 149.511719 615.511719 C 149.628906 614.472656 148.3125 612.667969 145.5625 610.125 C 144.148438 608.808594 144.15625 608.839844 144.667969 608.011719 C 145.445312 606.738281 146.34375 604.546875 146.507812 603.515625 L 146.558594 603.203125 L 147.675781 603.148438 C 148.28125 603.117188 149.863281 603.066406 151.1875 603.027344 C 153.25 602.980469 153.644531 602.949219 153.976562 602.824219 C 154.480469 602.628906 155.078125 602.082031 155.34375 601.578125 C 155.527344 601.234375 155.558594 601.082031 155.558594 600.507812 C 155.558594 599.957031 155.527344 599.777344 155.375 599.5 C 155.09375 598.972656 154.613281 598.5 154.15625 598.304688 C 153.714844 598.105469 153.09375 598.066406 148.476562 597.925781 L 146.597656 597.871094 L 146.375 597.019531 C 146.011719 595.625 145.25 593.894531 144.5625 592.894531 C 144.125 592.261719 144.15625 592.207031 145.722656 590.742188 C 148.933594 587.742188 149.949219 586.136719 149.367188 584.941406 C 149.003906 584.183594 147.988281 583.417969 147.351562 583.417969 C 146.949219 583.417969 146.15625 583.75 145.515625 584.183594 C 144.644531 584.773438 143.644531 585.6875 142.210938 587.214844 C 141.226562 588.261719 140.871094 588.585938 140.707031 588.601562 C 140.546875 588.617188 140.289062 588.507812 139.824219 588.230469 C 138.539062 587.453125 137.105469 586.871094 135.664062 586.53125 L 135.074219 586.390625 L 134.972656 582.996094 C 134.863281 579.269531 134.832031 578.996094 134.382812 578.371094 C 133.5 577.167969 131.742188 577.042969 130.671875 578.105469 C 130.042969 578.734375 129.949219 579.183594 129.894531 581.804688 C 129.871094 582.890625 129.820312 584.363281 129.796875 585.089844 L 129.742188 586.398438 L 129.476562 586.453125 C 128.253906 586.679688 126.339844 587.429688 125.144531 588.152344 C 124.734375 588.398438 124.402344 588.539062 124.253906 588.539062 C 123.996094 588.539062 124.042969 588.585938 120.066406 584.78125 C 118.890625 583.65625 118.457031 583.394531 117.757812 583.386719 C 116.742188 583.378906 115.640625 584.300781 115.308594 585.453125 C 115.199219 585.820312 115.199219 585.902344 115.316406 586.308594 C 115.386719 586.5625 115.519531 586.871094 115.617188 587.003906 C 115.796875 587.261719 117.796875 589.390625 119.433594 591.058594 C 120.246094 591.894531 120.476562 592.175781 120.476562 592.34375 C 120.476562 592.453125 120.332031 592.777344 120.152344 593.042969 C 119.472656 594.089844 118.78125 595.695312 118.433594 597.058594 L 118.207031 597.949219 L 115.261719 597.949219 C 112.324219 597.949219 112.324219 597.949219 111.566406 598.160156 C 110.324219 598.5 109.71875 598.910156 109.394531 599.617188 C 108.898438 600.691406 109.339844 601.894531 110.449219 602.492188 C 111.410156 603.019531 113.230469 603.21875 115.984375 603.109375 C 116.875 603.066406 117.742188 603.035156 117.914062 603.035156 L 118.238281 603.027344 L 118.339844 603.523438 C 118.59375 604.777344 119.363281 606.707031 120.066406 607.855469 C 120.617188 608.746094 120.640625 608.691406 118.960938 610.453125 C 118.167969 611.28125 117.113281 612.382812 116.609375 612.910156 C 115.503906 614.070312 115.316406 614.414062 115.324219 615.195312 C 115.324219 615.574219 115.378906 615.855469 115.488281 616.101562 C 116 617.226562 117.277344 617.890625 118.285156 617.558594 C 118.859375 617.367188 119.027344 617.242188 120.199219 616.109375 C 120.765625 615.558594 121.835938 614.550781 122.585938 613.863281 C 123.324219 613.171875 123.941406 612.582031 123.941406 612.542969 C 123.941406 612.511719 124.058594 612.480469 124.199219 612.480469 C 124.378906 612.480469 124.726562 612.636719 125.308594 612.984375 C 125.773438 613.257812 126.507812 613.636719 126.941406 613.808594 C 127.6875 614.125 129.492188 614.683594 129.742188 614.683594 C 129.855469 614.683594 129.863281 614.910156 129.8125 616.871094 C 129.742188 619.960938 129.886719 621.25 130.40625 622.378906 C 130.917969 623.464844 131.980469 623.960938 133.066406 623.605469 Z M 133.066406 623.605469 " fill-opacity="1" fill-rule="nonzero"/><path fill="#e9a427" d="M 131.34375 609.988281 C 129.796875 609.808594 129.019531 609.605469 127.972656 609.132812 C 127.277344 608.808594 126.214844 608.078125 126.027344 607.777344 C 125.949219 607.660156 125.59375 607.28125 125.246094 606.925781 C 124.726562 606.414062 124.53125 606.148438 124.199219 605.507812 C 123.324219 603.800781 123.050781 602.609375 123.042969 600.546875 C 123.042969 599.050781 123.152344 598.226562 123.484375 597.199219 C 123.890625 595.925781 124.710938 594.492188 125.292969 594.027344 C 125.46875 593.886719 125.734375 593.617188 125.882812 593.429688 C 126.398438 592.75 127.78125 591.902344 129.019531 591.5 C 130.027344 591.175781 130.910156 591.058594 132.40625 591.058594 C 133.886719 591.058594 134.863281 591.183594 135.816406 591.5 C 137.042969 591.910156 138.476562 592.785156 138.933594 593.414062 C 139.082031 593.609375 139.351562 593.894531 139.53125 594.042969 C 140.105469 594.5 141.011719 596.089844 141.34375 597.199219 C 141.660156 598.28125 141.761719 599.089844 141.769531 600.46875 C 141.769531 602.382812 141.53125 603.539062 140.832031 605.058594 C 140.46875 605.847656 140.027344 606.476562 139.265625 607.304688 C 138.027344 608.644531 136.414062 609.5 134.53125 609.832031 C 133.832031 609.957031 131.878906 610.054688 131.34375 609.988281 Z M 131.34375 609.988281 " fill-opacity="1" fill-rule="nonzero"/><path fill="#e9a427" d="M 46.277344 656.183594 C 45.371094 656.027344 44.402344 655.230469 44.078125 654.375 C 43.742188 653.484375 43.703125 652.292969 43.984375 651.421875 C 44.332031 650.332031 45.140625 649.609375 46.269531 649.371094 C 47.070312 649.199219 66.625 649.199219 67.429688 649.371094 C 68.414062 649.578125 69.167969 650.207031 69.617188 651.191406 C 69.785156 651.539062 69.800781 651.695312 69.800781 652.757812 C 69.800781 653.933594 69.800781 653.941406 69.539062 654.46875 C 69.082031 655.414062 68.269531 656.019531 67.269531 656.183594 C 66.710938 656.28125 46.828125 656.28125 46.277344 656.183594 Z M 46.277344 656.183594 " fill-opacity="1" fill-rule="nonzero"/><path fill="#e9a427" d="M 45.710938 602.832031 C 44.332031 602.265625 43.605469 600.769531 43.835938 598.972656 C 43.976562 597.886719 44.464844 597.074219 45.277344 596.578125 C 46.070312 596.082031 45.644531 596.097656 56.820312 596.097656 C 63.972656 596.097656 67.121094 596.121094 67.414062 596.183594 C 67.996094 596.3125 68.695312 596.695312 69.019531 597.074219 C 69.175781 597.257812 69.414062 597.625 69.546875 597.910156 C 69.792969 598.40625 69.800781 598.4375 69.800781 599.523438 C 69.800781 600.5 69.777344 600.683594 69.609375 601.128906 C 69.367188 601.777344 68.742188 602.453125 68.128906 602.761719 L 67.671875 602.988281 L 56.921875 603.003906 L 46.175781 603.027344 Z M 45.710938 602.832031 " fill-opacity="1" fill-rule="nonzero"/><path fill="#e9a427" d="M 46.09375 549.800781 C 45.308594 549.605469 44.511719 548.933594 44.15625 548.179688 C 43.703125 547.203125 43.683594 545.660156 44.117188 544.707031 C 44.503906 543.871094 45.316406 543.210938 46.214844 543.019531 C 46.535156 542.957031 49.371094 542.941406 57.082031 542.957031 L 67.515625 542.980469 L 67.957031 543.164062 C 68.78125 543.492188 69.453125 544.265625 69.71875 545.179688 C 69.824219 545.527344 69.847656 545.863281 69.824219 546.597656 C 69.800781 547.46875 69.773438 547.589844 69.546875 548.078125 C 69.214844 548.777344 68.75 549.265625 68.113281 549.582031 L 67.59375 549.832031 L 56.960938 549.847656 C 51.121094 549.847656 46.230469 549.832031 46.09375 549.800781 Z M 46.09375 549.800781 " fill-opacity="1" fill-rule="nonzero"/><g clip-path="url(#92b63b2ae3)"><path stroke-linecap="butt" transform="matrix(0.07875, 0, 0, 0.07875, 6.365892, 481.83242)" fill="none" stroke-linejoin="miter" d="M 0.0164472 1599.995141 L 0.0164472 -0.00493853 L 3200.016606 -0.00493853 L 3200.016606 3199.99522 L 0.0164472 3199.99522 Z M 875.512522 2929.310683 C 892.824031 2891.711474 907.01054 2860.808695 907.01054 2860.511076 C 907.01054 2860.213457 825.810139 2860.015044 726.504578 2860.015044 L 545.998617 2860.015044 L 545.998617 2998.011083 L 694.312116 2998.209496 C 775.810136 2998.407908 842.824029 2998.308702 843.220854 2998.011083 C 843.617679 2997.713464 858.101807 2966.810684 875.512522 2929.310683 Z M 2656.018563 2929.013064 L 2656.018563 2860.015044 L 2476.10784 2860.015044 C 2355.324103 2860.015044 2295.899497 2860.312663 2295.502672 2861.007108 C 2295.105846 2861.602346 2308.994736 2892.604332 2326.207038 2930.005127 L 2357.506643 2997.911876 L 2506.812206 2998.011083 L 2656.018563 2998.011083 Z M 2845.998731 2787.395993 C 2858.697144 2781.394009 2868.022541 2768.894008 2870.006669 2755.302737 C 2871.197145 2746.522975 2871.296351 245.381978 2870.006669 235.610152 C 2867.923335 218.993088 2855.324128 204.80658 2838.508651 200.391897 C 2834.292381 199.201421 2625.909434 199.003008 1601.00859 199.003008 C 490.195043 199.003008 367.824005 199.201421 362.516465 200.590309 C 350.611703 203.616103 341.385512 211.106183 335.383527 222.316501 L 331.514479 229.508962 L 331.514479 2758.477341 L 333.895432 2764.876151 C 337.814083 2775.193611 347.585909 2784.717421 358.796227 2789.082501 C 363.409322 2790.818612 403.091864 2790.917819 1601.504622 2790.719406 L 2839.500715 2790.520993 Z M 2845.998731 2787.395993 " stroke="#f3f3f3" stroke-width="1" stroke-opacity="1" stroke-miterlimit="4"/></g><path stroke-linecap="butt" transform="matrix(0.07875, 0, 0, 0.07875, 6.365892, 481.83242)" fill="none" stroke-linejoin="miter" d="M 632.704971 2514.876138 C 623.379573 2512.693598 614.302192 2505.401931 609.887509 2496.522963 L 607.506557 2491.513042 L 607.208938 2386.304703 L 607.010525 2280.997158 L 565.691078 2280.997158 C 507.208933 2280.997158 492.377583 2279.509063 473.776391 2272.018983 C 456.712898 2264.975332 439.897421 2251.086443 429.083929 2235.015013 C 403.885515 2197.415805 404.28234 2141.810644 429.976786 2104.608261 C 445.403374 2082.386038 466.087899 2068.893973 494.2129 2062.792783 C 503.88552 2060.709449 507.704964 2060.610243 555.522427 2060.114211 L 606.514493 2059.518973 L 606.514493 1605.501093 L 552.992665 1604.905855 C 507.01052 1604.409823 498.478773 1604.112204 492.079964 1602.624109 C 452.695041 1593.397918 425.115675 1566.314583 414.500595 1526.681645 C 404.778372 1490.719342 412.615674 1450.689578 434.689088 1423.110211 C 447.982739 1406.393941 465.195042 1395.183623 486.375598 1389.479257 C 501.206948 1385.511003 509.788298 1385.014971 559.689094 1385.014971 L 607.010525 1385.014971 L 607.010525 930.203441 L 553.786316 929.707409 C 510.482742 929.40979 499.222821 929.012965 493.518456 927.723282 C 450.710914 918.199472 421.792262 888.18955 412.615674 843.497087 C 403.984721 802.177641 419.808135 755.699464 450.413295 732.088352 C 462.615676 722.713351 478.984725 715.322478 495.502583 711.800652 C 499.619646 711.007001 517.724806 710.411763 553.984729 710.014938 L 606.514493 709.518906 L 606.712906 605.997076 C 606.812112 533.576437 607.208938 501.284769 608.002588 498.506991 C 609.58989 493.001038 615.294255 484.717308 619.808145 481.592308 C 621.792272 480.203419 625.810129 478.120085 628.4887 476.780799 L 633.498621 474.499053 L 1596.990733 474.201434 C 2463.211013 474.003021 2561.177288 474.102228 2567.476892 475.491117 C 2571.693162 476.383974 2576.603876 478.417704 2579.480861 480.302625 C 2586.078083 484.518895 2592.27848 493.695483 2593.816179 501.483182 C 2594.709036 505.897864 2595.006655 744.290733 2595.006655 1495.878072 C 2595.006655 2340.520971 2594.808242 2485.312645 2593.617766 2489.776931 C 2590.790385 2500.193598 2584.887607 2507.386059 2574.718956 2512.792805 L 2569.510622 2515.52098 L 1602.992717 2515.719392 C 1042.476816 2515.719392 634.88751 2515.421773 632.704971 2514.876138 Z M 2526.008636 1494.985215 L 2526.008636 543.001041 L 1600.810177 543.199453 L 675.512512 543.497072 L 675.214893 626.780807 L 675.016481 710.014938 L 723.87561 710.014938 C 767.923231 710.014938 774.024422 710.213351 784.29228 711.999065 C 828.885536 719.588351 858.399426 749.003035 869.113712 796.522879 C 870.00657 800.391926 870.502601 808.824467 870.403395 820.481213 C 870.403395 837.29669 870.204982 839.280817 867.278395 849.995104 C 861.524426 871.820501 853.389505 885.907804 838.111727 900.98717 C 827.39744 911.503043 818.419265 917.306615 804.083947 922.614155 C 786.524423 929.211377 785.780375 929.310584 727.794261 929.707409 L 675.016481 930.203441 L 675.016481 1384.915765 L 727.298229 1385.31259 C 776.008549 1385.610209 780.07601 1385.808622 788.50855 1387.792749 C 810.780376 1393.001083 825.611726 1400.887988 839.699028 1414.97529 C 871.89149 1447.316562 880.423237 1501.880056 859.986728 1545.679662 C 854.679188 1557.088392 849.818077 1564.08244 840.492679 1573.90387 C 829.381568 1585.511013 818.617678 1592.405855 802.000614 1598.705458 C 788.012518 1604.012998 785.284343 1604.310617 728.488705 1604.905855 L 675.512512 1605.501093 L 675.512512 2059.518973 L 726.504578 2060.114211 C 782.605772 2060.808655 786.077994 2061.106275 804.679185 2067.802703 C 855.820061 2086.007069 883.101808 2147.316596 865.889506 2205.30271 C 855.820061 2239.18168 833.101806 2263.288824 800.909344 2274.30073 C 785.08593 2279.806682 780.522438 2280.104301 725.810134 2280.699539 L 675.016481 2281.195571 L 675.016481 2447.018992 L 2526.008636 2447.018992 Z M 770.40339 2211.007076 C 783.101803 2208.923742 793.419264 2201.185647 799.222836 2189.181678 C 802.397439 2182.782868 802.496646 2181.989217 802.496646 2170.48128 C 802.496646 2160.114216 802.199027 2157.782867 800.214899 2153.6162 C 794.510534 2141.116199 784.887518 2133.080484 772.387517 2130.501119 C 762.218866 2128.318579 519.907346 2128.318579 509.689091 2130.501119 C 492.278376 2134.221358 480.919249 2147.21739 478.587899 2166.016994 C 477.893455 2172.018978 479.282344 2181.09636 481.911312 2187.991201 C 485.978773 2198.9039 498.280361 2209.022949 509.788298 2211.007076 C 516.782346 2212.197552 763.310136 2212.197552 770.40339 2211.007076 Z M 781.316089 1532.584423 C 789.103788 1528.715375 796.990693 1520.084422 800.115693 1511.899898 C 802.09982 1506.493152 802.496646 1503.715374 802.496646 1494.489183 C 802.496646 1484.122119 802.298233 1483.080452 799.322042 1476.979262 C 797.585931 1473.407833 794.60974 1468.695531 792.57601 1466.413785 C 788.50855 1461.602277 779.579978 1456.691562 772.189104 1455.10426 C 768.518469 1454.31061 729.282356 1454.012991 640.691082 1454.012991 C 533.597823 1454.012991 513.607742 1454.31061 508.300202 1455.501086 C 482.804169 1461.50307 470.998613 1490.620135 483.796233 1515.917756 C 488.111709 1524.598312 493.816075 1529.905851 502.595837 1533.47728 L 508.498615 1536.007042 L 641.980765 1535.709423 L 775.512517 1535.51101 Z M 781.117676 857.286771 C 789.202994 853.318516 795.105772 847.118119 799.322042 838.189547 C 803.290296 829.707404 804.183154 816.711372 801.504582 807.485181 C 798.081963 795.778831 789.59982 786.007005 779.083946 781.790735 L 773.478787 779.508989 L 644.014495 779.21137 C 548.280363 779.012957 513.111711 779.21137 508.994647 780.005021 C 483.994646 785.312561 471.197026 814.479229 482.903376 839.47923 C 487.417265 849.102246 497.48671 857.58439 507.506552 860.114152 C 509.19306 860.510977 569.907348 860.70939 642.476796 860.70939 L 774.520454 860.510977 Z M 781.117676 857.286771 " stroke="#f3f3f3" stroke-width="1" stroke-opacity="1" stroke-miterlimit="4"/><path stroke-linecap="butt" transform="matrix(0.07875, 0, 0, 0.07875, 6.365892, 481.83242)" fill="none" stroke-linejoin="miter" d="M 1580.522478 1988.388017 C 1482.308187 1983.824525 1389.203024 1950.49119 1311.623655 1892.10825 C 1266.58397 1858.278884 1229.877619 1819.290786 1198.578014 1772.018959 C 1183.796268 1749.697529 1179.480791 1742.207449 1167.923251 1718.596337 C 1141.187139 1664.380064 1124.718884 1603.814585 1120.006582 1542.009027 C 1118.41928 1520.97728 1118.716899 1481.889976 1120.502614 1462.495134 C 1135.681186 1302.723301 1228.687143 1162.1975 1370.800245 1084.320512 C 1421.792311 1056.294717 1481.613743 1036.999081 1539.996682 1029.608208 C 1582.407398 1024.201461 1637.020496 1025.193525 1676.901451 1031.98916 C 1734.490739 1041.810589 1783.99471 1058.824479 1832.308205 1085.312575 C 1945.998686 1147.713372 2030.820119 1255.005044 2064.996708 1379.905844 C 2081.514566 1439.876085 2086.524487 1506.393946 2078.885598 1566.016964 C 2062.714962 1694.191574 1997.58599 1808.080468 1895.00662 1887.792774 C 1827.794315 1939.975316 1746.097883 1973.903889 1662.516529 1984.518969 C 1636.722877 1987.693573 1602.000653 1989.380081 1580.522478 1988.388017 Z M 1642.37764 1917.505077 C 1693.816134 1912.39595 1742.080025 1898.011028 1789.500663 1873.606265 C 1816.683204 1859.618169 1834.589951 1848.110232 1856.91138 1830.401898 C 1920.800272 1779.409832 1967.377656 1712.594353 1993.320117 1635.014984 C 2017.476864 1562.594345 2019.90742 1481.294738 2000.115752 1403.814575 C 1974.024481 1301.483221 1905.324081 1209.320518 1814.103839 1154.310595 C 1789.798282 1139.677658 1753.38955 1123.01099 1727.397485 1114.677656 C 1703.091928 1106.889958 1673.776451 1100.491148 1647.685179 1097.415751 C 1629.778433 1095.282814 1588.409383 1094.489163 1570.40343 1095.878052 C 1503.786363 1101.284798 1444.312154 1120.183609 1388.310167 1153.61615 C 1280.076034 1218.298693 1206.018491 1331.294731 1190.591903 1455.005054 C 1185.879601 1492.604262 1187.218887 1542.901884 1194.014522 1579.310616 C 1201.703015 1621.175697 1213.210952 1655.501096 1232.208968 1693.397923 C 1293.320083 1815.520945 1416.980803 1901.979283 1552.000651 1917.009045 C 1579.679224 1920.084442 1613.508591 1920.282855 1642.37764 1917.505077 Z M 1642.37764 1917.505077 " stroke="#f3f3f3" stroke-width="1" stroke-opacity="1" stroke-miterlimit="4"/><path stroke-linecap="butt" transform="matrix(0.07875, 0, 0, 0.07875, 6.365892, 481.83242)" fill="none" stroke-linejoin="miter" d="M 1588.905415 1803.41777 C 1582.308192 1801.384039 1575.611763 1795.084436 1572.089938 1787.693563 C 1565.393509 1773.308641 1563.607794 1756.096339 1564.599858 1717.306654 C 1565.195096 1693.100304 1565.09589 1689.975304 1563.707001 1689.975304 C 1560.482794 1689.975304 1537.61573 1682.882049 1528.09192 1678.913795 C 1522.585967 1676.681652 1513.310173 1671.919747 1507.308188 1668.397922 C 1501.40541 1664.77689 1496.395489 1662.296731 1496.197077 1662.792763 C 1496.09787 1663.288795 1488.210965 1670.778874 1478.687155 1679.60824 C 1469.212948 1688.288796 1455.720884 1701.086415 1448.47882 1708.080463 C 1441.385566 1714.975305 1434.193105 1721.522924 1432.506597 1722.713401 C 1423.379613 1728.913798 1409.193104 1729.608242 1398.478818 1724.399909 C 1382.10977 1716.314591 1375.016515 1695.084431 1383.101833 1678.318557 C 1384.292309 1675.689589 1390.492706 1668.199509 1396.891516 1661.50308 C 1403.290326 1654.806651 1416.683184 1640.818555 1426.802232 1630.302682 C 1436.822074 1619.786808 1445.006598 1610.90784 1445.006598 1610.610221 C 1445.006598 1610.312601 1443.121677 1606.989189 1440.790328 1603.318553 C 1432.010566 1588.884029 1423.280406 1567.405853 1419.411359 1550.49117 C 1418.419295 1546.076487 1417.576041 1542.405852 1417.476835 1542.306646 C 1417.476835 1542.207439 1406.911358 1542.505058 1394.014532 1543.00109 C 1355.324054 1544.588392 1331.415323 1542.108233 1318.716909 1535.213391 C 1312.119687 1531.592359 1305.621671 1524.201486 1303.885559 1518.298708 C 1301.603813 1510.411803 1302.199051 1499.499104 1305.175242 1492.901881 C 1309.391512 1483.67569 1316.980798 1478.616166 1332.903418 1474.201484 C 1342.476831 1471.522912 1342.576037 1471.522912 1379.77842 1471.522912 L 1417.179216 1471.522912 L 1420.105803 1460.213388 C 1421.693105 1453.913784 1424.222867 1445.778863 1425.611756 1442.207434 C 1429.480804 1432.187593 1438.508582 1414.181639 1442.37763 1408.477274 L 1445.800249 1403.516956 L 1432.70501 1389.975289 C 1411.078025 1367.802669 1386.623659 1341.711398 1384.292309 1338.487191 C 1383.101833 1336.800683 1381.415325 1332.782826 1380.522468 1329.608222 C 1376.008579 1314.181634 1384.193103 1297.812586 1400.512548 1289.082427 C 1404.877628 1286.800681 1406.712945 1286.503062 1414.500644 1286.503062 C 1426.703026 1286.602268 1430.52247 1288.685601 1446.792312 1304.310602 C 1453.885567 1311.007031 1468.022472 1324.499095 1478.29033 1334.320524 L 1496.891521 1352.078462 L 1505.224855 1347.118144 C 1520.502634 1337.891953 1544.80819 1328.417746 1560.284382 1325.491159 L 1563.707001 1324.796714 L 1564.401445 1308.17965 C 1564.699064 1299.003062 1565.294302 1280.302664 1565.591921 1266.512981 C 1565.889541 1252.822504 1566.583985 1238.983218 1567.179223 1236.007027 C 1570.006604 1220.878058 1581.117716 1211.304645 1596.891526 1210.312582 C 1611.177241 1209.320518 1621.693115 1213.487185 1628.587956 1222.911789 C 1634.292322 1230.798694 1634.689147 1234.320519 1636.078036 1281.592347 L 1637.417322 1324.697508 L 1644.907402 1326.483222 C 1662.814148 1330.699492 1682.308197 1338.586398 1697.486769 1347.911795 C 1701.306214 1350.193541 1704.67923 1352.177668 1704.976849 1352.276874 C 1705.423278 1352.376081 1713.012564 1344.687588 1721.990739 1335.213382 C 1755.42328 1299.697507 1773.478837 1286.999093 1790.294314 1286.999093 C 1804.282409 1287.0983 1818.320109 1298.903856 1820.99868 1312.891952 C 1822.189156 1319.191555 1820.403442 1328.219334 1816.583997 1335.80862 C 1810.3836 1348.110208 1793.915345 1366.512986 1766.087963 1392.207432 L 1754.778439 1402.822512 L 1757.804233 1407.187591 C 1766.583995 1419.985211 1776.207011 1441.909815 1780.919313 1459.717356 L 1783.697091 1470.481245 L 1807.605822 1471.17569 C 1866.187174 1473.011007 1874.123683 1473.507039 1879.679239 1475.987198 C 1892.824081 1481.592357 1900.710986 1497.911802 1897.982811 1513.189581 C 1896.395509 1521.622121 1893.1217 1527.921724 1887.218922 1533.080455 C 1878.687175 1540.81855 1876.703048 1541.116169 1841.980824 1542.009027 C 1825.21495 1542.505058 1805.07606 1543.100297 1797.387568 1543.497122 L 1783.201059 1544.191566 L 1782.605821 1548.209424 C 1780.522488 1561.304663 1769.113757 1589.082442 1759.193122 1605.104268 L 1755.076058 1611.800697 L 1770.601852 1626.086412 C 1798.181219 1651.681651 1814.401458 1671.1757 1819.212966 1684.717367 C 1821.593918 1691.810621 1821.395506 1702.524908 1818.617728 1708.278876 C 1813.210981 1719.389988 1801.802251 1726.979274 1789.500663 1727.822528 C 1782.90344 1728.219353 1782.109789 1728.020941 1774.520503 1724.10229 C 1762.714947 1718.100305 1751.008597 1708.278876 1726.802247 1683.82451 L 1704.976849 1661.800699 L 1695.403436 1667.604271 C 1679.480816 1676.979271 1654.87764 1686.701494 1639.897481 1689.380066 L 1636.276449 1690.024907 L 1636.375655 1725.788798 C 1636.524465 1759.122133 1636.375655 1762.19753 1634.292322 1771.423721 C 1629.083988 1794.886023 1618.716924 1805.104278 1600.115733 1804.905865 C 1596.494701 1804.905865 1591.385574 1804.211421 1588.905415 1803.41777 Z M 1624.520496 1622.415777 C 1648.181211 1618.298713 1668.915339 1607.286808 1684.589943 1590.322521 C 1697.685182 1575.987203 1704.381611 1564.776885 1710.383595 1546.820535 C 1718.220897 1523.705454 1718.41931 1493.1995 1710.978833 1468.001086 C 1706.812167 1453.913784 1695.304229 1433.675688 1688.012562 1427.921719 C 1685.681213 1425.987196 1682.308197 1422.415767 1680.423276 1419.886005 C 1674.619705 1411.899893 1656.415339 1400.788782 1640.790338 1395.580448 C 1624.12367 1390.124099 1596.296288 1388.288781 1577.397478 1391.512987 C 1554.679223 1395.382035 1530.076047 1407.683623 1520.701046 1420.084417 C 1518.816125 1422.514973 1515.393506 1425.887989 1513.210966 1427.723307 C 1508.201046 1431.691561 1501.107791 1442.306641 1496.09787 1453.21934 C 1487.615727 1471.622118 1484.589933 1485.907833 1484.68914 1507.485215 C 1484.68914 1530.50109 1488.706997 1546.820535 1499.322077 1567.50506 C 1503.488744 1575.590378 1506.018506 1579.012997 1512.615728 1585.511013 C 1516.980808 1589.975299 1521.494697 1594.786807 1522.486761 1596.324506 C 1524.917316 1600.094347 1538.40938 1609.419744 1547.189143 1613.487205 C 1560.482794 1619.489189 1570.601842 1622.118158 1589.996685 1624.399904 C 1596.097875 1625.094348 1615.095892 1624.003078 1624.520496 1622.415777 Z M 1624.520496 1622.415777 " stroke="#f3f3f3" stroke-width="1" stroke-opacity="1" stroke-miterlimit="4"/><g clip-path="url(#4db99e92db)"><path stroke-linecap="butt" transform="matrix(0.0888281, 0, 0, 0.0888281, 9.845193, 211.948853)" fill="none" stroke-linejoin="miter" d="M -0.0162502 1600.004189 L -0.0162502 0.00412073 L 3199.983887 0.00412073 L 3199.983887 3200.004257 L -0.0162502 3200.004257 Z M -0.0162502 1600.004189 " stroke="#ffffff" stroke-width="1" stroke-opacity="1" stroke-miterlimit="4"/></g><path fill="#e9a427" d="M 78.652344 475.136719 C 77.851562 474.949219 77.105469 474.214844 76.882812 473.398438 C 76.804688 473.113281 75.5 466.644531 73.980469 459.023438 C 72.46875 451.402344 71.128906 444.792969 71.003906 444.332031 C 70.726562 443.320312 70.140625 442.148438 69.414062 441.195312 C 68.757812 440.335938 40.632812 413.046875 39.84375 412.503906 C 39.148438 412.035156 38.375 411.679688 37.515625 411.4375 C 36.839844 411.253906 36.582031 411.242188 31.964844 411.191406 L 27.121094 411.128906 L 26.339844 410.898438 C 25.453125 410.640625 24.492188 410.203125 23.753906 409.734375 C 23.125 409.332031 21.953125 408.207031 21.429688 407.511719 C 20.921875 406.835938 20.300781 405.558594 20.070312 404.695312 C 19.972656 404.332031 18.496094 396.863281 16.808594 388.09375 C 13.867188 372.878906 13.726562 372.105469 13.726562 371.128906 C 13.726562 370.480469 13.78125 369.886719 13.878906 369.496094 C 14.597656 366.484375 16.96875 364.191406 19.925781 363.621094 C 20.273438 363.550781 21.410156 363.417969 22.457031 363.3125 C 25.957031 362.964844 26.988281 362.636719 30.027344 360.90625 C 33.136719 359.128906 33.917969 358.238281 35.285156 354.988281 C 36.21875 352.785156 38.136719 349.109375 39.789062 346.371094 C 43.003906 341.070312 46.65625 336.167969 51.371094 330.84375 C 53.15625 328.828125 58.382812 323.597656 59.972656 322.230469 C 60.59375 321.695312 61.097656 321.214844 61.097656 321.164062 C 61.097656 321.109375 58.59375 315.832031 55.539062 309.4375 C 48.644531 295.003906 49.195312 296.203125 49.195312 295.617188 C 49.195312 294.996094 49.507812 294.328125 49.960938 293.953125 C 50.679688 293.359375 53.78125 292.558594 56.96875 292.152344 C 58.78125 291.910156 62.636719 291.824219 64.527344 291.972656 C 71.136719 292.488281 77.53125 294.078125 84.90625 297.027344 C 88.449219 298.449219 92.6875 300.464844 95.652344 302.152344 C 96.550781 302.667969 97.332031 303.085938 97.386719 303.085938 C 97.4375 303.085938 98.238281 302.800781 99.160156 302.464844 C 103.382812 300.890625 107.433594 299.746094 112.128906 298.796875 C 117.816406 297.640625 122.808594 297.019531 129.851562 296.585938 C 132.355469 296.433594 142.953125 296.433594 145.484375 296.585938 C 155.320312 297.179688 163.472656 298.175781 171.421875 299.753906 C 175.652344 300.589844 176.042969 300.6875 179.90625 301.976562 C 196.945312 307.632812 211.335938 316.304688 222.855469 327.871094 C 231.550781 336.59375 238.613281 347.199219 242.914062 357.957031 C 243.605469 359.6875 244.554688 362.441406 244.847656 363.578125 C 244.9375 363.898438 245.042969 364.199219 245.097656 364.253906 C 245.214844 364.378906 247.265625 364.929688 248.527344 365.167969 C 250.898438 365.628906 253.605469 365.753906 255.542969 365.488281 C 260.6875 364.785156 264.042969 361.535156 265.058594 356.277344 C 265.714844 352.832031 264.167969 349.882812 261.09375 348.71875 C 259.578125 348.140625 257.828125 347.898438 256.867188 348.121094 C 254.734375 348.628906 253.367188 350.902344 254.203125 352.535156 C 254.441406 353.007812 254.949219 353.453125 255.710938 353.851562 C 256.414062 354.226562 256.761719 354.582031 257.125 355.316406 C 257.339844 355.753906 257.363281 355.902344 257.363281 356.738281 C 257.363281 357.609375 257.347656 357.707031 257.097656 358.152344 C 256.761719 358.765625 256.183594 359.351562 255.597656 359.652344 C 255.179688 359.875 255.0625 359.890625 254.121094 359.890625 C 253.332031 359.882812 252.941406 359.839844 252.398438 359.6875 C 250.144531 359.039062 248.652344 357.964844 247.914062 356.445312 C 247.441406 355.503906 247.28125 354.863281 247.21875 353.71875 C 247.167969 352.652344 247.355469 351.0625 247.648438 350.15625 C 247.914062 349.3125 248.714844 347.714844 249.203125 347.054688 C 251.183594 344.363281 254.023438 342.570312 257.1875 342.027344 C 258.351562 341.832031 260.5625 341.894531 261.789062 342.160156 C 264.542969 342.757812 266.914062 344.019531 268.734375 345.855469 C 272.296875 349.472656 273.550781 354.847656 272.058594 360.160156 C 270.644531 365.152344 267.152344 368.890625 262.011719 370.898438 C 259.808594 371.769531 257.445312 372.285156 254.441406 372.558594 C 252.578125 372.726562 247.761719 372.585938 246.6875 372.328125 L 246.484375 372.285156 L 246.484375 373.945312 C 246.472656 382.417969 245.132812 391.167969 242.691406 398.621094 C 239.15625 409.421875 233.542969 418.707031 225.742188 426.636719 C 222.101562 430.339844 218.519531 433.335938 214.726562 435.859375 C 213.324219 436.789062 211.113281 438.132812 210.402344 438.46875 C 209.992188 438.664062 209.984375 438.683594 209.839844 439.304688 C 209.769531 439.652344 207.976562 447.519531 205.851562 456.785156 C 201.605469 475.386719 201.925781 474.1875 201.054688 474.765625 C 200.824219 474.925781 200.488281 475.09375 200.308594 475.148438 C 199.839844 475.269531 166.46875 475.269531 166.121094 475.136719 C 165.695312 474.976562 165.402344 474.621094 165.292969 474.132812 C 165.230469 473.886719 164.558594 470.457031 163.792969 466.503906 C 163.019531 462.558594 162.371094 459.316406 162.355469 459.289062 C 162.328125 459.273438 161.875 459.371094 161.339844 459.523438 C 156.191406 460.898438 148.800781 461.671875 141.976562 461.519531 C 139.5625 461.476562 135.625 461.28125 134.382812 461.15625 C 134.117188 461.128906 133.191406 461.050781 132.339844 460.96875 C 128.441406 460.632812 122.445312 459.769531 118.480469 458.972656 C 117.476562 458.777344 116.625 458.605469 116.582031 458.597656 C 116.535156 458.589844 116.414062 459.265625 116.296875 460.089844 C 115.835938 463.5 115.300781 466.476562 114.742188 468.699219 C 113.933594 471.921875 112.804688 474.375 111.828125 475.03125 L 111.527344 475.234375 L 95.261719 475.226562 C 85.738281 475.21875 78.855469 475.183594 78.652344 475.136719 Z M 66.96875 358.570312 C 68.460938 358.25 69.917969 357.34375 70.871094 356.152344 C 71.917969 354.835938 72.398438 353.496094 72.398438 351.898438 C 72.40625 349.792969 71.632812 348.023438 70.125 346.648438 C 69.394531 345.972656 68.746094 345.589844 67.832031 345.269531 C 65.113281 344.339844 62.421875 344.976562 60.476562 347.019531 C 59.445312 348.105469 58.894531 349.195312 58.636719 350.671875 C 58.515625 351.382812 58.503906 351.648438 58.59375 352.414062 C 58.929688 355.441406 60.964844 357.832031 63.808594 358.523438 C 64.582031 358.71875 66.164062 358.738281 66.96875 358.570312 Z M 174.292969 317.164062 C 176.042969 316.339844 176.433594 314.066406 175.082031 312.652344 C 174.628906 312.183594 174.496094 312.121094 172.265625 311.375 C 165.585938 309.125 157.796875 307.4375 151.039062 306.78125 C 147.351562 306.417969 146.222656 306.355469 141.960938 306.3125 C 137.542969 306.257812 135.28125 306.328125 131.9375 306.605469 C 125.257812 307.15625 117.808594 308.515625 112.265625 310.203125 C 111.25 310.503906 110.664062 310.921875 110.300781 311.578125 C 109.226562 313.488281 110.585938 315.84375 112.753906 315.824219 C 113.207031 315.824219 113.667969 315.734375 114.441406 315.496094 C 119.164062 314.066406 126.796875 312.761719 133.183594 312.289062 C 137.960938 311.933594 142.046875 311.90625 146.90625 312.199219 C 155.035156 312.6875 163.019531 314.234375 170.394531 316.730469 C 172.507812 317.441406 172.648438 317.484375 173.21875 317.441406 C 173.601562 317.414062 173.980469 317.316406 174.292969 317.164062 Z M 174.292969 317.164062 " fill-opacity="1" fill-rule="nonzero"/><path fill="#e9a427" d="M 143.441406 283.714844 C 142.144531 283.5625 140.714844 283.277344 139.597656 282.976562 C 135.171875 281.75 130.945312 279.113281 127.898438 275.675781 C 124.558594 271.917969 122.585938 267.636719 121.839844 262.535156 C 121.652344 261.273438 121.679688 256.941406 121.882812 255.652344 C 122.675781 250.527344 124.957031 245.953125 128.5625 242.25 C 131.839844 238.882812 135.546875 236.722656 140.113281 235.53125 C 141.835938 235.078125 143.476562 234.859375 145.539062 234.804688 C 149.785156 234.6875 153.558594 235.542969 157.398438 237.496094 C 162.796875 240.242188 167.152344 245.1875 169.230469 250.945312 C 170.261719 253.796875 170.660156 256.222656 170.660156 259.515625 C 170.660156 261.078125 170.613281 261.738281 170.457031 262.792969 C 169.859375 266.808594 168.304688 270.59375 165.976562 273.773438 C 162.035156 279.136719 156.429688 282.53125 149.75 283.589844 C 148.65625 283.765625 144.515625 283.847656 143.441406 283.714844 Z M 147.421875 271.515625 C 149.261719 271.214844 151.214844 270.476562 152.503906 269.597656 C 153.988281 268.59375 155.238281 267.039062 155.949219 265.316406 C 156.679688 263.574219 156.996094 261.523438 156.917969 259.222656 C 156.792969 255.964844 155.933594 253.652344 154.101562 251.707031 C 152.183594 249.664062 149.519531 248.597656 145.734375 248.367188 C 143.664062 248.242188 137.730469 248.253906 137.597656 248.386719 C 137.519531 248.464844 137.492188 249.683594 137.492188 253.316406 L 137.492188 258.140625 L 135.359375 258.140625 L 135.359375 262.226562 L 137.492188 262.226562 L 137.492188 271.738281 L 142.003906 271.703125 C 145.714844 271.675781 146.667969 271.640625 147.421875 271.515625 Z M 147.421875 271.515625 " fill-opacity="1" fill-rule="nonzero"/><path fill="#e9a427" d="M 142.464844 264.945312 L 142.464844 262.226562 L 146.285156 262.226562 L 146.285156 258.140625 L 142.464844 258.140625 L 142.464844 252.347656 L 144.492188 252.390625 C 146.152344 252.429688 146.632812 252.472656 147.21875 252.625 C 149.367188 253.191406 150.753906 254.550781 151.382812 256.726562 C 151.847656 258.34375 151.90625 260.894531 151.527344 262.625 C 151.054688 264.722656 149.75 266.363281 147.980469 267.066406 C 146.988281 267.464844 146.355469 267.5625 144.359375 267.617188 L 142.464844 267.660156 Z M 142.464844 264.945312 " fill-opacity="1" fill-rule="nonzero"/></svg>