<svg width="430" height="932" viewBox="0 0 430 932" fill="none" xmlns="http://www.w3.org/2000/svg">
<g clip-path="url(#clip0_2007_19)">
<rect width="430" height="932" fill="white"/>
<path d="M0 0H430V932H0V0Z" fill="#E9A427"/>
<path d="M158 70L256 53" stroke="#D08B0D" stroke-width="70" stroke-linecap="round"/>
<path d="M-42 884.5C-17.3333 856.667 54 800 142 796" stroke="#D08B0D" stroke-width="70" stroke-linecap="round"/>
<path d="M333 945.5C367 926.833 442.7 868.8 473.5 786" stroke="#D08B0D" stroke-width="70" stroke-linecap="round"/>
<path d="M19 511.5C39.5 470.167 134.133 394.756 179 384" stroke="#D08B0D" stroke-width="70" stroke-linecap="round"/>
<path d="M441.619 476.945H440.005" stroke="#D08B0D" stroke-width="80" stroke-linecap="round"/>
<path d="M318 784H347" stroke="#D08B0D" stroke-width="70" stroke-linecap="round"/>
<g filter="url(#filter0_d_2007_19)">
<path d="M48.2688 118.292V125.636H56.9088V128.984H48.2688V136.652H57.9888V140H44.1648V114.944H57.9888V118.292H48.2688ZM70.2438 140.324C68.6838 140.324 67.2798 140.048 66.0318 139.496C64.8078 138.92 63.8358 138.152 63.1158 137.192C62.3958 136.208 62.0118 135.116 61.9638 133.916H66.2118C66.2838 134.756 66.6798 135.464 67.3998 136.04C68.1438 136.592 69.0678 136.868 70.1718 136.868C71.3238 136.868 72.2118 136.652 72.8358 136.22C73.4838 135.764 73.8078 135.188 73.8078 134.492C73.8078 133.748 73.4478 133.196 72.7278 132.836C72.0318 132.476 70.9158 132.08 69.3798 131.648C67.8918 131.24 66.6798 130.844 65.7438 130.46C64.8078 130.076 63.9918 129.488 63.2958 128.696C62.6238 127.904 62.2878 126.86 62.2878 125.564C62.2878 124.508 62.5998 123.548 63.2238 122.684C63.8478 121.796 64.7358 121.1 65.8878 120.596C67.0638 120.092 68.4078 119.84 69.9198 119.84C72.1758 119.84 73.9878 120.416 75.3558 121.568C76.7478 122.696 77.4918 124.244 77.5878 126.212H73.4838C73.4118 125.324 73.0518 124.616 72.4038 124.088C71.7558 123.56 70.8798 123.296 69.7758 123.296C68.6958 123.296 67.8678 123.5 67.2918 123.908C66.7158 124.316 66.4278 124.856 66.4278 125.528C66.4278 126.056 66.6198 126.5 67.0038 126.86C67.3878 127.22 67.8558 127.508 68.4078 127.724C68.9598 127.916 69.7758 128.168 70.8558 128.48C72.2958 128.864 73.4718 129.26 74.3838 129.668C75.3198 130.052 76.1238 130.628 76.7958 131.396C77.4678 132.164 77.8158 133.184 77.8398 134.456C77.8398 135.584 77.5278 136.592 76.9038 137.48C76.2798 138.368 75.3918 139.064 74.2398 139.568C73.1118 140.072 71.7798 140.324 70.2438 140.324ZM80.9062 130.064C80.9062 128.024 81.3142 126.236 82.1302 124.7C82.9702 123.14 84.1222 121.94 85.5862 121.1C87.0502 120.26 88.7302 119.84 90.6262 119.84C93.0262 119.84 95.0062 120.416 96.5662 121.568C98.1502 122.696 99.2182 124.316 99.7702 126.428H95.3422C94.9822 125.444 94.4062 124.676 93.6142 124.124C92.8222 123.572 91.8262 123.296 90.6262 123.296C88.9462 123.296 87.6022 123.896 86.5942 125.096C85.6102 126.272 85.1182 127.928 85.1182 130.064C85.1182 132.2 85.6102 133.868 86.5942 135.068C87.6022 136.268 88.9462 136.868 90.6262 136.868C93.0022 136.868 94.5742 135.824 95.3422 133.736H99.7702C99.1942 135.752 98.1142 137.36 96.5302 138.56C94.9462 139.736 92.9782 140.324 90.6262 140.324C88.7302 140.324 87.0502 139.904 85.5862 139.064C84.1222 138.2 82.9702 137 82.1302 135.464C81.3142 133.904 80.9062 132.104 80.9062 130.064ZM107.964 123.044C108.564 122.036 109.356 121.256 110.34 120.704C111.348 120.128 112.536 119.84 113.904 119.84V124.088H112.86C111.252 124.088 110.028 124.496 109.188 125.312C108.372 126.128 107.964 127.544 107.964 129.56V140H103.86V120.164H107.964V123.044ZM119.765 117.536C119.021 117.536 118.397 117.284 117.893 116.78C117.389 116.276 117.137 115.652 117.137 114.908C117.137 114.164 117.389 113.54 117.893 113.036C118.397 112.532 119.021 112.28 119.765 112.28C120.485 112.28 121.097 112.532 121.601 113.036C122.105 113.54 122.357 114.164 122.357 114.908C122.357 115.652 122.105 116.276 121.601 116.78C121.097 117.284 120.485 117.536 119.765 117.536ZM121.781 120.164V140H117.677V120.164H121.781ZM131.273 123.116C131.969 122.156 132.917 121.376 134.117 120.776C135.341 120.152 136.697 119.84 138.185 119.84C139.937 119.84 141.521 120.26 142.937 121.1C144.353 121.94 145.469 123.14 146.285 124.7C147.101 126.236 147.509 128 147.509 129.992C147.509 131.984 147.101 133.772 146.285 135.356C145.469 136.916 144.341 138.14 142.901 139.028C141.485 139.892 139.913 140.324 138.185 140.324C136.649 140.324 135.281 140.024 134.081 139.424C132.905 138.824 131.969 138.056 131.273 137.12V140H127.169V113.36H131.273V123.116ZM143.333 129.992C143.333 128.624 143.045 127.448 142.469 126.464C141.917 125.456 141.173 124.7 140.237 124.196C139.325 123.668 138.341 123.404 137.285 123.404C136.253 123.404 135.269 123.668 134.333 124.196C133.421 124.724 132.677 125.492 132.101 126.5C131.549 127.508 131.273 128.696 131.273 130.064C131.273 131.432 131.549 132.632 132.101 133.664C132.677 134.672 133.421 135.44 134.333 135.968C135.269 136.496 136.253 136.76 137.285 136.76C138.341 136.76 139.325 136.496 140.237 135.968C141.173 135.416 141.917 134.624 142.469 133.592C143.045 132.56 143.333 131.36 143.333 129.992ZM169.747 129.596C169.747 130.34 169.699 131.012 169.603 131.612H154.447C154.567 133.196 155.155 134.468 156.211 135.428C157.267 136.388 158.563 136.868 160.099 136.868C162.307 136.868 163.867 135.944 164.779 134.096H169.207C168.607 135.92 167.515 137.42 165.931 138.596C164.371 139.748 162.427 140.324 160.099 140.324C158.203 140.324 156.499 139.904 154.987 139.064C153.499 138.2 152.323 137 151.459 135.464C150.619 133.904 150.199 132.104 150.199 130.064C150.199 128.024 150.607 126.236 151.423 124.7C152.263 123.14 153.427 121.94 154.915 121.1C156.427 120.26 158.155 119.84 160.099 119.84C161.971 119.84 163.639 120.248 165.103 121.064C166.567 121.88 167.707 123.032 168.523 124.52C169.339 125.984 169.747 127.676 169.747 129.596ZM165.463 128.3C165.439 126.788 164.899 125.576 163.843 124.664C162.787 123.752 161.479 123.296 159.919 123.296C158.503 123.296 157.291 123.752 156.283 124.664C155.275 125.552 154.675 126.764 154.483 128.3H165.463ZM187.926 123.512V134.492C187.926 135.236 188.094 135.776 188.43 136.112C188.79 136.424 189.39 136.58 190.23 136.58H192.75V140H189.51C187.662 140 186.246 139.568 185.262 138.704C184.278 137.84 183.786 136.436 183.786 134.492V123.512H181.446V120.164H183.786V115.232H187.926V120.164H192.75V123.512H187.926ZM214.496 120.164V140H210.392V137.66C209.744 138.476 208.892 139.124 207.836 139.604C206.804 140.06 205.7 140.288 204.524 140.288C202.964 140.288 201.56 139.964 200.312 139.316C199.088 138.668 198.116 137.708 197.396 136.436C196.7 135.164 196.352 133.628 196.352 131.828V120.164H200.42V131.216C200.42 132.992 200.864 134.36 201.752 135.32C202.64 136.256 203.852 136.724 205.388 136.724C206.924 136.724 208.136 136.256 209.024 135.32C209.936 134.36 210.392 132.992 210.392 131.216V120.164H214.496ZM227.895 130.064C227.895 128.024 228.303 126.236 229.119 124.7C229.959 123.14 231.111 121.94 232.575 121.1C234.039 120.26 235.719 119.84 237.615 119.84C240.015 119.84 241.995 120.416 243.555 121.568C245.139 122.696 246.207 124.316 246.759 126.428H242.331C241.971 125.444 241.395 124.676 240.603 124.124C239.811 123.572 238.815 123.296 237.615 123.296C235.935 123.296 234.591 123.896 233.583 125.096C232.599 126.272 232.107 127.928 232.107 130.064C232.107 132.2 232.599 133.868 233.583 135.068C234.591 136.268 235.935 136.868 237.615 136.868C239.991 136.868 241.563 135.824 242.331 133.736H246.759C246.183 135.752 245.103 137.36 243.519 138.56C241.935 139.736 239.967 140.324 237.615 140.324C235.719 140.324 234.039 139.904 232.575 139.064C231.111 138.2 229.959 137 229.119 135.464C228.303 133.904 227.895 132.104 227.895 130.064ZM254.952 113.36V140H250.848V113.36H254.952ZM258.973 129.992C258.973 128 259.381 126.236 260.197 124.7C261.037 123.164 262.165 121.976 263.581 121.136C265.021 120.272 266.605 119.84 268.333 119.84C269.893 119.84 271.249 120.152 272.401 120.776C273.577 121.376 274.513 122.132 275.209 123.044V120.164H279.349V140H275.209V137.048C274.513 137.984 273.565 138.764 272.365 139.388C271.165 140.012 269.797 140.324 268.261 140.324C266.557 140.324 264.997 139.892 263.581 139.028C262.165 138.14 261.037 136.916 260.197 135.356C259.381 133.772 258.973 131.984 258.973 129.992ZM275.209 130.064C275.209 128.696 274.921 127.508 274.345 126.5C273.793 125.492 273.061 124.724 272.149 124.196C271.237 123.668 270.253 123.404 269.197 123.404C268.141 123.404 267.157 123.668 266.245 124.196C265.333 124.7 264.589 125.456 264.013 126.464C263.461 127.448 263.185 128.624 263.185 129.992C263.185 131.36 263.461 132.56 264.013 133.592C264.589 134.624 265.333 135.416 266.245 135.968C267.181 136.496 268.165 136.76 269.197 136.76C270.253 136.76 271.237 136.496 272.149 135.968C273.061 135.44 273.793 134.672 274.345 133.664C274.921 132.632 275.209 131.432 275.209 130.064ZM292.407 136.328L298.023 120.164H302.379L294.819 140H289.923L282.399 120.164H286.791L292.407 136.328ZM323.661 129.596C323.661 130.34 323.613 131.012 323.517 131.612H308.361C308.481 133.196 309.069 134.468 310.125 135.428C311.181 136.388 312.477 136.868 314.013 136.868C316.221 136.868 317.781 135.944 318.693 134.096H323.121C322.521 135.92 321.429 137.42 319.845 138.596C318.285 139.748 316.341 140.324 314.013 140.324C312.117 140.324 310.413 139.904 308.901 139.064C307.413 138.2 306.237 137 305.373 135.464C304.533 133.904 304.113 132.104 304.113 130.064C304.113 128.024 304.521 126.236 305.337 124.7C306.177 123.14 307.341 121.94 308.829 121.1C310.341 120.26 312.069 119.84 314.013 119.84C315.885 119.84 317.553 120.248 319.017 121.064C320.481 121.88 321.621 123.032 322.437 124.52C323.253 125.984 323.661 127.676 323.661 129.596ZM319.377 128.3C319.353 126.788 318.813 125.576 317.757 124.664C316.701 123.752 315.393 123.296 313.833 123.296C312.417 123.296 311.205 123.752 310.197 124.664C309.189 125.552 308.589 126.764 308.397 128.3H319.377Z" fill="white"/>
</g>
<g filter="url(#filter1_d_2007_19)">
<path d="M76.2004 297.175C75.0504 297.175 74.0337 296.975 73.1504 296.575C72.2837 296.175 71.6004 295.617 71.1004 294.9C70.6004 294.183 70.3337 293.383 70.3004 292.5H72.1504C72.2337 293.35 72.6087 294.1 73.2754 294.75C73.9421 295.383 74.9171 295.7 76.2004 295.7C77.3837 295.7 78.3171 295.4 79.0004 294.8C79.7004 294.183 80.0504 293.408 80.0504 292.475C80.0504 291.725 79.8587 291.125 79.4754 290.675C79.0921 290.208 78.6171 289.867 78.0504 289.65C77.4837 289.417 76.7004 289.167 75.7004 288.9C74.5337 288.583 73.6087 288.275 72.9254 287.975C72.2421 287.675 71.6587 287.208 71.1754 286.575C70.6921 285.942 70.4504 285.083 70.4504 284C70.4504 283.1 70.6837 282.3 71.1504 281.6C71.6171 280.883 72.2754 280.325 73.1254 279.925C73.9754 279.525 74.9504 279.325 76.0504 279.325C77.6671 279.325 78.9671 279.725 79.9504 280.525C80.9504 281.308 81.5254 282.325 81.6754 283.575H79.7754C79.6587 282.858 79.2671 282.225 78.6004 281.675C77.9337 281.108 77.0337 280.825 75.9004 280.825C74.8504 280.825 73.9754 281.108 73.2754 281.675C72.5754 282.225 72.2254 282.983 72.2254 283.95C72.2254 284.683 72.4171 285.275 72.8004 285.725C73.1837 286.175 73.6587 286.517 74.2254 286.75C74.8087 286.983 75.5921 287.233 76.5754 287.5C77.7087 287.817 78.6254 288.133 79.3254 288.45C80.0254 288.75 80.6171 289.217 81.1004 289.85C81.5837 290.483 81.8254 291.333 81.8254 292.4C81.8254 293.217 81.6087 293.992 81.1754 294.725C80.7421 295.458 80.1004 296.05 79.2504 296.5C78.4004 296.95 77.3837 297.175 76.2004 297.175ZM91.182 297.2C89.8987 297.2 88.7404 296.917 87.707 296.35C86.6904 295.767 85.882 294.95 85.282 293.9C84.6987 292.833 84.407 291.592 84.407 290.175C84.407 288.758 84.707 287.525 85.307 286.475C85.907 285.408 86.7237 284.592 87.757 284.025C88.7904 283.442 89.9487 283.15 91.232 283.15C92.5154 283.15 93.6737 283.442 94.707 284.025C95.757 284.592 96.5737 285.408 97.157 286.475C97.757 287.525 98.057 288.758 98.057 290.175C98.057 291.575 97.757 292.808 97.157 293.875C96.557 294.942 95.732 295.767 94.682 296.35C93.632 296.917 92.4654 297.2 91.182 297.2ZM91.182 295.675C92.082 295.675 92.9154 295.475 93.682 295.075C94.4487 294.658 95.0654 294.042 95.532 293.225C96.0154 292.392 96.257 291.375 96.257 290.175C96.257 288.975 96.0237 287.967 95.557 287.15C95.0904 286.317 94.4737 285.7 93.707 285.3C92.9404 284.883 92.107 284.675 91.207 284.675C90.307 284.675 89.4737 284.883 88.707 285.3C87.9404 285.7 87.3237 286.317 86.857 287.15C86.407 287.967 86.182 288.975 86.182 290.175C86.182 291.375 86.407 292.392 86.857 293.225C87.3237 294.042 87.932 294.658 88.682 295.075C89.4487 295.475 90.282 295.675 91.182 295.675ZM102.997 278.5V297H101.247V278.5H102.997ZM112.935 297.2C111.652 297.2 110.493 296.917 109.46 296.35C108.443 295.767 107.635 294.95 107.035 293.9C106.452 292.833 106.16 291.592 106.16 290.175C106.16 288.758 106.46 287.525 107.06 286.475C107.66 285.408 108.477 284.592 109.51 284.025C110.543 283.442 111.702 283.15 112.985 283.15C114.268 283.15 115.427 283.442 116.46 284.025C117.51 284.592 118.327 285.408 118.91 286.475C119.51 287.525 119.81 288.758 119.81 290.175C119.81 291.575 119.51 292.808 118.91 293.875C118.31 294.942 117.485 295.767 116.435 296.35C115.385 296.917 114.218 297.2 112.935 297.2ZM112.935 295.675C113.835 295.675 114.668 295.475 115.435 295.075C116.202 294.658 116.818 294.042 117.285 293.225C117.768 292.392 118.01 291.375 118.01 290.175C118.01 288.975 117.777 287.967 117.31 287.15C116.843 286.317 116.227 285.7 115.46 285.3C114.693 284.883 113.86 284.675 112.96 284.675C112.06 284.675 111.227 284.883 110.46 285.3C109.693 285.7 109.077 286.317 108.61 287.15C108.16 287.967 107.935 288.975 107.935 290.175C107.935 291.375 108.16 292.392 108.61 293.225C109.077 294.042 109.685 294.658 110.435 295.075C111.202 295.475 112.035 295.675 112.935 295.675ZM142.21 289.475C142.21 290.075 142.194 290.533 142.16 290.85H130.835C130.885 291.883 131.135 292.767 131.585 293.5C132.035 294.233 132.627 294.792 133.36 295.175C134.094 295.542 134.894 295.725 135.76 295.725C136.894 295.725 137.844 295.45 138.61 294.9C139.394 294.35 139.91 293.608 140.16 292.675H142.01C141.677 294.008 140.96 295.1 139.86 295.95C138.777 296.783 137.41 297.2 135.76 297.2C134.477 297.2 133.327 296.917 132.31 296.35C131.294 295.767 130.494 294.95 129.91 293.9C129.344 292.833 129.06 291.592 129.06 290.175C129.06 288.758 129.344 287.517 129.91 286.45C130.477 285.383 131.269 284.567 132.285 284C133.302 283.433 134.46 283.15 135.76 283.15C137.06 283.15 138.194 283.433 139.16 284C140.144 284.567 140.894 285.333 141.41 286.3C141.944 287.25 142.21 288.308 142.21 289.475ZM140.435 289.425C140.452 288.408 140.244 287.542 139.81 286.825C139.394 286.108 138.819 285.567 138.085 285.2C137.352 284.833 136.552 284.65 135.685 284.65C134.385 284.65 133.277 285.067 132.36 285.9C131.444 286.733 130.935 287.908 130.835 289.425H140.435ZM150.112 297.2C148.545 297.2 147.262 296.842 146.262 296.125C145.279 295.392 144.729 294.4 144.612 293.15H146.412C146.495 293.917 146.854 294.542 147.487 295.025C148.137 295.492 149.004 295.725 150.087 295.725C151.037 295.725 151.779 295.5 152.312 295.05C152.862 294.6 153.137 294.042 153.137 293.375C153.137 292.908 152.987 292.525 152.687 292.225C152.387 291.925 152.004 291.692 151.537 291.525C151.087 291.342 150.47 291.15 149.687 290.95C148.67 290.683 147.845 290.417 147.212 290.15C146.579 289.883 146.037 289.492 145.587 288.975C145.154 288.442 144.937 287.733 144.937 286.85C144.937 286.183 145.137 285.567 145.537 285C145.937 284.433 146.504 283.983 147.237 283.65C147.97 283.317 148.804 283.15 149.737 283.15C151.204 283.15 152.387 283.525 153.287 284.275C154.187 285.008 154.67 286.025 154.737 287.325H152.987C152.937 286.525 152.62 285.883 152.037 285.4C151.47 284.9 150.687 284.65 149.687 284.65C148.804 284.65 148.087 284.858 147.537 285.275C146.987 285.692 146.712 286.208 146.712 286.825C146.712 287.358 146.87 287.8 147.187 288.15C147.52 288.483 147.929 288.75 148.412 288.95C148.895 289.133 149.545 289.342 150.362 289.575C151.345 289.842 152.129 290.1 152.712 290.35C153.295 290.6 153.795 290.967 154.212 291.45C154.629 291.933 154.845 292.575 154.862 293.375C154.862 294.108 154.662 294.767 154.262 295.35C153.862 295.917 153.304 296.367 152.587 296.7C151.87 297.033 151.045 297.2 150.112 297.2ZM166.742 286.35C167.175 285.433 167.858 284.675 168.792 284.075C169.742 283.458 170.867 283.15 172.167 283.15C173.4 283.15 174.508 283.442 175.492 284.025C176.492 284.592 177.267 285.408 177.817 286.475C178.383 287.525 178.667 288.75 178.667 290.15C178.667 291.55 178.383 292.783 177.817 293.85C177.267 294.917 176.492 295.742 175.492 296.325C174.508 296.908 173.4 297.2 172.167 297.2C170.883 297.2 169.767 296.9 168.817 296.3C167.867 295.683 167.175 294.917 166.742 294V303.45H165.017V283.35H166.742V286.35ZM176.892 290.15C176.892 289.017 176.667 288.042 176.217 287.225C175.783 286.392 175.183 285.758 174.417 285.325C173.65 284.892 172.783 284.675 171.817 284.675C170.883 284.675 170.025 284.9 169.242 285.35C168.475 285.8 167.867 286.442 167.417 287.275C166.967 288.108 166.742 289.075 166.742 290.175C166.742 291.275 166.967 292.242 167.417 293.075C167.867 293.908 168.475 294.55 169.242 295C170.025 295.45 170.883 295.675 171.817 295.675C172.783 295.675 173.65 295.458 174.417 295.025C175.183 294.575 175.783 293.933 176.217 293.1C176.667 292.25 176.892 291.267 176.892 290.15ZM181.087 290.15C181.087 288.75 181.362 287.525 181.912 286.475C182.478 285.408 183.253 284.592 184.237 284.025C185.237 283.442 186.362 283.15 187.612 283.15C188.912 283.15 190.028 283.45 190.962 284.05C191.912 284.65 192.595 285.417 193.012 286.35V283.35H194.762V297H193.012V293.975C192.578 294.908 191.887 295.683 190.937 296.3C190.003 296.9 188.887 297.2 187.587 297.2C186.353 297.2 185.237 296.908 184.237 296.325C183.253 295.742 182.478 294.917 181.912 293.85C181.362 292.783 181.087 291.55 181.087 290.15ZM193.012 290.175C193.012 289.075 192.787 288.108 192.337 287.275C191.887 286.442 191.27 285.8 190.487 285.35C189.72 284.9 188.87 284.675 187.937 284.675C186.97 284.675 186.103 284.892 185.337 285.325C184.57 285.758 183.962 286.392 183.512 287.225C183.078 288.042 182.862 289.017 182.862 290.15C182.862 291.267 183.078 292.25 183.512 293.1C183.962 293.933 184.57 294.575 185.337 295.025C186.103 295.458 186.97 295.675 187.937 295.675C188.87 295.675 189.72 295.45 190.487 295C191.27 294.55 191.887 293.908 192.337 293.075C192.787 292.242 193.012 291.275 193.012 290.175ZM200.507 285.775C200.89 284.925 201.474 284.267 202.257 283.8C203.057 283.333 204.032 283.1 205.182 283.1V284.925H204.707C203.44 284.925 202.424 285.267 201.657 285.95C200.89 286.633 200.507 287.775 200.507 289.375V297H198.757V283.35H200.507V285.775ZM207.014 290.15C207.014 288.75 207.289 287.525 207.839 286.475C208.406 285.408 209.181 284.592 210.164 284.025C211.164 283.442 212.289 283.15 213.539 283.15C214.839 283.15 215.956 283.45 216.889 284.05C217.839 284.65 218.523 285.417 218.939 286.35V283.35H220.689V297H218.939V293.975C218.506 294.908 217.814 295.683 216.864 296.3C215.931 296.9 214.814 297.2 213.514 297.2C212.281 297.2 211.164 296.908 210.164 296.325C209.181 295.742 208.406 294.917 207.839 293.85C207.289 292.783 207.014 291.55 207.014 290.15ZM218.939 290.175C218.939 289.075 218.714 288.108 218.264 287.275C217.814 286.442 217.198 285.8 216.414 285.35C215.648 284.9 214.798 284.675 213.864 284.675C212.898 284.675 212.031 284.892 211.264 285.325C210.498 285.758 209.889 286.392 209.439 287.225C209.006 288.042 208.789 289.017 208.789 290.15C208.789 291.267 209.006 292.25 209.439 293.1C209.889 293.933 210.498 294.575 211.264 295.025C212.031 295.458 212.898 295.675 213.864 295.675C214.798 295.675 215.648 295.45 216.414 295C217.198 294.55 217.814 293.908 218.264 293.075C218.714 292.242 218.939 291.275 218.939 290.175ZM230.745 290.175C230.745 288.758 231.028 287.525 231.595 286.475C232.162 285.408 232.945 284.592 233.945 284.025C234.945 283.442 236.087 283.15 237.37 283.15C239.053 283.15 240.437 283.567 241.52 284.4C242.62 285.233 243.328 286.367 243.645 287.8H241.77C241.537 286.817 241.028 286.05 240.245 285.5C239.478 284.933 238.52 284.65 237.37 284.65C236.453 284.65 235.628 284.858 234.895 285.275C234.162 285.692 233.578 286.317 233.145 287.15C232.728 287.967 232.52 288.975 232.52 290.175C232.52 291.375 232.728 292.392 233.145 293.225C233.578 294.058 234.162 294.683 234.895 295.1C235.628 295.517 236.453 295.725 237.37 295.725C238.52 295.725 239.478 295.45 240.245 294.9C241.028 294.333 241.537 293.55 241.77 292.55H243.645C243.328 293.95 242.62 295.075 241.52 295.925C240.42 296.775 239.037 297.2 237.37 297.2C236.087 297.2 234.945 296.917 233.945 296.35C232.945 295.767 232.162 294.95 231.595 293.9C231.028 292.833 230.745 291.592 230.745 290.175ZM252.852 297.2C251.569 297.2 250.41 296.917 249.377 296.35C248.36 295.767 247.552 294.95 246.952 293.9C246.369 292.833 246.077 291.592 246.077 290.175C246.077 288.758 246.377 287.525 246.977 286.475C247.577 285.408 248.394 284.592 249.427 284.025C250.46 283.442 251.619 283.15 252.902 283.15C254.185 283.15 255.344 283.442 256.377 284.025C257.427 284.592 258.244 285.408 258.827 286.475C259.427 287.525 259.727 288.758 259.727 290.175C259.727 291.575 259.427 292.808 258.827 293.875C258.227 294.942 257.402 295.767 256.352 296.35C255.302 296.917 254.135 297.2 252.852 297.2ZM252.852 295.675C253.752 295.675 254.585 295.475 255.352 295.075C256.119 294.658 256.735 294.042 257.202 293.225C257.685 292.392 257.927 291.375 257.927 290.175C257.927 288.975 257.694 287.967 257.227 287.15C256.76 286.317 256.144 285.7 255.377 285.3C254.61 284.883 253.777 284.675 252.877 284.675C251.977 284.675 251.144 284.883 250.377 285.3C249.61 285.7 248.994 286.317 248.527 287.15C248.077 287.967 247.852 288.975 247.852 290.175C247.852 291.375 248.077 292.392 248.527 293.225C248.994 294.042 249.602 294.658 250.352 295.075C251.119 295.475 251.952 295.675 252.852 295.675ZM269.317 283.1C270.95 283.1 272.284 283.608 273.317 284.625C274.35 285.625 274.867 287.083 274.867 289V297H273.142V289.2C273.142 287.717 272.767 286.583 272.017 285.8C271.284 285.017 270.275 284.625 268.992 284.625C267.675 284.625 266.625 285.042 265.842 285.875C265.059 286.708 264.667 287.933 264.667 289.55V297H262.917V283.35H264.667V285.675C265.1 284.842 265.725 284.208 266.542 283.775C267.359 283.325 268.284 283.1 269.317 283.1ZM284.112 284.825H280.937V297H279.187V284.825H277.287V283.35H279.187V282.4C279.187 280.917 279.562 279.825 280.312 279.125C281.079 278.425 282.312 278.075 284.012 278.075V279.575C282.879 279.575 282.079 279.792 281.612 280.225C281.162 280.658 280.937 281.383 280.937 282.4V283.35H284.112V284.825ZM287.742 280.775C287.392 280.775 287.092 280.65 286.842 280.4C286.592 280.15 286.467 279.842 286.467 279.475C286.467 279.108 286.592 278.808 286.842 278.575C287.092 278.325 287.392 278.2 287.742 278.2C288.092 278.2 288.392 278.325 288.642 278.575C288.892 278.808 289.017 279.108 289.017 279.475C289.017 279.842 288.892 280.15 288.642 280.4C288.392 280.65 288.092 280.775 287.742 280.775ZM288.617 283.35V297H286.867V283.35H288.617ZM294.33 285.775C294.713 284.925 295.297 284.267 296.08 283.8C296.88 283.333 297.855 283.1 299.005 283.1V284.925H298.53C297.263 284.925 296.247 285.267 295.48 285.95C294.713 286.633 294.33 287.775 294.33 289.375V297H292.58V283.35H294.33V285.775ZM317.888 283.1C319.488 283.1 320.788 283.608 321.788 284.625C322.804 285.625 323.313 287.083 323.313 289V297H321.588V289.2C321.588 287.717 321.229 286.583 320.513 285.8C319.796 285.017 318.821 284.625 317.588 284.625C316.304 284.625 315.279 285.05 314.513 285.9C313.746 286.75 313.363 287.983 313.363 289.6V297H311.638V289.2C311.638 287.717 311.279 286.583 310.563 285.8C309.846 285.017 308.863 284.625 307.613 284.625C306.329 284.625 305.304 285.05 304.538 285.9C303.771 286.75 303.388 287.983 303.388 289.6V297H301.638V283.35H303.388V285.7C303.821 284.85 304.438 284.208 305.238 283.775C306.038 283.325 306.929 283.1 307.913 283.1C309.096 283.1 310.129 283.383 311.013 283.95C311.913 284.517 312.563 285.35 312.963 286.45C313.329 285.367 313.954 284.542 314.838 283.975C315.738 283.392 316.754 283.1 317.888 283.1ZM326.399 290.15C326.399 288.75 326.674 287.525 327.224 286.475C327.791 285.408 328.566 284.592 329.549 284.025C330.549 283.442 331.674 283.15 332.924 283.15C334.224 283.15 335.341 283.45 336.274 284.05C337.224 284.65 337.908 285.417 338.324 286.35V283.35H340.074V297H338.324V293.975C337.891 294.908 337.199 295.683 336.249 296.3C335.316 296.9 334.199 297.2 332.899 297.2C331.666 297.2 330.549 296.908 329.549 296.325C328.566 295.742 327.791 294.917 327.224 293.85C326.674 292.783 326.399 291.55 326.399 290.15ZM338.324 290.175C338.324 289.075 338.099 288.108 337.649 287.275C337.199 286.442 336.583 285.8 335.799 285.35C335.033 284.9 334.183 284.675 333.249 284.675C332.283 284.675 331.416 284.892 330.649 285.325C329.883 285.758 329.274 286.392 328.824 287.225C328.391 288.042 328.174 289.017 328.174 290.15C328.174 291.267 328.391 292.25 328.824 293.1C329.274 293.933 329.883 294.575 330.649 295.025C331.416 295.458 332.283 295.675 333.249 295.675C334.183 295.675 335.033 295.45 335.799 295C336.583 294.55 337.199 293.908 337.649 293.075C338.099 292.242 338.324 291.275 338.324 290.175ZM345.819 285.775C346.203 284.925 346.786 284.267 347.569 283.8C348.369 283.333 349.344 283.1 350.494 283.1V284.925H350.019C348.753 284.925 347.736 285.267 346.969 285.95C346.203 286.633 345.819 287.775 345.819 289.375V297H344.069V283.35H345.819V285.775ZM360.287 297.125C359.921 297.125 359.612 297 359.362 296.75C359.129 296.5 359.012 296.192 359.012 295.825C359.012 295.458 359.129 295.158 359.362 294.925C359.612 294.675 359.921 294.55 360.287 294.55C360.637 294.55 360.929 294.675 361.162 294.925C361.412 295.158 361.537 295.458 361.537 295.825C361.537 296.192 361.412 296.5 361.162 296.75C360.929 297 360.637 297.125 360.287 297.125ZM360.287 286.25C359.921 286.25 359.612 286.125 359.362 285.875C359.129 285.625 359.012 285.317 359.012 284.95C359.012 284.583 359.129 284.283 359.362 284.05C359.612 283.8 359.921 283.675 360.287 283.675C360.637 283.675 360.929 283.8 361.162 284.05C361.412 284.283 361.537 284.583 361.537 284.95C361.537 285.317 361.412 285.625 361.162 285.875C360.929 286.125 360.637 286.25 360.287 286.25ZM363.852 301.65V301.475C365.552 299.725 366.843 297.667 367.727 295.3C368.61 292.933 369.052 290.425 369.052 287.775C369.052 285.092 368.585 282.533 367.652 280.1C366.735 277.667 365.385 275.575 363.602 273.825V273.65H365.427C367.11 275.25 368.418 277.283 369.352 279.75C370.285 282.217 370.752 284.892 370.752 287.775C370.752 290.625 370.302 293.267 369.402 295.7C368.502 298.117 367.268 300.1 365.702 301.65H363.852ZM38.949 322.925H36.924L40.074 317.525H41.349L38.949 322.925ZM42.624 322.925H40.599L43.749 317.525H45.024L42.624 322.925ZM65.0678 317.75L62.0178 335H60.2678L62.6928 321.25L54.1428 335H52.8678L49.1178 321.275L46.7178 335H44.9678L48.0178 317.75H49.8678L53.9428 332.7L63.2178 317.75H65.0678ZM74.3627 321.15C75.5127 321.15 76.496 321.375 77.3127 321.825C78.1294 322.258 78.746 322.858 79.1627 323.625C79.596 324.392 79.8127 325.267 79.8127 326.25C79.8127 326.7 79.7794 327.1 79.7127 327.45C79.6127 327.95 79.5127 328.4 79.4127 328.8H68.0877C68.0377 329.117 68.0127 329.417 68.0127 329.7C68.0127 330.983 68.396 331.975 69.1627 332.675C69.946 333.375 70.9377 333.725 72.1377 333.725C73.2877 333.725 74.296 333.45 75.1627 332.9C76.0294 332.35 76.6627 331.608 77.0627 330.675H78.9377C78.371 332.008 77.4627 333.1 76.2127 333.95C74.9794 334.783 73.5377 335.2 71.8877 335.2C70.1877 335.2 68.821 334.717 67.7877 333.75C66.771 332.767 66.2627 331.433 66.2627 329.75C66.2627 329.25 66.3127 328.725 66.4127 328.175C66.6627 326.758 67.1627 325.517 67.9127 324.45C68.6794 323.383 69.621 322.567 70.7377 322C71.8544 321.433 73.0627 321.15 74.3627 321.15ZM77.9127 327.5C77.996 327.033 78.0377 326.642 78.0377 326.325C78.0377 325.142 77.6627 324.233 76.9127 323.6C76.1627 322.967 75.2044 322.65 74.0377 322.65C73.1877 322.65 72.371 322.833 71.5877 323.2C70.8044 323.567 70.121 324.117 69.5377 324.85C68.9544 325.583 68.5544 326.467 68.3377 327.5H77.9127ZM85.4145 318.775C85.0978 318.775 84.8395 318.683 84.6395 318.5C84.4561 318.3 84.3645 318.042 84.3645 317.725C84.3645 317.292 84.5145 316.933 84.8145 316.65C85.1145 316.35 85.4645 316.2 85.8645 316.2C86.1811 316.2 86.4395 316.3 86.6395 316.5C86.8395 316.683 86.9395 316.933 86.9395 317.25C86.9395 317.667 86.7811 318.025 86.4645 318.325C86.1645 318.625 85.8145 318.775 85.4145 318.775ZM82.8645 338.225C82.6811 339.325 82.2645 340.133 81.6145 340.65C80.9645 341.183 80.0811 341.45 78.9645 341.45H77.7645L78.0395 339.95H78.9645C79.6145 339.95 80.1061 339.808 80.4395 339.525C80.7728 339.258 80.9978 338.8 81.1145 338.15L84.0895 321.35H85.8395L82.8645 338.225ZM93.4238 335.2C92.2905 335.2 91.2905 334.975 90.4238 334.525C89.5572 334.058 88.8822 333.408 88.3988 332.575C87.9322 331.725 87.6988 330.733 87.6988 329.6C87.6988 328.067 88.0488 326.658 88.7488 325.375C89.4488 324.075 90.4238 323.05 91.6738 322.3C92.9238 321.533 94.3155 321.15 95.8488 321.15C96.9822 321.15 97.9822 321.383 98.8488 321.85C99.7155 322.3 100.39 322.95 100.874 323.8C101.357 324.633 101.599 325.617 101.599 326.75C101.599 328.3 101.24 329.717 100.524 331C99.8072 332.283 98.8238 333.308 97.5738 334.075C96.3405 334.825 94.9572 335.2 93.4238 335.2ZM93.6238 333.725C94.8072 333.725 95.8655 333.408 96.7988 332.775C97.7488 332.142 98.4822 331.3 98.9988 330.25C99.5322 329.2 99.7988 328.067 99.7988 326.85C99.7988 325.483 99.3988 324.442 98.5988 323.725C97.8155 323.008 96.8155 322.65 95.5988 322.65C94.4155 322.65 93.3572 322.967 92.4238 323.6C91.5072 324.233 90.7905 325.075 90.2738 326.125C89.7572 327.175 89.4988 328.308 89.4988 329.525C89.4988 330.875 89.8905 331.917 90.6738 332.65C91.4572 333.367 92.4405 333.725 93.6238 333.725ZM107.139 324.075C107.689 323.125 108.406 322.392 109.289 321.875C110.172 321.358 111.197 321.1 112.364 321.1L112.039 322.925H111.539C110.339 322.925 109.306 323.233 108.439 323.85C107.572 324.467 106.972 325.483 106.639 326.9L105.214 335H103.464L105.864 321.35H107.614L107.139 324.075ZM123.52 324.35C124.086 323.433 124.895 322.675 125.945 322.075C127.011 321.458 128.186 321.15 129.47 321.15C131.12 321.15 132.436 321.642 133.42 322.625C134.42 323.592 134.92 324.917 134.92 326.6C134.92 327.083 134.87 327.6 134.77 328.15C134.52 329.55 134.02 330.783 133.27 331.85C132.52 332.917 131.595 333.742 130.495 334.325C129.411 334.908 128.245 335.2 126.995 335.2C125.711 335.2 124.653 334.9 123.82 334.3C122.986 333.683 122.428 332.917 122.145 332L120.495 341.45H118.745L122.295 321.35H124.045L123.52 324.35ZM132.995 328.15C133.078 327.65 133.12 327.225 133.12 326.875C133.12 325.558 132.728 324.533 131.945 323.8C131.178 323.05 130.161 322.675 128.895 322.675C127.961 322.675 127.07 322.9 126.22 323.35C125.37 323.8 124.645 324.442 124.045 325.275C123.445 326.108 123.045 327.075 122.845 328.175C122.761 328.642 122.72 329.058 122.72 329.425C122.72 330.725 123.111 331.758 123.895 332.525C124.678 333.292 125.695 333.675 126.945 333.675C127.911 333.675 128.811 333.458 129.645 333.025C130.495 332.575 131.211 331.933 131.795 331.1C132.395 330.25 132.795 329.267 132.995 328.15ZM140.44 324.075C140.99 323.125 141.706 322.392 142.59 321.875C143.473 321.358 144.498 321.1 145.665 321.1L145.34 322.925H144.84C143.64 322.925 142.606 323.233 141.74 323.85C140.873 324.467 140.273 325.483 139.94 326.9L138.515 335H136.765L139.165 321.35H140.915L140.44 324.075ZM154.172 321.15C155.322 321.15 156.306 321.375 157.122 321.825C157.939 322.258 158.556 322.858 158.972 323.625C159.406 324.392 159.622 325.267 159.622 326.25C159.622 326.7 159.589 327.1 159.522 327.45C159.422 327.95 159.322 328.4 159.222 328.8H147.897C147.847 329.117 147.822 329.417 147.822 329.7C147.822 330.983 148.206 331.975 148.972 332.675C149.756 333.375 150.747 333.725 151.947 333.725C153.097 333.725 154.106 333.45 154.972 332.9C155.839 332.35 156.472 331.608 156.872 330.675H158.747C158.181 332.008 157.272 333.1 156.022 333.95C154.789 334.783 153.347 335.2 151.697 335.2C149.997 335.2 148.631 334.717 147.597 333.75C146.581 332.767 146.072 331.433 146.072 329.75C146.072 329.25 146.122 328.725 146.222 328.175C146.472 326.758 146.972 325.517 147.722 324.45C148.489 323.383 149.431 322.567 150.547 322C151.664 321.433 152.872 321.15 154.172 321.15ZM157.722 327.5C157.806 327.033 157.847 326.642 157.847 326.325C157.847 325.142 157.472 324.233 156.722 323.6C155.972 322.967 155.014 322.65 153.847 322.65C152.997 322.65 152.181 322.833 151.397 323.2C150.614 323.567 149.931 324.117 149.347 324.85C148.764 325.583 148.364 326.467 148.147 327.5H157.722ZM166.549 333.225L173.224 321.35H175.124L167.224 335H165.199L162.149 321.35H164.024L166.549 333.225ZM183.396 321.15C184.546 321.15 185.529 321.375 186.346 321.825C187.163 322.258 187.779 322.858 188.196 323.625C188.629 324.392 188.846 325.267 188.846 326.25C188.846 326.7 188.813 327.1 188.746 327.45C188.646 327.95 188.546 328.4 188.446 328.8H177.121C177.071 329.117 177.046 329.417 177.046 329.7C177.046 330.983 177.429 331.975 178.196 332.675C178.979 333.375 179.971 333.725 181.171 333.725C182.321 333.725 183.329 333.45 184.196 332.9C185.063 332.35 185.696 331.608 186.096 330.675H187.971C187.404 332.008 186.496 333.1 185.246 333.95C184.013 334.783 182.571 335.2 180.921 335.2C179.221 335.2 177.854 334.717 176.821 333.75C175.804 332.767 175.296 331.433 175.296 329.75C175.296 329.25 175.346 328.725 175.446 328.175C175.696 326.758 176.196 325.517 176.946 324.45C177.713 323.383 178.654 322.567 179.771 322C180.888 321.433 182.096 321.15 183.396 321.15ZM186.946 327.5C187.029 327.033 187.071 326.642 187.071 326.325C187.071 325.142 186.696 324.233 185.946 323.6C185.196 322.967 184.238 322.65 183.071 322.65C182.221 322.65 181.404 322.833 180.621 323.2C179.838 323.567 179.154 324.117 178.571 324.85C177.988 325.583 177.588 326.467 177.371 327.5H186.946ZM199.473 321.1C200.873 321.1 201.989 321.483 202.823 322.25C203.673 323 204.098 324.1 204.098 325.55C204.098 326.083 204.056 326.567 203.973 327L202.548 335H200.823L202.198 327.2C202.264 326.817 202.298 326.408 202.298 325.975C202.298 324.875 201.998 324.042 201.398 323.475C200.798 322.908 199.956 322.625 198.873 322.625C197.556 322.625 196.431 323.042 195.498 323.875C194.564 324.708 193.956 325.933 193.673 327.55V327.475L192.348 335H190.598L192.998 321.35H194.748L194.323 323.7C194.906 322.867 195.648 322.225 196.548 321.775C197.448 321.325 198.423 321.1 199.473 321.1ZM210.168 318.775C209.851 318.775 209.593 318.683 209.393 318.5C209.193 318.3 209.093 318.042 209.093 317.725C209.093 317.292 209.243 316.933 209.543 316.65C209.843 316.35 210.201 316.2 210.618 316.2C210.935 316.2 211.185 316.292 211.368 316.475C211.568 316.658 211.668 316.9 211.668 317.2C211.668 317.633 211.518 318.008 211.218 318.325C210.918 318.625 210.568 318.775 210.168 318.775ZM210.568 321.35L208.168 335H206.418L208.818 321.35H210.568ZM215.806 324.075C216.356 323.125 217.073 322.392 217.956 321.875C218.839 321.358 219.864 321.1 221.031 321.1L220.706 322.925H220.206C219.006 322.925 217.973 323.233 217.106 323.85C216.239 324.467 215.639 325.483 215.306 326.9L213.881 335H212.131L214.531 321.35H216.281L215.806 324.075ZM228.962 328.15C229.212 326.75 229.712 325.525 230.462 324.475C231.212 323.408 232.137 322.592 233.237 322.025C234.337 321.442 235.512 321.15 236.762 321.15C238.045 321.15 239.103 321.458 239.937 322.075C240.787 322.675 241.328 323.433 241.562 324.35L242.087 321.35H243.837L240.312 341.45H238.562L240.212 332C239.662 332.9 238.853 333.658 237.787 334.275C236.72 334.892 235.528 335.2 234.212 335.2C233.145 335.2 232.203 334.975 231.387 334.525C230.57 334.075 229.937 333.442 229.487 332.625C229.037 331.792 228.812 330.817 228.812 329.7C228.812 329.217 228.862 328.7 228.962 328.15ZM240.887 328.175C240.97 327.708 241.012 327.292 241.012 326.925C241.012 325.625 240.62 324.592 239.837 323.825C239.053 323.058 238.037 322.675 236.787 322.675C235.82 322.675 234.912 322.892 234.062 323.325C233.228 323.758 232.52 324.392 231.937 325.225C231.353 326.042 230.962 327.017 230.762 328.15C230.678 328.65 230.637 329.075 230.637 329.425C230.637 330.742 231.02 331.783 231.787 332.55C232.57 333.3 233.587 333.675 234.837 333.675C235.77 333.675 236.662 333.45 237.512 333C238.378 332.55 239.103 331.908 239.687 331.075C240.287 330.242 240.687 329.275 240.887 328.175ZM259.657 321.35L257.257 335H255.507L255.932 332.6C255.365 333.45 254.632 334.1 253.732 334.55C252.832 335 251.865 335.225 250.832 335.225C249.432 335.225 248.307 334.85 247.457 334.1C246.607 333.333 246.182 332.225 246.182 330.775C246.182 330.242 246.223 329.758 246.307 329.325L247.707 321.35H249.432L248.057 329.125C247.99 329.508 247.957 329.908 247.957 330.325C247.957 331.425 248.257 332.267 248.857 332.85C249.473 333.417 250.323 333.7 251.407 333.7C252.673 333.7 253.765 333.317 254.682 332.55C255.598 331.767 256.215 330.625 256.532 329.125L257.907 321.35H259.657ZM269.602 321.15C270.752 321.15 271.735 321.375 272.552 321.825C273.369 322.258 273.985 322.858 274.402 323.625C274.835 324.392 275.052 325.267 275.052 326.25C275.052 326.7 275.019 327.1 274.952 327.45C274.852 327.95 274.752 328.4 274.652 328.8H263.327C263.277 329.117 263.252 329.417 263.252 329.7C263.252 330.983 263.635 331.975 264.402 332.675C265.185 333.375 266.177 333.725 267.377 333.725C268.527 333.725 269.535 333.45 270.402 332.9C271.269 332.35 271.902 331.608 272.302 330.675H274.177C273.61 332.008 272.702 333.1 271.452 333.95C270.219 334.783 268.777 335.2 267.127 335.2C265.427 335.2 264.06 334.717 263.027 333.75C262.01 332.767 261.502 331.433 261.502 329.75C261.502 329.25 261.552 328.725 261.652 328.175C261.902 326.758 262.402 325.517 263.152 324.45C263.919 323.383 264.86 322.567 265.977 322C267.094 321.433 268.302 321.15 269.602 321.15ZM273.152 327.5C273.235 327.033 273.277 326.642 273.277 326.325C273.277 325.142 272.902 324.233 272.152 323.6C271.402 322.967 270.444 322.65 269.277 322.65C268.427 322.65 267.61 322.833 266.827 323.2C266.044 323.567 265.36 324.117 264.777 324.85C264.194 325.583 263.794 326.467 263.577 327.5H273.152ZM289.202 316.5L285.927 335H284.177L287.452 316.5H289.202ZM290.29 328.15C290.54 326.75 291.04 325.525 291.79 324.475C292.54 323.408 293.456 322.592 294.54 322.025C295.64 321.442 296.815 321.15 298.065 321.15C299.365 321.15 300.431 321.45 301.265 322.05C302.098 322.65 302.64 323.417 302.89 324.35L303.415 321.35H305.165L302.765 335H301.015L301.54 331.975C300.973 332.908 300.156 333.683 299.09 334.3C298.04 334.9 296.865 335.2 295.565 335.2C294.481 335.2 293.531 334.975 292.715 334.525C291.898 334.075 291.265 333.442 290.815 332.625C290.365 331.792 290.14 330.817 290.14 329.7C290.14 329.217 290.19 328.7 290.29 328.15ZM302.215 328.175C302.298 327.708 302.34 327.292 302.34 326.925C302.34 325.625 301.948 324.592 301.165 323.825C300.381 323.058 299.365 322.675 298.115 322.675C297.148 322.675 296.24 322.892 295.39 323.325C294.556 323.758 293.848 324.392 293.265 325.225C292.681 326.042 292.29 327.017 292.09 328.15C292.006 328.65 291.965 329.075 291.965 329.425C291.965 330.742 292.348 331.783 293.115 332.55C293.898 333.3 294.915 333.675 296.165 333.675C297.098 333.675 297.99 333.45 298.84 333C299.706 332.55 300.431 331.908 301.015 331.075C301.615 330.242 302.015 329.275 302.215 328.175ZM325.485 321.1C326.851 321.1 327.943 321.475 328.76 322.225C329.593 322.975 330.01 324.075 330.01 325.525C330.01 325.975 329.96 326.467 329.86 327L328.435 335H326.71L328.11 327.2C328.193 326.7 328.235 326.283 328.235 325.95C328.235 324.867 327.943 324.042 327.36 323.475C326.776 322.908 325.951 322.625 324.885 322.625C323.701 322.625 322.66 323 321.76 323.75C320.876 324.5 320.26 325.583 319.91 327L318.46 335H316.735L318.135 327.2C318.218 326.7 318.26 326.283 318.26 325.95C318.26 324.867 317.968 324.042 317.385 323.475C316.801 322.908 315.985 322.625 314.935 322.625C313.668 322.625 312.576 323.042 311.66 323.875C310.743 324.692 310.135 325.875 309.835 327.425L308.51 335H306.76L309.16 321.35H310.91L310.485 323.725C311.051 322.875 311.776 322.225 312.66 321.775C313.56 321.325 314.51 321.1 315.51 321.1C316.693 321.1 317.676 321.383 318.46 321.95C319.243 322.517 319.735 323.35 319.935 324.45C320.485 323.367 321.26 322.542 322.26 321.975C323.26 321.392 324.335 321.1 325.485 321.1ZM340.671 321.15C341.821 321.15 342.805 321.375 343.621 321.825C344.438 322.258 345.055 322.858 345.471 323.625C345.905 324.392 346.121 325.267 346.121 326.25C346.121 326.7 346.088 327.1 346.021 327.45C345.921 327.95 345.821 328.4 345.721 328.8H334.396C334.346 329.117 334.321 329.417 334.321 329.7C334.321 330.983 334.705 331.975 335.471 332.675C336.255 333.375 337.246 333.725 338.446 333.725C339.596 333.725 340.605 333.45 341.471 332.9C342.338 332.35 342.971 331.608 343.371 330.675H345.246C344.68 332.008 343.771 333.1 342.521 333.95C341.288 334.783 339.846 335.2 338.196 335.2C336.496 335.2 335.13 334.717 334.096 333.75C333.08 332.767 332.571 331.433 332.571 329.75C332.571 329.25 332.621 328.725 332.721 328.175C332.971 326.758 333.471 325.517 334.221 324.45C334.988 323.383 335.93 322.567 337.046 322C338.163 321.433 339.371 321.15 340.671 321.15ZM344.221 327.5C344.305 327.033 344.346 326.642 344.346 326.325C344.346 325.142 343.971 324.233 343.221 323.6C342.471 322.967 341.513 322.65 340.346 322.65C339.496 322.65 338.68 322.833 337.896 323.2C337.113 323.567 336.43 324.117 335.846 324.85C335.263 325.583 334.863 326.467 334.646 327.5H344.221ZM356.748 321.1C358.148 321.1 359.265 321.483 360.098 322.25C360.948 323 361.373 324.1 361.373 325.55C361.373 326.083 361.331 326.567 361.248 327L359.823 335H358.098L359.473 327.2C359.54 326.817 359.573 326.408 359.573 325.975C359.573 324.875 359.273 324.042 358.673 323.475C358.073 322.908 357.231 322.625 356.148 322.625C354.831 322.625 353.706 323.042 352.773 323.875C351.84 324.708 351.231 325.933 350.948 327.55V327.475L349.623 335H347.873L350.273 321.35H352.023L351.598 323.7C352.181 322.867 352.923 322.225 353.823 321.775C354.723 321.325 355.698 321.1 356.748 321.1ZM366.593 331.3C366.543 331.6 366.518 331.858 366.518 332.075C366.518 332.608 366.66 332.983 366.943 333.2C367.243 333.4 367.727 333.5 368.393 333.5H369.993L369.718 335H367.843C366.81 335 366.035 334.8 365.518 334.4C365.002 334 364.743 333.342 364.743 332.425C364.743 332.058 364.777 331.683 364.843 331.3L366.343 322.825H364.443L364.718 321.35H366.618L367.218 317.925H368.968L368.368 321.35H372.143L371.868 322.825H368.093L366.593 331.3ZM373.004 328.15C373.254 326.75 373.754 325.525 374.504 324.475C375.254 323.408 376.171 322.592 377.254 322.025C378.354 321.442 379.529 321.15 380.779 321.15C382.079 321.15 383.146 321.45 383.979 322.05C384.813 322.65 385.354 323.417 385.604 324.35L386.129 321.35H387.879L385.479 335H383.729L384.254 331.975C383.688 332.908 382.871 333.683 381.804 334.3C380.754 334.9 379.579 335.2 378.279 335.2C377.196 335.2 376.246 334.975 375.429 334.525C374.613 334.075 373.979 333.442 373.529 332.625C373.079 331.792 372.854 330.817 372.854 329.7C372.854 329.217 372.904 328.7 373.004 328.15ZM384.929 328.175C385.013 327.708 385.054 327.292 385.054 326.925C385.054 325.625 384.663 324.592 383.879 323.825C383.096 323.058 382.079 322.675 380.829 322.675C379.863 322.675 378.954 322.892 378.104 323.325C377.271 323.758 376.563 324.392 375.979 325.225C375.396 326.042 375.004 327.017 374.804 328.15C374.721 328.65 374.679 329.075 374.679 329.425C374.679 330.742 375.063 331.783 375.829 332.55C376.613 333.3 377.629 333.675 378.879 333.675C379.813 333.675 380.704 333.45 381.554 333C382.421 332.55 383.146 331.908 383.729 331.075C384.329 330.242 384.729 329.275 384.929 328.175ZM393.15 324.075C393.7 323.125 394.416 322.392 395.3 321.875C396.183 321.358 397.208 321.1 398.375 321.1L398.05 322.925H397.55C396.35 322.925 395.316 323.233 394.45 323.85C393.583 324.467 392.983 325.483 392.65 326.9L391.225 335H389.475L391.875 321.35H393.625L393.15 324.075ZM402.107 317.525H404.132L400.982 322.925H399.707L402.107 317.525ZM405.782 317.525H407.807L404.657 322.925H403.382L405.782 317.525Z" fill="white"/>
</g>
<g filter="url(#filter2_d_2007_19)">
<path d="M86.3825 866.21C84.6425 866.21 83.1125 865.85 81.7925 865.13C80.4725 864.39 79.4425 863.36 78.7025 862.04C77.9825 860.72 77.6225 859.21 77.6225 857.51C77.6225 855.15 78.1525 853.01 79.2125 851.09C80.2925 849.15 81.7725 847.63 83.6525 846.53C85.5325 845.41 87.6325 844.85 89.9525 844.85C91.7125 844.85 93.2525 845.22 94.5725 845.96C95.9125 846.68 96.9425 847.7 97.6625 849.02C98.3825 850.32 98.7425 851.82 98.7425 853.52C98.7425 855.9 98.2025 858.06 97.1225 860C96.0625 861.92 94.5925 863.44 92.7125 864.56C90.8325 865.66 88.7225 866.21 86.3825 866.21ZM86.7725 863.75C88.5325 863.75 90.1025 863.3 91.4825 862.4C92.8825 861.48 93.9725 860.25 94.7525 858.71C95.5325 857.17 95.9225 855.5 95.9225 853.7C95.9225 851.72 95.3525 850.16 94.2125 849.02C93.0725 847.88 91.5225 847.31 89.5625 847.31C87.8025 847.31 86.2225 847.77 84.8225 848.69C83.4425 849.59 82.3625 850.81 81.5825 852.35C80.8225 853.87 80.4425 855.53 80.4425 857.33C80.4425 859.31 81.0025 860.88 82.1225 862.04C83.2625 863.18 84.8125 863.75 86.7725 863.75ZM107.086 843.8L103.156 866H100.426L104.356 843.8H107.086ZM114.379 863.42L121.939 849.56H124.879L115.519 866H112.309L108.769 849.56H111.709L114.379 863.42ZM129.396 846.89C128.956 846.89 128.586 846.75 128.286 846.47C128.006 846.17 127.866 845.8 127.866 845.36C127.866 844.76 128.086 844.25 128.526 843.83C128.966 843.39 129.476 843.17 130.056 843.17C130.516 843.17 130.886 843.31 131.166 843.59C131.446 843.87 131.586 844.24 131.586 844.7C131.586 845.3 131.366 845.82 130.926 846.26C130.486 846.68 129.976 846.89 129.396 846.89ZM130.266 849.56L127.356 866H124.626L127.536 849.56H130.266ZM132.429 857.72C132.729 856.04 133.329 854.57 134.229 853.31C135.149 852.03 136.269 851.04 137.589 850.34C138.909 849.64 140.309 849.29 141.789 849.29C143.049 849.29 144.179 849.59 145.179 850.19C146.179 850.77 146.889 851.54 147.309 852.5L148.839 843.8H151.599L147.669 866H144.909L145.479 862.91C144.779 863.89 143.839 864.7 142.659 865.34C141.479 865.96 140.179 866.27 138.759 866.27C137.479 866.27 136.349 866 135.369 865.46C134.389 864.9 133.619 864.11 133.059 863.09C132.519 862.07 132.249 860.89 132.249 859.55C132.249 858.95 132.309 858.34 132.429 857.72ZM146.379 857.75C146.459 857.33 146.499 856.88 146.499 856.4C146.499 854.94 146.059 853.79 145.179 852.95C144.319 852.09 143.219 851.66 141.879 851.66C140.859 851.66 139.879 851.9 138.939 852.38C138.019 852.86 137.229 853.56 136.569 854.48C135.909 855.4 135.469 856.48 135.249 857.72C135.169 858.14 135.129 858.6 135.129 859.1C135.129 860.58 135.559 861.75 136.419 862.61C137.279 863.45 138.379 863.87 139.719 863.87C140.739 863.87 141.709 863.63 142.629 863.15C143.569 862.65 144.369 861.94 145.029 861.02C145.709 860.08 146.159 858.99 146.379 857.75ZM152.702 857.72C153.002 856.04 153.602 854.57 154.502 853.31C155.422 852.03 156.532 851.04 157.832 850.34C159.152 849.64 160.552 849.29 162.032 849.29C163.472 849.29 164.662 849.6 165.602 850.22C166.542 850.84 167.192 851.62 167.552 852.56L168.092 849.56H170.852L167.942 866H165.182L165.752 862.94C165.032 863.9 164.082 864.7 162.902 865.34C161.722 865.96 160.422 866.27 159.002 866.27C157.722 866.27 156.592 866 155.612 865.46C154.632 864.9 153.872 864.11 153.332 863.09C152.792 862.07 152.522 860.89 152.522 859.55C152.522 858.95 152.582 858.34 152.702 857.72ZM166.652 857.75C166.732 857.33 166.772 856.88 166.772 856.4C166.772 854.94 166.332 853.79 165.452 852.95C164.592 852.09 163.492 851.66 162.152 851.66C161.132 851.66 160.152 851.9 159.212 852.38C158.292 852.86 157.502 853.56 156.842 854.48C156.182 855.4 155.742 856.48 155.522 857.72C155.442 858.14 155.402 858.6 155.402 859.1C155.402 860.58 155.832 861.75 156.692 862.61C157.552 863.45 158.652 863.87 159.992 863.87C161.012 863.87 161.982 863.63 162.902 863.15C163.842 862.65 164.642 861.94 165.302 861.02C165.982 860.08 166.432 858.99 166.652 857.75ZM178.345 866.27C176.625 866.27 175.215 865.86 174.115 865.04C173.015 864.22 172.465 863.12 172.465 861.74C172.465 861.48 172.475 861.29 172.495 861.17H175.165C175.085 862.03 175.335 862.73 175.915 863.27C176.515 863.81 177.375 864.08 178.495 864.08C179.615 864.08 180.515 863.87 181.195 863.45C181.895 863.01 182.245 862.4 182.245 861.62C182.245 860.96 181.965 860.44 181.405 860.06C180.845 859.68 179.985 859.27 178.825 858.83C177.805 858.45 176.965 858.09 176.305 857.75C175.645 857.41 175.085 856.94 174.625 856.34C174.165 855.72 173.935 854.94 173.935 854C173.935 853.08 174.195 852.26 174.715 851.54C175.255 850.82 175.995 850.27 176.935 849.89C177.895 849.49 178.985 849.29 180.205 849.29C181.885 849.29 183.265 849.71 184.345 850.55C185.425 851.39 185.965 852.49 185.965 853.85C185.965 854.11 185.955 854.31 185.935 854.45H183.325L183.355 854.09C183.355 853.29 183.045 852.66 182.425 852.2C181.825 851.72 181.025 851.48 180.025 851.48C179.045 851.48 178.235 851.7 177.595 852.14C176.975 852.58 176.665 853.17 176.665 853.91C176.665 854.61 176.955 855.16 177.535 855.56C178.115 855.96 179.015 856.4 180.235 856.88C181.255 857.28 182.075 857.65 182.695 857.99C183.315 858.31 183.845 858.76 184.285 859.34C184.725 859.92 184.945 860.65 184.945 861.53C184.945 862.49 184.655 863.33 184.075 864.05C183.515 864.77 182.735 865.32 181.735 865.7C180.735 866.08 179.605 866.27 178.345 866.27ZM192.369 861.5C192.309 861.8 192.279 862.06 192.279 862.28C192.279 862.78 192.429 863.14 192.729 863.36C193.049 863.58 193.559 863.69 194.259 863.69H196.269L195.849 866H193.389C192.089 866 191.109 865.75 190.449 865.25C189.809 864.75 189.489 863.93 189.489 862.79C189.489 862.35 189.529 861.92 189.609 861.5L191.319 851.81H189.219L189.609 849.56H191.739L192.459 845.42H195.219L194.499 849.56H198.759L198.369 851.81H194.079L192.369 861.5ZM209.207 849.29C210.587 849.29 211.777 849.56 212.777 850.1C213.797 850.62 214.567 851.36 215.087 852.32C215.627 853.26 215.897 854.34 215.897 855.56C215.897 855.98 215.847 856.49 215.747 857.09C215.667 857.61 215.537 858.15 215.357 858.71H202.217C202.177 859.11 202.157 859.4 202.157 859.58C202.157 860.96 202.567 862.04 203.387 862.82C204.227 863.58 205.317 863.96 206.657 863.96C207.837 863.96 208.867 863.69 209.747 863.15C210.647 862.59 211.327 861.85 211.787 860.93H214.727C214.007 862.51 212.897 863.8 211.397 864.8C209.917 865.78 208.197 866.27 206.237 866.27C204.177 866.27 202.517 865.68 201.257 864.5C200.017 863.3 199.397 861.67 199.397 859.61C199.397 859.03 199.457 858.41 199.577 857.75C199.877 856.05 200.487 854.56 201.407 853.28C202.327 852 203.457 851.02 204.797 850.34C206.157 849.64 207.627 849.29 209.207 849.29ZM212.987 856.73C213.047 856.33 213.077 855.96 213.077 855.62C213.077 854.34 212.667 853.35 211.847 852.65C211.047 851.95 209.997 851.6 208.697 851.6C207.297 851.6 206.027 852.06 204.887 852.98C203.747 853.88 202.977 855.13 202.577 856.73H212.987ZM230.836 861.5C230.776 861.8 230.746 862.06 230.746 862.28C230.746 862.78 230.896 863.14 231.196 863.36C231.516 863.58 232.026 863.69 232.726 863.69H234.736L234.316 866H231.856C230.556 866 229.576 865.75 228.916 865.25C228.276 864.75 227.956 863.93 227.956 862.79C227.956 862.35 227.996 861.92 228.076 861.5L229.786 851.81H227.686L228.076 849.56H230.206L230.926 845.42H233.686L232.966 849.56H237.226L236.836 851.81H232.546L230.836 861.5ZM255.114 849.56L252.204 866H249.474L249.894 863.6C249.234 864.44 248.394 865.09 247.374 865.55C246.354 866.01 245.294 866.24 244.194 866.24C242.474 866.24 241.094 865.78 240.054 864.86C239.034 863.92 238.524 862.58 238.524 860.84C238.524 860.4 238.574 859.85 238.674 859.19L240.384 849.56H243.084L241.464 858.83C241.384 859.25 241.344 859.69 241.344 860.15C241.344 861.37 241.674 862.3 242.334 862.94C243.014 863.56 243.954 863.87 245.154 863.87C246.594 863.87 247.814 863.42 248.814 862.52C249.834 861.62 250.484 860.31 250.764 858.59V858.68L252.384 849.56H255.114ZM266.169 857.75C266.469 856.05 267.069 854.57 267.969 853.31C268.889 852.03 270.019 851.04 271.359 850.34C272.699 849.64 274.149 849.29 275.709 849.29C277.729 849.29 279.299 849.78 280.419 850.76C281.559 851.74 282.189 853.1 282.309 854.84H279.369C279.269 853.84 278.859 853.05 278.139 852.47C277.439 851.89 276.489 851.6 275.289 851.6C273.729 851.6 272.369 852.14 271.209 853.22C270.069 854.28 269.329 855.79 268.989 857.75C268.889 858.41 268.839 858.96 268.839 859.4C268.839 860.86 269.229 861.99 270.009 862.79C270.789 863.57 271.829 863.96 273.129 863.96C274.329 863.96 275.369 863.68 276.249 863.12C277.149 862.56 277.839 861.76 278.319 860.72H281.259C280.539 862.4 279.429 863.75 277.929 864.77C276.429 865.77 274.689 866.27 272.709 866.27C270.649 866.27 269.009 865.68 267.789 864.5C266.589 863.32 265.989 861.71 265.989 859.67C265.989 859.05 266.049 858.41 266.169 857.75ZM290.631 843.8L286.701 866H283.971L287.901 843.8H290.631ZM291.774 857.72C292.074 856.04 292.674 854.57 293.574 853.31C294.494 852.03 295.604 851.04 296.904 850.34C298.224 849.64 299.624 849.29 301.104 849.29C302.544 849.29 303.734 849.6 304.674 850.22C305.614 850.84 306.264 851.62 306.624 852.56L307.164 849.56H309.924L307.014 866H304.254L304.824 862.94C304.104 863.9 303.154 864.7 301.974 865.34C300.794 865.96 299.494 866.27 298.074 866.27C296.794 866.27 295.664 866 294.684 865.46C293.704 864.9 292.944 864.11 292.404 863.09C291.864 862.07 291.594 860.89 291.594 859.55C291.594 858.95 291.654 858.34 291.774 857.72ZM305.724 857.75C305.804 857.33 305.844 856.88 305.844 856.4C305.844 854.94 305.404 853.79 304.524 852.95C303.664 852.09 302.564 851.66 301.224 851.66C300.204 851.66 299.224 851.9 298.284 852.38C297.364 852.86 296.574 853.56 295.914 854.48C295.254 855.4 294.814 856.48 294.594 857.72C294.514 858.14 294.474 858.6 294.474 859.1C294.474 860.58 294.904 861.75 295.764 862.61C296.624 863.45 297.724 863.87 299.064 863.87C300.084 863.87 301.054 863.63 301.974 863.15C302.914 862.65 303.714 861.94 304.374 861.02C305.054 860.08 305.504 858.99 305.724 857.75ZM318.198 863.42L325.758 849.56H328.698L319.338 866H316.128L312.588 849.56H315.528L318.198 863.42ZM338.494 849.29C339.874 849.29 341.064 849.56 342.064 850.1C343.084 850.62 343.854 851.36 344.374 852.32C344.914 853.26 345.184 854.34 345.184 855.56C345.184 855.98 345.134 856.49 345.034 857.09C344.954 857.61 344.824 858.15 344.644 858.71H331.504C331.464 859.11 331.444 859.4 331.444 859.58C331.444 860.96 331.854 862.04 332.674 862.82C333.514 863.58 334.604 863.96 335.944 863.96C337.124 863.96 338.154 863.69 339.034 863.15C339.934 862.59 340.614 861.85 341.074 860.93H344.014C343.294 862.51 342.184 863.8 340.684 864.8C339.204 865.78 337.484 866.27 335.524 866.27C333.464 866.27 331.804 865.68 330.544 864.5C329.304 863.3 328.684 861.67 328.684 859.61C328.684 859.03 328.744 858.41 328.864 857.75C329.164 856.05 329.774 854.56 330.694 853.28C331.614 852 332.744 851.02 334.084 850.34C335.444 849.64 336.914 849.29 338.494 849.29ZM342.274 856.73C342.334 856.33 342.364 855.96 342.364 855.62C342.364 854.34 341.954 853.35 341.134 852.65C340.334 851.95 339.284 851.6 337.984 851.6C336.584 851.6 335.314 852.06 334.174 852.98C333.034 853.88 332.264 855.13 331.864 856.73H342.274ZM356.138 844.82C357.878 844.82 359.258 845.26 360.278 846.14C361.298 847 361.808 848.19 361.808 849.71C361.808 850.17 361.768 850.6 361.688 851C361.308 853.1 360.378 854.66 358.898 855.68C357.418 856.68 355.578 857.18 353.378 857.18L352.748 860.03H350.378L351.098 855.29H351.968C353.968 855.29 355.578 854.99 356.798 854.39C358.018 853.79 358.778 852.66 359.078 851C359.138 850.7 359.168 850.41 359.168 850.13C359.168 849.19 358.868 848.45 358.268 847.91C357.668 847.37 356.838 847.1 355.778 847.1C354.538 847.1 353.498 847.44 352.658 848.12C351.818 848.78 351.298 849.69 351.098 850.85H348.518C348.718 849.65 349.168 848.6 349.868 847.7C350.588 846.78 351.488 846.07 352.568 845.57C353.668 845.07 354.858 844.82 356.138 844.82ZM350.468 866.18C350.008 866.18 349.628 866.04 349.328 865.76C349.048 865.48 348.908 865.11 348.908 864.65C348.908 864.05 349.128 863.54 349.568 863.12C350.008 862.68 350.528 862.46 351.128 862.46C351.588 862.46 351.958 862.6 352.238 862.88C352.518 863.16 352.658 863.53 352.658 863.99C352.658 864.59 352.438 865.11 351.998 865.55C351.558 865.97 351.048 866.18 350.468 866.18Z" fill="white"/>
<path d="M76.0625 869H361.988V870.5H76.0625V869Z" fill="white"/>
</g>
<path d="M96.4481 498.74V489.2H113.068V533H102.388V498.74H96.4481ZM208.731 524.78C210.091 523.7 210.711 523.2 210.591 523.28C214.511 520.04 217.591 517.38 219.831 515.3C222.111 513.22 224.031 511.04 225.591 508.76C227.151 506.48 227.931 504.26 227.931 502.1C227.931 500.46 227.551 499.18 226.791 498.26C226.031 497.34 224.891 496.88 223.371 496.88C221.851 496.88 220.651 497.46 219.771 498.62C218.931 499.74 218.511 501.34 218.511 503.42H208.611C208.691 500.02 209.411 497.18 210.771 494.9C212.171 492.62 213.991 490.94 216.231 489.86C218.511 488.78 221.031 488.24 223.791 488.24C228.551 488.24 232.131 489.46 234.531 491.9C236.971 494.34 238.191 497.52 238.191 501.44C238.191 505.72 236.731 509.7 233.811 513.38C230.891 517.02 227.171 520.58 222.651 524.06H238.851V532.4H208.731V524.78ZM320.017 501.56C320.177 497.28 321.577 493.98 324.217 491.66C326.857 489.34 330.437 488.18 334.957 488.18C337.957 488.18 340.517 488.7 342.637 489.74C344.797 490.78 346.417 492.2 347.497 494C348.617 495.8 349.177 497.82 349.177 500.06C349.177 502.7 348.517 504.86 347.197 506.54C345.877 508.18 344.337 509.3 342.577 509.9V510.14C344.857 510.9 346.657 512.16 347.977 513.92C349.297 515.68 349.957 517.94 349.957 520.7C349.957 523.18 349.377 525.38 348.217 527.3C347.097 529.18 345.437 530.66 343.237 531.74C341.077 532.82 338.497 533.36 335.497 533.36C330.697 533.36 326.857 532.18 323.977 529.82C321.137 527.46 319.637 523.9 319.477 519.14H329.437C329.477 520.9 329.977 522.3 330.937 523.34C331.897 524.34 333.297 524.84 335.137 524.84C336.697 524.84 337.897 524.4 338.737 523.52C339.617 522.6 340.057 521.4 340.057 519.92C340.057 518 339.437 516.62 338.197 515.78C336.997 514.9 335.057 514.46 332.377 514.46H330.457V506.12H332.377C334.417 506.12 336.057 505.78 337.297 505.1C338.577 504.38 339.217 503.12 339.217 501.32C339.217 499.88 338.817 498.76 338.017 497.96C337.217 497.16 336.117 496.76 334.717 496.76C333.197 496.76 332.057 497.22 331.297 498.14C330.577 499.06 330.157 500.2 330.037 501.56H320.017ZM85.815 615.2V606.92L104.775 579.8H116.235V606.32H121.155V615.2H116.235V623H105.975V615.2H85.815ZM106.695 591.08L96.615 606.32H106.695V591.08ZM233.31 588.14H214.59V596.42C215.39 595.54 216.51 594.82 217.95 594.26C219.39 593.7 220.95 593.42 222.63 593.42C225.63 593.42 228.11 594.1 230.07 595.46C232.07 596.82 233.53 598.58 234.45 600.74C235.37 602.9 235.83 605.24 235.83 607.76C235.83 612.44 234.51 616.16 231.87 618.92C229.23 621.64 225.51 623 220.71 623C217.51 623 214.73 622.46 212.37 621.38C210.01 620.26 208.19 618.72 206.91 616.76C205.63 614.8 204.93 612.54 204.81 609.98H214.83C215.07 611.22 215.65 612.26 216.57 613.1C217.49 613.9 218.75 614.3 220.35 614.3C222.23 614.3 223.63 613.7 224.55 612.5C225.47 611.3 225.93 609.7 225.93 607.7C225.93 605.74 225.45 604.24 224.49 603.2C223.53 602.16 222.13 601.64 220.29 601.64C218.93 601.64 217.81 601.98 216.93 602.66C216.05 603.3 215.47 604.16 215.19 605.24H205.29V579.14H233.31V588.14ZM339.442 591.02C339.122 589.54 338.562 588.44 337.762 587.72C336.962 586.96 335.822 586.58 334.342 586.58C332.062 586.58 330.422 587.58 329.422 589.58C328.422 591.54 327.902 594.66 327.862 598.94C328.742 597.54 330.002 596.44 331.642 595.64C333.322 594.84 335.162 594.44 337.162 594.44C341.082 594.44 344.222 595.68 346.582 598.16C348.982 600.64 350.182 604.1 350.182 608.54C350.182 611.46 349.582 614.02 348.382 616.22C347.222 618.42 345.502 620.14 343.222 621.38C340.982 622.62 338.322 623.24 335.242 623.24C329.082 623.24 324.802 621.32 322.402 617.48C320.002 613.6 318.802 608.04 318.802 600.8C318.802 593.2 320.062 587.56 322.582 583.88C325.142 580.16 329.222 578.3 334.822 578.3C337.822 578.3 340.342 578.9 342.382 580.1C344.462 581.26 346.022 582.8 347.062 584.72C348.142 586.64 348.782 588.74 348.982 591.02H339.442ZM334.702 602.54C332.982 602.54 331.542 603.06 330.382 604.1C329.262 605.1 328.702 606.54 328.702 608.42C328.702 610.34 329.222 611.84 330.262 612.92C331.342 614 332.862 614.54 334.822 614.54C336.582 614.54 337.962 614.02 338.962 612.98C340.002 611.9 340.522 610.44 340.522 608.6C340.522 606.72 340.022 605.24 339.022 604.16C338.022 603.08 336.582 602.54 334.702 602.54ZM123.437 676.88L108.377 713H97.8773L113.117 678.02H94.4573V669.26H123.437V676.88ZM211.076 689.48C207.316 687.48 205.436 684.34 205.436 680.06C205.436 677.9 205.996 675.94 207.116 674.18C208.236 672.38 209.936 670.96 212.216 669.92C214.496 668.84 217.296 668.3 220.616 668.3C223.936 668.3 226.716 668.84 228.956 669.92C231.236 670.96 232.936 672.38 234.056 674.18C235.176 675.94 235.736 677.9 235.736 680.06C235.736 682.22 235.216 684.1 234.176 685.7C233.176 687.3 231.816 688.56 230.096 689.48C232.256 690.52 233.916 691.96 235.076 693.8C236.236 695.6 236.816 697.72 236.816 700.16C236.816 703 236.096 705.46 234.656 707.54C233.216 709.58 231.256 711.14 228.776 712.22C226.336 713.3 223.616 713.84 220.616 713.84C217.616 713.84 214.876 713.3 212.396 712.22C209.956 711.14 208.016 709.58 206.576 707.54C205.136 705.46 204.416 703 204.416 700.16C204.416 697.68 204.996 695.54 206.156 693.74C207.316 691.9 208.956 690.48 211.076 689.48ZM225.776 681.62C225.776 679.98 225.296 678.72 224.336 677.84C223.416 676.92 222.176 676.46 220.616 676.46C219.056 676.46 217.796 676.92 216.836 677.84C215.916 678.76 215.456 680.04 215.456 681.68C215.456 683.24 215.936 684.48 216.896 685.4C217.856 686.28 219.096 686.72 220.616 686.72C222.136 686.72 223.376 686.26 224.336 685.34C225.296 684.42 225.776 683.18 225.776 681.62ZM220.616 693.92C218.736 693.92 217.216 694.44 216.056 695.48C214.896 696.48 214.316 697.88 214.316 699.68C214.316 701.36 214.876 702.74 215.996 703.82C217.156 704.9 218.696 705.44 220.616 705.44C222.536 705.44 224.036 704.9 225.116 703.82C226.236 702.74 226.796 701.36 226.796 699.68C226.796 697.92 226.216 696.52 225.056 695.48C223.936 694.44 222.456 693.92 220.616 693.92ZM330.111 700.16C330.711 703.32 332.551 704.9 335.631 704.9C337.751 704.9 339.251 703.96 340.131 702.08C341.011 700.2 341.451 697.14 341.451 692.9C340.571 694.14 339.371 695.1 337.851 695.78C336.331 696.46 334.631 696.8 332.751 696.8C330.191 696.8 327.911 696.28 325.911 695.24C323.911 694.16 322.331 692.58 321.171 690.5C320.051 688.38 319.491 685.82 319.491 682.82C319.491 679.86 320.091 677.28 321.291 675.08C322.531 672.88 324.271 671.18 326.511 669.98C328.791 668.78 331.471 668.18 334.551 668.18C340.471 668.18 344.611 670.02 346.971 673.7C349.331 677.38 350.511 682.8 350.511 689.96C350.511 695.16 350.031 699.46 349.071 702.86C348.151 706.22 346.571 708.78 344.331 710.54C342.131 712.3 339.111 713.18 335.271 713.18C332.231 713.18 329.631 712.58 327.471 711.38C325.351 710.18 323.711 708.6 322.551 706.64C321.431 704.68 320.791 702.52 320.631 700.16H330.111ZM335.091 688.7C336.771 688.7 338.111 688.2 339.111 687.2C340.111 686.16 340.611 684.76 340.611 683C340.611 681.08 340.091 679.6 339.051 678.56C338.011 677.52 336.611 677 334.851 677C333.091 677 331.691 677.54 330.651 678.62C329.651 679.66 329.151 681.1 329.151 682.94C329.151 684.66 329.651 686.06 330.651 687.14C331.691 688.18 333.171 688.7 335.091 688.7ZM202.645 780.5C202.645 773.62 203.965 768.2 206.605 764.24C209.285 760.28 213.585 758.3 219.505 758.3C225.425 758.3 229.705 760.28 232.345 764.24C235.025 768.2 236.365 773.62 236.365 780.5C236.365 787.46 235.025 792.92 232.345 796.88C229.705 800.84 225.425 802.82 219.505 802.82C213.585 802.82 209.285 800.84 206.605 796.88C203.965 792.92 202.645 787.46 202.645 780.5ZM226.285 780.5C226.285 776.46 225.845 773.36 224.965 771.2C224.085 769 222.265 767.9 219.505 767.9C216.745 767.9 214.925 769 214.045 771.2C213.165 773.36 212.725 776.46 212.725 780.5C212.725 783.22 212.885 785.48 213.205 787.28C213.525 789.04 214.165 790.48 215.125 791.6C216.125 792.68 217.585 793.22 219.505 793.22C221.425 793.22 222.865 792.68 223.825 791.6C224.825 790.48 225.485 789.04 225.805 787.28C226.125 785.48 226.285 783.22 226.285 780.5ZM315.344 803L297.224 782.18L315.344 761.36H362.924V803H315.344ZM317.564 798.74H358.604V765.62H317.564L303.044 782.18L317.564 798.74ZM326.264 796.4L323.084 793.4L333.764 782.18L323.084 770.96L326.204 767.96L336.764 779.06L347.324 767.96L350.444 770.96L339.764 782.18L350.444 793.4L347.264 796.4L336.764 785.36L326.264 796.4Z" fill="white"/>
<path d="M247.606 803.48C245.806 803.48 244.326 802.96 243.166 801.92C242.046 800.84 241.486 799.52 241.486 797.96C241.486 796.36 242.046 795.02 243.166 793.94C244.326 792.86 245.806 792.32 247.606 792.32C249.366 792.32 250.806 792.86 251.926 793.94C253.086 795.02 253.666 796.36 253.666 797.96C253.666 799.52 253.086 800.84 251.926 801.92C250.806 802.96 249.366 803.48 247.606 803.48Z" fill="#E9A427"/>
<g filter="url(#filter3_d_2007_19)">
<path d="M50.0234 61C47.9568 58.5333 45.7901 56.4 43.5234 54.6C41.3234 52.7333 38.9901 51.2 36.5234 50V45.7C41.4568 43.1667 45.9568 39.4667 50.0234 34.6H57.7234C56.9901 36.5333 56.1234 38.3667 55.1234 40.1C54.1901 41.7667 53.1901 43.3667 52.1234 44.9V50.8C53.1901 52.2 54.1901 53.7667 55.1234 55.5C56.1234 57.1667 56.9901 59 57.7234 61H50.0234ZM51.5234 51.9L51.6234 43.7H106.523V51.9H51.5234Z" fill="white"/>
</g>
<rect x="55" y="177" width="72.7273" height="72.7273" rx="12" fill="white"/>
<rect x="142.273" y="177" width="72.7273" height="72.7273" rx="12" fill="white"/>
<rect x="231" y="177" width="72.7273" height="72.7273" rx="12" fill="white"/>
<rect x="318.273" y="177" width="72.7273" height="72.7273" rx="12" fill="white"/>
</g>
<defs>
<filter id="filter0_d_2007_19" x="40.1648" y="112.28" width="287.496" height="36.044" filterUnits="userSpaceOnUse" color-interpolation-filters="sRGB">
<feFlood flood-opacity="0" result="BackgroundImageFix"/>
<feColorMatrix in="SourceAlpha" type="matrix" values="0 0 0 0 0 0 0 0 0 0 0 0 0 0 0 0 0 0 127 0" result="hardAlpha"/>
<feOffset dy="4"/>
<feGaussianBlur stdDeviation="2"/>
<feComposite in2="hardAlpha" operator="out"/>
<feColorMatrix type="matrix" values="0 0 0 0 0 0 0 0 0 0 0 0 0 0 0 0 0 0 0.25 0"/>
<feBlend mode="normal" in2="BackgroundImageFix" result="effect1_dropShadow_2007_19"/>
<feBlend mode="normal" in="SourceGraphic" in2="effect1_dropShadow_2007_19" result="shape"/>
</filter>
<filter id="filter1_d_2007_19" x="32.924" y="273.65" width="378.883" height="75.8" filterUnits="userSpaceOnUse" color-interpolation-filters="sRGB">
<feFlood flood-opacity="0" result="BackgroundImageFix"/>
<feColorMatrix in="SourceAlpha" type="matrix" values="0 0 0 0 0 0 0 0 0 0 0 0 0 0 0 0 0 0 127 0" result="hardAlpha"/>
<feOffset dy="4"/>
<feGaussianBlur stdDeviation="2"/>
<feComposite in2="hardAlpha" operator="out"/>
<feColorMatrix type="matrix" values="0 0 0 0 0 0 0 0 0 0 0 0 0 0 0 0 0 0 0.25 0"/>
<feBlend mode="normal" in2="BackgroundImageFix" result="effect1_dropShadow_2007_19"/>
<feBlend mode="normal" in="SourceGraphic" in2="effect1_dropShadow_2007_19" result="shape"/>
</filter>
<filter id="filter2_d_2007_19" x="72.0625" y="843.17" width="293.925" height="35.33" filterUnits="userSpaceOnUse" color-interpolation-filters="sRGB">
<feFlood flood-opacity="0" result="BackgroundImageFix"/>
<feColorMatrix in="SourceAlpha" type="matrix" values="0 0 0 0 0 0 0 0 0 0 0 0 0 0 0 0 0 0 127 0" result="hardAlpha"/>
<feOffset dy="4"/>
<feGaussianBlur stdDeviation="2"/>
<feComposite in2="hardAlpha" operator="out"/>
<feColorMatrix type="matrix" values="0 0 0 0 0 0 0 0 0 0 0 0 0 0 0 0 0 0 0.25 0"/>
<feBlend mode="normal" in2="BackgroundImageFix" result="effect1_dropShadow_2007_19"/>
<feBlend mode="normal" in="SourceGraphic" in2="effect1_dropShadow_2007_19" result="shape"/>
</filter>
<filter id="filter3_d_2007_19" x="32.5234" y="34.6" width="78" height="34.4" filterUnits="userSpaceOnUse" color-interpolation-filters="sRGB">
<feFlood flood-opacity="0" result="BackgroundImageFix"/>
<feColorMatrix in="SourceAlpha" type="matrix" values="0 0 0 0 0 0 0 0 0 0 0 0 0 0 0 0 0 0 127 0" result="hardAlpha"/>
<feOffset dy="4"/>
<feGaussianBlur stdDeviation="2"/>
<feComposite in2="hardAlpha" operator="out"/>
<feColorMatrix type="matrix" values="0 0 0 0 0 0 0 0 0 0 0 0 0 0 0 0 0 0 0.25 0"/>
<feBlend mode="normal" in2="BackgroundImageFix" result="effect1_dropShadow_2007_19"/>
<feBlend mode="normal" in="SourceGraphic" in2="effect1_dropShadow_2007_19" result="shape"/>
</filter>
<clipPath id="clip0_2007_19">
<rect width="430" height="932" fill="white"/>
</clipPath>
</defs>
</svg>
